<svg width="60" height="60" fill="none" xmlns="http://www.w3.org/2000/svg"><g clip-path="url(#a)"><path d="M38.918 58.133v-3a5.1 5.1 0 0 1 5.1-5.1 5.091 5.091 0 0 0 5.1-5.1v-4.897a2.932 2.932 0 0 1 2.932-2.933 2.932 2.932 0 0 0 2.633-4.23l-4.643-9.435a9 9 0 0 1-.922-3.937v-.75a9.001 9.001 0 0 0-4.17-7.598L33.27 3.751A9 9 0 0 0 24 3.48l-13.65 7.717a9 9 0 0 0-4.582 7.838v15.322a9 9 0 0 0 3 6.75l4.162 3.698a9 9 0 0 1 3 6.75v6.63l22.988-.053Z" fill="#fff"/><path d="M10.882 11.19v21.923a6 6 0 0 0 2.018 4.5l6.172 5.482a6 6 0 0 1 2.01 4.5l.315 8.025a2.55 2.55 0 0 1-2.55 2.55h-2.55l-.315-7.98a5.998 5.998 0 0 0-2.01-4.5L7.8 40.185a6 6 0 0 1-2.018-4.5V17.288a6 6 0 0 1 3.053-5.25l2.415-1.343" fill="#F7C171"/><path d="M38.932 57.54v-2.385a5.093 5.093 0 0 1 5.1-5.1v0a5.092 5.092 0 0 0 5.1-5.1v-4.92a2.933 2.933 0 0 1 2.933-2.933 2.932 2.932 0 0 0 2.632-4.23l-4.642-9.435a9 9 0 0 1-.923-3.937v-.75a8.999 8.999 0 0 0-4.177-7.598L33.285 3.75a9 9 0 0 0-9.248-.24l-13.68 7.687a9 9 0 0 0-4.575 7.838v15.322a9 9 0 0 0 3 6.75l4.155 3.698a9 9 0 0 1 3 6.75v6" stroke="#000" stroke-width="1.5" stroke-linecap="square" stroke-linejoin="round"/><path d="M30.66 16.388s-3.938-1.23-7.32.428a68.166 68.166 0 0 0-6.75 3.937" stroke="#000" stroke-width="1.5" stroke-linecap="round" stroke-linejoin="round"/><path d="m38.047 12.442 1.028 2.047-2.288-.135-2.287-.134 1.26-1.913 1.26-1.912 1.027 2.047ZM17.167 20.333l1.342 1.853-2.272.24-2.28.24.93-2.093.93-2.093 1.35 1.853ZM37.883 20.866l1.695 1.545-2.183.697-2.182.698.487-2.243.488-2.235 1.695 1.538ZM30.143 27.502l2.22-.57-.623 2.205-.615 2.205-1.605-1.635-1.597-1.643 2.22-.562ZM38.842 28.552l1.575-1.657.653 2.197.645 2.198-2.228-.54-2.227-.533 1.582-1.665Z" fill="#fff" stroke="#000" stroke-width="1.5" stroke-linecap="round" stroke-linejoin="round"/><path d="M19.875 12.495S26.512 7.087 35.43 12M42.406 17.836s8.917 8.415-.675 11.13M19.253 28.006s6.397-7.755 16.237-6.578M13.838 29.355s1.905 4.98 6.517 5.04c4.613.06 8.738-3.997 8.738-3.997" stroke="#000" stroke-width="1.5" stroke-linecap="round" stroke-linejoin="round"/></g><defs><clipPath id="a"><path fill="#fff" d="M0 0h60v60H0z"/></clipPath></defs></svg>