<svg width="61" height="60" viewBox="0 0 61 60" fill="none" xmlns="http://www.w3.org/2000/svg">
<path d="M52.6943 10.3635H9.19434V53.9999H52.6943V10.3635Z" fill="white"/>
<path d="M52.6943 23.4545H9.19434V27.8181H52.6943V23.4545Z" fill="#F7C171"/>
<path d="M30.9443 27.8182H20.0693V36.5455H30.9443V27.8182Z" fill="#F7C171"/>
<path d="M52.6943 45.2727H41.8193V54H52.6943V45.2727Z" fill="#F7C171"/>
<path d="M52.6943 14.3635C52.6943 12.1544 50.9035 10.3635 48.6943 10.3635H13.1943C10.9852 10.3635 9.19434 12.1544 9.19434 14.3635V49.9999C9.19434 52.209 10.9852 53.9999 13.1943 53.9999H48.6943C50.9035 53.9999 52.6943 52.209 52.6943 49.9999V14.3635Z" stroke="#202020" stroke-width="1.6" stroke-miterlimit="10" stroke-linecap="round" stroke-linejoin="round"/>
<path d="M17.8943 6V14.7273" stroke="#202020" stroke-width="1.6" stroke-miterlimit="10" stroke-linecap="round" stroke-linejoin="round"/>
<path d="M43.9944 6V14.7273" stroke="#202020" stroke-width="1.6" stroke-miterlimit="10" stroke-linecap="round" stroke-linejoin="round"/>
<path d="M9.19434 27.8182H52.6943" stroke="#202020" stroke-width="1.6" stroke-miterlimit="10" stroke-linecap="round" stroke-linejoin="round"/>
<path d="M9.19434 45.2727H52.6943" stroke="#202020" stroke-width="1.6" stroke-miterlimit="10" stroke-linecap="round" stroke-linejoin="round"/>
<path d="M9.19434 36.5454H52.6943" stroke="#202020" stroke-width="1.6" stroke-miterlimit="10" stroke-linecap="round" stroke-linejoin="round"/>
<path d="M20.0693 27.8182V54" stroke="#202020" stroke-width="1.6" stroke-miterlimit="10" stroke-linecap="round" stroke-linejoin="round"/>
<path d="M30.9443 27.8182V54" stroke="#202020" stroke-width="1.6" stroke-miterlimit="10" stroke-linecap="round" stroke-linejoin="round"/>
<path d="M41.8193 27.8182V54" stroke="#202020" stroke-width="1.6" stroke-miterlimit="10" stroke-linecap="round" stroke-linejoin="round"/>
</svg>
