<svg width="103" height="34" fill="none" xmlns="http://www.w3.org/2000/svg"><path d="M44.008 19.017c-1.983 0-3.264 1.449-3.264 3.588 0 2.152 1.266 3.56 3.166 3.56 1.969 0 3.25-1.421 3.25-3.56 0-2.18-1.252-3.588-3.152-3.588Zm-.029 6.149c-1.166 0-2.04-1.04-2.04-2.603 0-1.533.775-2.56 1.998-2.56 1.169 0 2.028 1.055 2.028 2.617 0 1.548-.719 2.546-1.986 2.546Zm41.307-8.54a.727.727 0 0 0-.73.734c0 .407.322.731.73.731a.727.727 0 0 0 .732-.731.728.728 0 0 0-.732-.733Zm-47.903 8.442c-2.07 0-3.364-1.492-3.364-3.785 0-2.35 1.548-3.743 3.462-3.743 1.323 0 2.153.562 2.266.633l.548-.87c-.112-.115-1.027-.873-2.883-.873-2.59 0-4.687 1.827-4.687 4.966 0 3.023 1.984 4.796 4.503 4.796 1.9 0 3.053-.871 3.152-.983l-.548-.873c-.1.056-1.099.732-2.449.732Zm53.054-6.05c-1.984 0-3.264 1.448-3.264 3.587 0 2.152 1.266 3.56 3.166 3.56 1.97 0 3.249-1.421 3.249-3.56 0-2.18-1.25-3.588-3.151-3.588Zm-.029 6.148c-1.168 0-2.038-1.04-2.038-2.603 0-1.533.773-2.56 1.997-2.56 1.167 0 2.027 1.055 2.027 2.617 0 1.548-.72 2.546-1.986 2.546Zm7.628-6.149c-1.155 0-2.012.62-2.126.69v-.506h-1.068v6.808h1.195v-5.387c.056-.043.914-.592 1.788-.592.42 0 .772.156.956.338.35.352.366.915.366 1.773v3.869h1.194v-3.953c0-1.097-.027-1.802-.674-2.449-.21-.21-.69-.59-1.631-.59Zm-42.633 0c-1.027 0-1.801.436-2.363.788-.31-.422-.818-.788-1.675-.788-1.07 0-1.998.633-2.082.69v-.506h-1.07v6.808h1.196v-5.416c.098-.055.913-.563 1.745-.563.406 0 .703.127.886.31.352.366.339.985.339 1.9v3.77h1.182v-3.813c0-.549 0-1.294-.115-1.59.156-.098.971-.577 1.801-.577.409 0 .719.113.93.353.352.38.338 1.223.338 1.646v3.98h1.196v-3.952c0-1.097-.028-1.802-.677-2.449-.21-.21-.69-.59-1.631-.59Zm14.616 6.992h1.196V19.2h-1.196v6.81Zm.591-9.382a.729.729 0 0 0-.732.733c0 .407.324.731.733.731.406 0 .73-.324.73-.731a.727.727 0 0 0-.73-.733Zm-4.405 2.39c-1.025 0-1.8.436-2.364.788-.308-.422-.815-.788-1.672-.788-1.07 0-2 .633-2.084.69v-.506h-1.07v6.808h1.197v-5.416c.1-.055.915-.563 1.744-.563.409 0 .705.127.887.31.353.366.338.985.338 1.9v3.77h1.183v-3.813c0-.549 0-1.294-.115-1.59.156-.098.972-.577 1.802-.577.407 0 .717.113.93.353.35.38.336 1.223.336 1.646v3.98h1.196v-3.952c0-1.097-.028-1.802-.675-2.449-.21-.21-.689-.59-1.633-.59Zm7.781 1.858c0-.507.422-.915 1.252-.915.83 0 1.535.408 1.618.465l.45-.803c-.07-.056-.83-.605-2.152-.605-1.393 0-2.379.775-2.379 1.927 0 2.168 3.363 1.858 3.363 3.251 0 .605-.576 1.014-1.309 1.014-.983 0-1.673-.436-1.815-.521l-.45.83c.085.07.986.674 2.336.674 1.338 0 2.492-.759 2.492-2.081 0-2.167-3.406-1.927-3.406-3.236Zm10.71 5.134h1.195V19.2h-1.195v6.81Zm-4.91-5.134c0-.507.42-.915 1.251-.915.83 0 1.533.408 1.62.465l.448-.803c-.07-.056-.83-.605-2.152-.605-1.393 0-2.378.775-2.378 1.927 0 2.168 3.362 1.858 3.362 3.251 0 .605-.575 1.014-1.308 1.014-.984 0-1.675-.436-1.816-.521l-.45.83c.086.07.986.674 2.338.674 1.334 0 2.488-.759 2.488-2.081 0-2.167-3.404-1.927-3.404-3.236ZM37.34 14.23c2.099 0 3.308-1.042 3.42-1.154l-.82-1.32c-.152.083-1.14.764-2.364.764-1.765 0-2.89-1.264-2.89-3.197 0-1.972 1.306-3.155 2.988-3.155 1.348 0 2.1.64 2.21.709l.849-1.291c-.098-.098-1.057-1.07-3.142-1.07-2.766 0-4.88 1.848-4.88 4.934 0 2.973 2.017 4.78 4.63 4.78Zm3.958-2.267c0 1.294.847 2.197 2.209 2.197 1.084 0 1.806-.556 1.931-.64v.488h1.627v-4.1c0-.89.015-1.599-.556-2.169-.668-.666-1.654-.763-2.237-.763-1.571 0-2.503.651-2.599.735l.624 1.196c.099-.056.918-.5 1.822-.5.514 0 .82.125.971.277.195.195.21.39.21.806h-.195c-.833 0-3.807.042-3.807 2.473Zm4.002.362c-.083.042-.543.417-1.307.417-.458 0-1.056-.194-1.056-.903 0-.862.86-1.07 2.071-1.07h.291v1.556ZM49.825 9.517c.21-.305.777-.987 1.918-.987.096 0 .361.028.417.042l.43-1.419c-.04-.012-.291-.179-.78-.179-1.36 0-2.207.958-2.264 1.055v-.86H47.95v6.837h1.877v-4.49Zm5.904-2.543c-1.944 0-3.28 1.556-3.28 3.655 0 1.988 1.183 3.57 3.405 3.57 1.516 0 2.558-.708 2.598-.749l-.61-1.195c-.293.138-.96.486-1.822.486-1.361 0-1.779-1.042-1.75-1.543h4.503c0-.096.029-.291.029-.582 0-2.225-1.073-3.642-3.073-3.642ZM54.256 9.85c.139-.848.665-1.486 1.515-1.486 1.154 0 1.292 1.112 1.292 1.486h-2.807Zm18.318 4.35c.971 0 1.82-.625 1.931-.709v.515h1.597V7.168h-1.875v5.004c-.112.083-.668.43-1.265.43-.444 0-.653-.166-.736-.25-.25-.25-.292-.694-.292-1.584v-3.6h-1.876v3.683c0 .89-.029 1.918.736 2.683.445.444 1.057.665 1.78.665Zm8.414-.681v.487h1.626v-4.1c0-.89.015-1.598-.555-2.168-.668-.667-1.653-.764-2.237-.764-1.571 0-2.502.652-2.6.735l.625 1.197c.099-.056.917-.501 1.82-.501.516 0 .821.125.973.278.195.195.21.39.21.806h-.195c-.833 0-3.807.041-3.807 2.473 0 1.293.847 2.196 2.209 2.196 1.084 0 1.806-.556 1.931-.64Zm-2.5-1.681c0-.862.86-1.07 2.07-1.07h.291v1.556c-.082.042-.542.417-1.306.417-.459 0-1.056-.195-1.056-.903Zm6.92-7.895h-1.876v10.063h1.876V3.943Zm1.916 2.377c.596 0 1.07-.472 1.07-1.07 0-.597-.475-1.07-1.07-1.07-.598 0-1.072.473-1.072 1.07 0 .598.474 1.07 1.072 1.07Zm.944.848h-1.876v6.838h1.876V7.168Zm4.852 5.461c-.822 0-.864-.624-.864-1.166V8.724h1.948V7.168h-1.948V5.264h-1.874v1.904H89.2v1.556h1.182v2.67c0 .958 0 1.61.584 2.194.458.46 1.152.611 1.764.611 1.014 0 1.668-.402 1.721-.444l-.47-1.292c-.125.042-.432.166-.861.166Zm2.97 3.085c-.542 0-.957-.194-1.055-.235l-.556 1.333c.055.029.708.43 1.71.43 1.125 0 1.707-.416 2-.707.485-.486.792-1.112 1.32-2.46l2.71-6.907h-1.849l-1.709 4.794-1.835-4.794H94.84l2.862 6.838c-.11.305-.347 1.028-.68 1.361-.223.222-.515.347-.932.347ZM69.231 9.307c0-2.787-1.785-4.797-4.533-4.797-2.692 0-4.531 1.939-4.531 4.797 0 2.91 1.799 4.903 4.454 4.948v.001l.115.002c1.288.03 2.18.462 2.75 1.164.192-.127 1.591-1.332 1.591-1.332s-.484-.58-1.605-.73c1.093-.85 1.76-2.259 1.76-4.053Zm-4.49 3.291c-1.465 0-2.58-1.212-2.58-3.164 0-1.939.975-3.306 2.469-3.306 1.56 0 2.607 1.324 2.607 3.166 0 1.492-.57 3.304-2.497 3.304Z" fill="#202020"/><path d="M23.1 27.064c3.678-2.606 6.081-6.892 6.081-11.743 0-7.944-6.44-14.383-14.383-14.383C6.852.938.413 7.377.413 15.32c0 7.944 6.44 14.384 14.385 14.384h.409c3.825.065 6.455 1.335 8.134 3.4.564-.372 4.64-3.882 4.64-3.882s-1.46-1.762-4.881-2.159Zm-8.62-1.04c3.647-.743 6.625-3.342 7.936-6.778-.008-.004-.018-.002-.027.005a8.543 8.543 0 0 1-7.591 4.622 8.553 8.553 0 1 1 0-17.105 8.546 8.546 0 0 1 7.592 4.625c.01.008.019.01.026.002-1.311-3.436-4.29-6.034-7.936-6.778.12-.004.237-.008.357-.008 5.858 0 10.606 4.796 10.606 10.711 0 5.917-4.748 10.714-10.606 10.714-.12 0-.238-.007-.357-.01" fill="#893277"/></svg>