<svg width="41" height="40" viewBox="0 0 41 40" fill="none" xmlns="http://www.w3.org/2000/svg">
<path d="M16.1228 31.331C18.4932 33.8594 22.5068 33.8594 24.8772 31.331L31.8856 23.8553C35.7202 19.7651 36.0958 13.523 32.7792 9.00259C30.791 6.29267 26.9277 5.82426 24.3495 7.98053L21.7831 10.1269C21.0404 10.748 19.9596 10.748 19.2169 10.1269L16.6505 7.98053C14.0723 5.82426 10.209 6.29267 8.2208 9.00259C4.90424 13.523 5.27977 19.7651 9.11436 23.8553L16.1228 31.331Z" fill="white"/>
<path d="M20.5 30.9424C20.5 32.7555 22.719 33.633 23.9591 32.3103L31.8856 23.8553C35.7202 19.7651 36.0958 13.523 32.7792 9.00259C30.791 6.29267 26.9277 5.82426 24.3495 7.98053L20.5 11.2V30.9424Z" fill="#F7C171"/>
<path d="M16.1228 31.331C18.4932 33.8594 22.5068 33.8594 24.8772 31.331L31.8856 23.8553C35.7202 19.7651 36.0958 13.523 32.7792 9.00259V9.00259C30.791 6.29267 26.9277 5.82426 24.3495 7.98053L21.7831 10.1269C21.0404 10.748 19.9596 10.748 19.2169 10.1269L16.6505 7.98053C14.0723 5.82426 10.209 6.29267 8.2208 9.00259V9.00259C4.90424 13.523 5.27977 19.7651 9.11436 23.8553L16.1228 31.331Z" stroke="#1E2020" stroke-width="1.6" stroke-miterlimit="10" stroke-linecap="round" stroke-linejoin="round"/>
</svg>
