<svg width="104" height="33" viewBox="0 0 104 33" fill="none" xmlns="http://www.w3.org/2000/svg">
<path d="M44.6665 18.3581C42.6835 18.3581 41.4028 19.8068 41.4028 21.9457C41.4028 24.0981 42.6694 25.5057 44.5688 25.5057C46.5376 25.5057 47.8183 24.0847 47.8183 21.9457C47.8183 19.7657 46.5667 18.3581 44.6665 18.3581ZM44.6382 24.5064C43.4724 24.5064 42.5985 23.466 42.5985 21.904C42.5985 20.371 43.3724 19.3441 44.5964 19.3441C45.7644 19.3441 46.6242 20.3986 46.6242 21.9607C46.6242 23.5086 45.9055 24.5064 44.6382 24.5064ZM85.9453 15.9676C85.5371 15.9676 85.2146 16.2923 85.2146 16.7006C85.2146 17.1081 85.5371 17.4319 85.9453 17.4319C86.352 17.4319 86.6767 17.1081 86.6767 16.7006C86.6767 16.2923 86.352 15.9676 85.9453 15.9676ZM38.0421 24.4086C35.9726 24.4086 34.6777 22.9167 34.6777 20.624C34.6777 18.2738 36.2263 16.8811 38.1399 16.8811C39.4631 16.8811 40.2931 17.4431 40.4058 17.514L40.9543 16.6431C40.8415 16.5289 39.9274 15.7706 38.0705 15.7706C35.4815 15.7706 33.3835 17.5984 33.3835 20.7367C33.3835 23.7601 35.368 25.5334 37.8869 25.5334C39.7871 25.5334 40.9401 24.6616 41.0387 24.5497L40.4908 23.6772C40.3916 23.7333 39.3922 24.4086 38.0421 24.4086ZM91.0957 18.3581C89.1119 18.3581 87.832 19.8068 87.832 21.9457C87.832 24.0981 89.0978 25.5057 90.9979 25.5057C92.9675 25.5057 94.2467 24.0847 94.2467 21.9457C94.2467 19.7657 92.9966 18.3581 91.0957 18.3581ZM91.0674 24.5064C89.8994 24.5064 89.0284 23.466 89.0284 21.904C89.0284 20.371 89.8016 19.3441 91.0263 19.3441C92.1928 19.3441 93.0526 20.3986 93.0526 21.9607C93.0526 23.5086 92.3339 24.5064 91.0674 24.5064ZM98.6948 18.3581C97.5403 18.3581 96.6827 18.9783 96.5685 19.0485V18.5417H95.5013V25.3505H96.6954V19.9635C96.7521 19.9201 97.6104 19.3709 98.4836 19.3709C98.9046 19.3709 99.2561 19.5268 99.4397 19.709C99.7905 20.0613 99.8061 20.624 99.8061 21.4815V25.3505H101V21.3979C101 20.3008 100.973 19.5963 100.326 18.9492C100.115 18.7387 99.636 18.3581 98.6948 18.3581ZM56.0615 18.3581C55.0353 18.3581 54.2606 18.794 53.6987 19.1463C53.3882 18.7239 52.8807 18.3581 52.0239 18.3581C50.9544 18.3581 50.026 18.991 49.9416 19.0485V18.5417H48.8714V25.3505H50.0677V19.9344C50.1663 19.8792 50.9813 19.3709 51.8127 19.3709C52.2194 19.3709 52.5165 19.4985 52.6986 19.6814C53.0508 20.0471 53.0374 20.6658 53.0374 21.58V25.3505H54.2196V21.5382C54.2196 20.9889 54.2196 20.2441 54.1054 19.9478C54.2606 19.8501 55.0763 19.3709 55.9062 19.3709C56.3145 19.3709 56.625 19.4843 56.8354 19.7239C57.1877 20.103 57.1743 20.9472 57.1743 21.3696V25.3505H58.3699V21.3979C58.3699 20.3008 58.3415 19.5963 57.693 18.9492C57.4825 18.7387 57.0034 18.3581 56.0615 18.3581H56.0615ZM70.6783 25.3505H71.874V18.541H70.6783V25.3505ZM71.2694 15.9676C70.8612 15.9676 70.5366 16.2923 70.5366 16.7006C70.5366 17.1081 70.8612 17.4319 71.2694 17.4319C71.6762 17.4319 72.0001 17.1081 72.0001 16.7006C72.0001 16.2923 71.6762 15.9676 71.2694 15.9676ZM66.8639 18.3581C65.8384 18.3581 65.0637 18.794 64.5002 19.1463C64.192 18.7239 63.6852 18.3581 62.8277 18.3581C61.7575 18.3581 60.8283 18.991 60.744 19.0485V18.5417H59.6745V25.3505H60.8708V19.9344C60.97 19.8792 61.7858 19.3709 62.615 19.3709C63.024 19.3709 63.3203 19.4985 63.5024 19.6814C63.8547 20.0471 63.8405 20.6658 63.8405 21.58V25.3505H65.0227V21.5382C65.0227 20.9889 65.0226 20.2441 64.9084 19.9478C65.0637 19.8501 65.8801 19.3709 66.71 19.3709C67.1168 19.3709 67.4273 19.4843 67.6392 19.7239C67.9907 20.103 67.9758 20.9472 67.9758 21.3696V25.3505H69.1722V21.3979C69.1722 20.3008 69.1438 19.5963 68.4968 18.9492C68.2863 18.7387 67.8079 18.3581 66.8638 18.3581H66.8639ZM74.645 20.2157C74.645 19.709 75.0675 19.3008 75.8966 19.3008C76.7273 19.3008 77.4318 19.709 77.5154 19.7657L77.9647 18.9634C77.8945 18.9073 77.1355 18.3581 75.813 18.3581C74.4204 18.3581 73.4345 19.1328 73.4345 20.2852C73.4345 22.4525 76.7967 22.1428 76.7967 23.5362C76.7967 24.1414 76.2213 24.5497 75.4884 24.5497C74.5047 24.5497 73.8151 24.1138 73.6733 24.0288L73.2233 24.8587C73.3083 24.9295 74.2084 25.5334 75.5585 25.5334C76.8967 25.5334 78.0505 24.7743 78.0505 23.4518C78.0505 21.2852 74.645 21.5248 74.645 20.2157ZM85.3549 25.3505H86.5505V18.541H85.3549V25.3505ZM80.444 20.2157C80.444 19.709 80.8649 19.3008 81.6963 19.3008C82.5255 19.3008 83.2293 19.709 83.3151 19.7657L83.7637 18.9634C83.6943 18.9073 82.9345 18.3581 81.612 18.3581C80.2193 18.3581 79.2342 19.1328 79.2342 20.2852C79.2342 22.4525 82.5957 22.1428 82.5957 23.5362C82.5957 24.1414 82.021 24.5497 81.2881 24.5497C80.3037 24.5497 79.6126 24.1138 79.4723 24.0288L79.0222 24.8587C79.1081 24.9295 80.0074 25.5334 81.3598 25.5334C82.6942 25.5334 83.848 24.7743 83.848 23.4518C83.848 21.2852 80.444 21.5248 80.444 20.2157Z" fill="#202020"/>
<path d="M37.9996 13.57C40.0975 13.57 41.3073 12.5289 41.4193 12.417L40.5991 11.0967C40.4467 11.1803 39.4587 11.861 38.2347 11.861C36.4703 11.861 35.3449 10.5967 35.3449 8.66443C35.3449 6.69188 36.651 5.50894 38.3332 5.50894C39.6811 5.50894 40.4326 6.14856 40.5431 6.21797L41.3917 4.92682C41.2939 4.82908 40.3348 3.85657 38.2503 3.85657C35.4837 3.85657 33.3708 5.70449 33.3708 8.79055C33.3708 11.7639 35.3867 13.57 37.9996 13.57ZM41.9566 11.3042C41.9566 12.5976 42.8037 13.5006 44.1658 13.5006C45.2494 13.5006 45.9719 12.9446 46.0973 12.861V13.3484H47.7243V9.24804C47.7243 8.35842 47.7391 7.65018 47.1675 7.07997C46.5003 6.4135 45.5144 6.31646 44.9308 6.31646C43.3597 6.31646 42.4283 6.96804 42.332 7.05163L42.956 8.24797C43.0545 8.19191 43.8739 7.74719 44.7777 7.74719C45.292 7.74719 45.5972 7.87263 45.7495 8.02481C45.9443 8.22029 45.9585 8.41442 45.9585 8.83087H45.7637C44.9308 8.83087 41.9566 8.87273 41.9566 11.3042ZM45.9584 11.6662C45.8755 11.708 45.4159 12.0834 44.6516 12.0834C44.1941 12.0834 43.5963 11.8885 43.5963 11.1803C43.5963 10.3183 44.4568 10.1101 45.6674 10.1101H45.9584V11.6662Z" fill="#202020"/>
<path d="M50.4847 8.85787C50.6937 8.55262 51.2616 7.87123 52.402 7.87123C52.4982 7.87123 52.7632 7.89876 52.8192 7.91294L53.2498 6.49415C53.2088 6.48145 52.958 6.31496 52.4699 6.31496C51.1093 6.31496 50.2622 7.2725 50.2055 7.37026V6.509H48.6084V13.3469H50.4847V8.85787ZM56.3881 6.31515C54.4439 6.31515 53.1088 7.87125 53.1088 9.96993C53.1088 11.9574 54.2909 13.5404 56.5135 13.5404C58.0293 13.5404 59.0712 12.8321 59.1115 12.791L58.501 11.5954C58.2084 11.7342 57.5412 12.082 56.6792 12.082C55.3179 12.082 54.9007 11.0401 54.9291 10.5394H59.4324C59.4324 10.4431 59.4607 10.2476 59.4607 9.9565C59.4607 7.73169 58.3883 6.31515 56.3881 6.31515H56.3881ZM54.9148 9.19076C55.0536 8.34292 55.5806 7.70482 56.4299 7.70482C57.5837 7.70482 57.7225 8.81685 57.7225 9.19076H54.9148ZM73.2327 13.5404C74.2045 13.5404 75.0538 12.9157 75.1643 12.8321V13.3471H76.7614V6.50919H74.8866V11.5126C74.7747 11.5955 74.2187 11.9432 73.6208 11.9432C73.1775 11.9432 72.9685 11.7767 72.8857 11.6932C72.6349 11.4424 72.5931 10.9991 72.5931 10.1087V6.50919H70.7169V10.1923C70.7169 11.0812 70.6885 12.1096 71.4535 12.8746C71.8983 13.3187 72.5103 13.5404 73.2327 13.5404ZM81.6476 12.8597V13.3471H83.2731V9.24673C83.2731 8.35711 83.2879 7.64882 82.7186 7.07863C82.0506 6.41216 81.0647 6.31515 80.4811 6.31515C78.9101 6.31515 77.9787 6.9667 77.8816 7.05029L78.5063 8.24666C78.6049 8.1906 79.4236 7.74585 80.3266 7.74585C80.8423 7.74585 81.1476 7.8713 81.2991 8.02347C81.4946 8.21895 81.5087 8.41308 81.5087 8.82953H81.3139C80.481 8.82953 77.5069 8.87139 77.5069 11.3028C77.5069 12.5962 78.354 13.4993 79.716 13.4993C80.7997 13.4993 81.5221 12.9433 81.6475 12.8597H81.6476ZM79.1466 11.179C79.1466 10.317 80.0078 10.1087 81.2169 10.1087H81.5087V11.6649C81.4258 11.7067 80.9661 12.082 80.2019 12.082C79.7436 12.082 79.1466 11.8872 79.1466 11.179ZM86.0673 3.2843H84.191V13.3471H86.0673V3.2843ZM87.9831 5.66062C88.5787 5.66062 89.0526 5.18894 89.0526 4.59114C89.0526 3.99408 88.5787 3.52089 87.9831 3.52089C87.3853 3.52089 86.9114 3.99408 86.9114 4.59114C86.9114 5.18894 87.3853 5.66062 87.9831 5.66062ZM88.9272 6.50919H87.0509V13.3471H88.9272V6.50919ZM93.7791 11.9701C92.9574 11.9701 92.9156 11.3454 92.9156 10.8036V8.06527H94.8628V6.50919H92.9156V4.60531H91.0415V6.50919H89.8594V8.06527H91.0415V10.7342C91.0415 11.6932 91.0415 12.3455 91.6252 12.9291C92.0827 13.3881 92.7775 13.5404 93.3888 13.5404C94.403 13.5404 95.0568 13.1381 95.1105 13.0963L94.6396 11.8044C94.515 11.8461 94.2082 11.9701 93.7791 11.9701ZM96.7495 15.0554C96.2069 15.0554 95.7919 14.8614 95.6942 14.8203L95.1382 16.1532C95.1934 16.1816 95.8464 16.5839 96.8473 16.5839C97.9735 16.5839 98.5548 16.1674 98.8482 15.8756C99.3333 15.3897 99.64 14.7643 100.168 13.4157L102.878 6.50916H101.03L99.3206 11.3028L97.4854 6.50916H95.4986L98.3615 13.3471C98.2503 13.6523 98.0138 14.3747 97.6809 14.7083C97.4577 14.93 97.1667 15.0554 96.7495 15.0554ZM69.8906 8.64814C69.8906 5.86059 68.1054 3.85074 65.3574 3.85074C62.6654 3.85074 60.8257 5.7897 60.8257 8.64814C60.8257 11.5581 62.6251 13.5508 65.2805 13.5963V13.5971C65.2805 13.5971 65.3857 13.5992 65.3948 13.5992C66.6837 13.629 67.5755 14.0612 68.1442 14.7627C68.3376 14.6358 69.7362 13.4312 69.7362 13.4312C69.7362 13.4312 69.2518 12.8513 68.1308 12.7006C69.2242 11.8513 69.8906 10.4422 69.8906 8.64801L69.8906 8.64814ZM65.3992 11.9393C63.9349 11.9393 62.8199 10.7273 62.8199 8.77488C62.8199 6.83593 63.7954 5.46941 65.2888 5.46941C66.8494 5.46941 67.8965 6.7934 67.8965 8.63458C67.8965 10.1272 67.3255 11.9393 65.3992 11.9393Z" fill="#202020"/>
<path d="M23.7589 26.4052C27.4368 23.799 29.84 19.5129 29.84 14.6617C29.84 6.71779 23.4 0.278442 15.4568 0.278442C7.51135 0.278442 1.07202 6.71779 1.07202 14.6617C1.07202 22.6064 7.51135 29.0457 15.4568 29.0457H15.8658C19.6914 29.1107 22.3208 30.3809 24 32.446C24.5642 32.0743 28.6407 28.5643 28.6407 28.5643C28.6407 28.5643 27.1808 26.8015 23.7589 26.4052ZM15.1388 25.3648C18.7861 24.6222 21.764 22.0227 23.0745 18.5874C23.0671 18.5832 23.0574 18.5853 23.0477 18.5916C21.6244 21.3374 18.7623 23.2144 15.4568 23.2144C10.731 23.2144 6.90234 19.385 6.90234 14.6614C6.90234 9.93793 10.731 6.10926 15.4568 6.10926C18.7623 6.10926 21.6259 7.98776 23.0492 10.7335C23.0581 10.742 23.0678 10.7441 23.0745 10.7356C21.764 7.3003 18.7854 4.70156 15.1388 3.95821C15.2582 3.95397 15.3762 3.94975 15.4963 3.94975C21.3543 3.94975 26.1017 8.74567 26.1017 14.6611C26.1017 20.578 21.3543 25.3746 15.4963 25.3746C15.3762 25.3746 15.2582 25.3683 15.1388 25.364" fill="#893277"/>
</svg>
