<svg width="61" height="60" viewBox="0 0 61 60" fill="none" xmlns="http://www.w3.org/2000/svg">
<path d="M54.3956 38.7698C54.3956 41.6874 52.8073 44.3735 50.2509 45.7796L33.7055 54.8796C31.3048 56.1999 28.3955 56.1999 25.9948 54.8796L9.44934 45.7796C6.89295 44.3735 5.30469 41.6874 5.30469 38.7698V21.2302C5.30469 18.3126 6.89295 15.6265 9.44934 14.2204L25.9948 5.12044C28.3955 3.80008 31.3048 3.80008 33.7055 5.12044L50.2509 14.2204C52.8073 15.6265 54.3956 18.3126 54.3956 21.2302V38.7698Z" fill="white" stroke="#1E2020" stroke-width="1.6" stroke-miterlimit="10" stroke-linecap="round" stroke-linejoin="round"/>
<path d="M51.3366 42.1219C50.076 41.0314 48.2714 40.8369 46.8074 41.6337L31.7624 49.8228C30.5702 50.4717 29.1301 50.4717 27.9379 49.8228L12.5822 41.4646C11.2768 40.7541 9.68506 40.8259 8.44895 41.6512L5.67969 43.5L27.8538 55.885C29.0908 56.5759 30.6009 56.5608 31.8239 55.8455L52.9297 43.5L51.3366 42.1219Z" fill="#F7C171"/>
<path d="M54.3956 38.7698C54.3956 41.6874 52.8073 44.3735 50.2509 45.7796L33.7055 54.8796C31.3048 56.1999 28.3955 56.1999 25.9948 54.8796L9.44934 45.7796C6.89295 44.3735 5.30469 41.6874 5.30469 38.7698V21.2302C5.30469 18.3126 6.89295 15.6265 9.44934 14.2204L25.9948 5.12044C28.3955 3.80008 31.3048 3.80008 33.7055 5.12044L50.2509 14.2204C52.8073 15.6265 54.3956 18.3126 54.3956 21.2302V38.7698Z" stroke="#1E2020" stroke-width="1.6" stroke-miterlimit="10" stroke-linecap="round" stroke-linejoin="round"/>
<path d="M30.0547 12.75V29.689L40.5547 34.875" stroke="black" stroke-width="1.6"/>
</svg>
