<svg width="60" height="60" viewBox="0 0 60 60" fill="none" xmlns="http://www.w3.org/2000/svg">
<path d="M49.9565 9.13636V4.5H33.5217V11.4545H3V48.5455H49.9565V18.4091V13.7727L54.3747 15.2269C55.6684 15.6526 57 14.689 57 13.3271V9.58197C57 8.22004 55.6684 7.25644 54.3747 7.68222L49.9565 9.13636Z" fill="white"/>
<path d="M31.174 48.5454V50.8636L32.5247 51.9305C34.0131 53.1062 33.1817 55.5 31.285 55.5H21.6716C19.7749 55.5 18.9435 53.1062 20.4319 51.9305L21.7827 50.8636V48.5454" fill="white"/>
<path d="M41.4675 18.4092C39.9356 18.4092 38.436 18.849 37.1467 19.6763L30.3322 24.0495C29.3936 24.6518 28.8261 25.6904 28.8261 26.8056C28.8261 28.052 28.1186 29.1903 27.001 29.742L22.9243 31.7546C22.2047 32.1099 21.3606 32.1097 20.6411 31.7542C19.83 31.3534 18.8681 31.4071 18.1066 31.8958L5.72769 39.8404C4.92893 40.353 5.29201 41.591 6.24112 41.591H8.05275C9.1522 41.591 10.0435 40.6997 10.0435 39.6003C10.0435 38.7186 10.6234 37.9419 11.4688 37.6915L19.5105 35.3095C20.9934 34.8702 22.5718 34.8702 24.0547 35.3095L32.0964 37.6915C32.9418 37.9419 33.5217 38.7186 33.5217 39.6003C33.5217 40.6997 34.413 41.591 35.5125 41.591H49.9565V18.4092H41.4675Z" fill="#F7C171"/>
<path d="M57 19.5714H38.2174C36.2858 21.4887 33 20.1205 33 17.3989V3H57V19.5714Z" fill="white"/>
<path d="M37.1739 17.5L33 21.6429C33 22.7932 34.3888 23.3715 35.2053 22.5611L38.2174 19.5714H57V17.5H37.1739Z" fill="#F7C171"/>
<path d="M39.2608 10.25L37.6953 11.8043L39.2606 13.3574L40.826 11.8031L39.2608 10.25Z" fill="#F7C171"/>
<path d="M45.5225 10.2498L43.957 11.8041L45.5222 13.3572L47.0877 11.8028L45.5225 10.2498Z" fill="#F7C171"/>
<path d="M51.7825 10.251L50.2178 11.8046L51.783 13.3577L53.3477 11.804L51.7825 10.251Z" fill="#F7C171"/>
<path d="M40.0375 11.0207C39.6076 10.5941 38.9137 10.5946 38.4839 11.0214V11.0214C38.0495 11.4526 38.0493 12.1555 38.4838 12.5867V12.5867C38.9137 13.0132 39.6076 13.0128 40.0374 12.586V12.586C40.4718 12.1548 40.472 11.4518 40.0375 11.0207V11.0207Z" stroke="#202020" stroke-width="1.6" stroke-miterlimit="10" stroke-linecap="round" stroke-linejoin="round"/>
<path d="M46.2992 11.0205C45.8693 10.5939 45.1754 10.5944 44.7456 11.0211V11.0211C44.3112 11.4524 44.311 12.1553 44.7455 12.5864V12.5864C45.1754 13.013 45.8693 13.0125 46.2991 12.5858V12.5858C46.7335 12.1545 46.7337 11.4516 46.2992 11.0205V11.0205Z" stroke="#202020" stroke-width="1.6" stroke-miterlimit="10" stroke-linecap="round" stroke-linejoin="round"/>
<path d="M52.5592 11.0217C52.1293 10.5951 51.4357 10.5953 51.0059 11.022V11.022C50.5716 11.4533 50.5717 12.1558 51.0062 12.5869V12.5869C51.4361 13.0135 52.1297 13.0134 52.5595 12.5866V12.5866C52.9939 12.1554 52.9937 11.4528 52.5592 11.0217V11.0217Z" stroke="#202020" stroke-width="1.6" stroke-miterlimit="10" stroke-linecap="round" stroke-linejoin="round"/>
<path d="M57 15.5714C57 17.7806 55.2091 19.5714 53 19.5714H39.2939C38.6044 19.5714 37.9427 19.844 37.4533 20.3298V20.3298C35.8046 21.9663 33 20.7984 33 18.4754V7C33 4.79086 34.7909 3 37 3H53C55.2091 3 57 4.79086 57 7V15.5714Z" stroke="#202020" stroke-width="1.6" stroke-miterlimit="10" stroke-linecap="round" stroke-linejoin="round"/>
<path d="M28.8262 26.3547C28.8262 27.8771 27.962 29.2675 26.5969 29.9414L23.5535 31.4439C22.4373 31.995 21.1282 31.995 20.012 31.4439L16.9685 29.9414C15.6034 29.2675 14.7393 27.8771 14.7393 26.3547V19.5681L20.012 16.965C21.1282 16.414 22.4373 16.414 23.5535 16.965L26.5969 18.4675C27.962 19.1415 28.8262 20.5319 28.8262 22.0542V26.3547Z" fill="white"/>
<path d="M33.5217 41.591V41.1007C33.5217 39.3291 32.3564 37.7686 30.6578 37.2654L22.9186 34.973C22.1772 34.7534 21.388 34.7534 20.6465 34.973L12.9074 37.2654C11.2088 37.7686 10.0435 39.3291 10.0435 41.1007V41.591" stroke="#202020" stroke-width="1.6" stroke-miterlimit="10" stroke-linecap="round" stroke-linejoin="round"/>
<path d="M28.8262 23.0454H22.8006C21.3659 23.0454 19.9575 22.6595 18.7231 21.9282L14.7393 19.5681L20.8974 16.5279C21.4555 16.2524 22.11 16.2524 22.6681 16.5279L28.8262 19.5681V23.0454Z" fill="#F7C171"/>
<path d="M28.8262 26.3547C28.8262 27.8771 27.962 29.2675 26.5969 29.9414L23.5535 31.4439C22.4373 31.995 21.1282 31.995 20.012 31.4439L16.9685 29.9414C15.6034 29.2675 14.7393 27.8771 14.7393 26.3547V19.5681L20.012 16.965C21.1282 16.414 22.4373 16.414 23.5535 16.965L26.5969 18.4675C27.962 19.1415 28.8262 20.5319 28.8262 22.0542V26.3547Z" stroke="#202020" stroke-width="1.6" stroke-miterlimit="10" stroke-linecap="round" stroke-linejoin="round"/>
<path d="M49.9565 25.3637V44.5455C49.9565 46.7546 48.1657 48.5455 45.9565 48.5455H7C4.79086 48.5455 3 46.7546 3 44.5455V15.4546C3 13.2454 4.79086 11.4546 7 11.4546H26.4783" stroke="#202020" stroke-width="1.6" stroke-miterlimit="10" stroke-linecap="round" stroke-linejoin="round"/>
<path d="M3 41.5908H49.9565" stroke="#202020" stroke-width="1.6" stroke-miterlimit="10" stroke-linecap="round" stroke-linejoin="round"/>
<path d="M31.174 48.5454V49.8947C31.174 50.5066 31.4541 51.0849 31.9343 51.4642L32.5247 51.9305C34.0131 53.1062 33.1817 55.5 31.285 55.5H21.6716C19.7749 55.5 18.9435 53.1062 20.4319 51.9305L21.0224 51.4642C21.5025 51.0849 21.7827 50.5066 21.7827 49.8947V48.5454" stroke="#202020" stroke-width="1.6" stroke-miterlimit="10" stroke-linecap="round" stroke-linejoin="round"/>
</svg>
