<svg width="61" height="60" viewBox="0 0 61 60" fill="none" xmlns="http://www.w3.org/2000/svg">
<path d="M48.9443 16.4224H37.3729V11.25H3.94434V37.1121H37.3729H57.9443V31.9397L48.9443 16.4224Z" fill="white"/>
<path d="M44.6697 27.5812C43.9451 28.1774 44.3667 29.3534 45.3051 29.3534H54.5993C55.3641 29.3534 55.8458 28.5298 55.4709 27.8632L52.5305 22.6352C52.2254 22.0927 51.5041 21.9578 51.0235 22.3532L44.6697 27.5812Z" fill="#F7C171"/>
<path d="M42.5158 37.1121V16.4224H37.3729V37.1121H3.94434C3.94434 39.9687 6.2601 42.2845 9.11675 42.2845H14.2301V46.1638L18.0872 48.75L21.9443 46.1638V42.2845H42.5158V46.1638L46.3729 48.75L50.23 46.1638V42.2845H55.9443C57.0489 42.2845 57.9443 41.3891 57.9443 40.2845V37.1121H42.5158Z" fill="#F7C171"/>
<path d="M3.94434 36.1121C3.94434 36.6644 4.39205 37.1121 4.94434 37.1121H33.3729C35.582 37.1121 37.3729 35.3212 37.3729 33.1121V15.25C37.3729 13.0409 35.582 11.25 33.3729 11.25H7.94433C5.73519 11.25 3.94434 13.0409 3.94434 15.25V36.1121Z" stroke="#202020" stroke-width="1.6" stroke-miterlimit="10" stroke-linecap="round" stroke-linejoin="round"/>
<path d="M57.9442 37.1121H34.3728" stroke="#202020" stroke-width="1.6" stroke-miterlimit="10" stroke-linecap="round" stroke-linejoin="round"/>
<path d="M37.3729 42.2844H27.0872" stroke="#202020" stroke-width="1.6" stroke-miterlimit="10" stroke-linecap="round" stroke-linejoin="round"/>
<path d="M9.08719 42.2844H3.94434" stroke="#202020" stroke-width="1.6" stroke-miterlimit="10" stroke-linecap="round" stroke-linejoin="round"/>
<path d="M14.23 44.2241C14.23 45.4363 14.8342 46.5689 15.841 47.244L15.9391 47.3097C17.2386 48.181 18.9357 48.181 20.2352 47.3097L20.3332 47.244C21.3401 46.5689 21.9443 45.4363 21.9443 44.2241V44.2241C21.9443 43.0119 21.3401 41.8794 20.3332 41.2043L20.2352 41.1385C18.9357 40.2672 17.2386 40.2672 15.9391 41.1385L15.841 41.2043C14.8342 41.8794 14.23 43.0119 14.23 44.2241V44.2241Z" stroke="#202020" stroke-width="1.6" stroke-miterlimit="10" stroke-linecap="round" stroke-linejoin="round"/>
<path d="M42.5159 44.2241C42.5159 45.4363 43.12 46.5689 44.1269 47.244L44.225 47.3097C45.5245 48.181 47.2216 48.181 48.5211 47.3097L48.6191 47.244C49.626 46.5689 50.2302 45.4363 50.2302 44.2241V44.2241C50.2302 43.0119 49.626 41.8794 48.6191 41.2043L48.5211 41.1385C47.2216 40.2672 45.5245 40.2672 44.225 41.1385L44.1269 41.2043C43.12 41.8794 42.5159 43.0119 42.5159 44.2241V44.2241Z" stroke="#202020" stroke-width="1.6" stroke-miterlimit="10" stroke-linecap="round" stroke-linejoin="round"/>
<path d="M51.9453 21.5948H46.3952C44.2527 21.5948 42.5159 23.3316 42.5159 25.4741V25.4741C42.5159 27.6166 44.2527 29.3534 46.3952 29.3534H56.309" stroke="#202020" stroke-width="1.6" stroke-miterlimit="10" stroke-linecap="round" stroke-linejoin="round"/>
<path d="M54.6228 42.2845V42.2845C56.4572 42.2845 57.9442 40.7974 57.9442 38.9631V37.1121V33.0157C57.9442 32.3109 57.758 31.6186 57.4044 31.0088L50.1002 18.4156C49.3847 17.1818 48.0663 16.4224 46.6401 16.4224H37.3728" stroke="#202020" stroke-width="1.6" stroke-miterlimit="10" stroke-linecap="round" stroke-linejoin="round"/>
</svg>
