<svg width="90" height="91" viewBox="0 0 90 91" fill="none" xmlns="http://www.w3.org/2000/svg">
<rect x="57.7" y="59.75" width="25.4" height="25.4" rx="2.2" transform="rotate(90 57.7 59.75)" fill="white" stroke="#1E2020" stroke-width="1.6"/>
<path d="M31.8203 81.6651H58.157V82.6681C58.157 84.325 56.8139 85.6681 55.157 85.6681H34.8203C33.1635 85.6681 31.8203 84.325 31.8203 82.6681V81.6651Z" fill="#F7C171"/>
<rect x="57.7" y="59.75" width="25.4" height="25.4" rx="2.2" transform="rotate(90 57.7 59.75)" stroke="#1E2020" stroke-width="1.6"/>
<path d="M24.1633 39.1098C24.1633 37.0856 25.8042 35.4447 27.8284 35.4447H60.9679C62.9921 35.4447 64.633 37.0856 64.633 39.1098V62.6911C64.633 66.8731 61.2429 70.2632 57.0609 70.2632H31.7354C27.5534 70.2632 24.1633 66.8731 24.1633 62.6911V39.1098Z" fill="white" stroke="#1E2020" stroke-width="1.6"/>
<path d="M24.0977 62.9751H64.6979C64.6979 66.8829 61.53 70.0508 57.6222 70.0508H31.1734C27.2656 70.0508 24.0977 66.8829 24.0977 62.9751Z" fill="#F7C171"/>
<path d="M24.1633 39.1098C24.1633 37.0856 25.8042 35.4447 27.8284 35.4447H60.9679C62.9921 35.4447 64.633 37.0856 64.633 39.1098V62.6912C64.633 66.8732 61.2429 70.2633 57.0609 70.2633H31.7354C27.5534 70.2633 24.1633 66.8732 24.1633 62.6912V39.1098Z" stroke="#1E2020" stroke-width="1.6"/>
<path d="M32.5889 43.491V52.0462C36.461 52.6741 44.2051 56.0334 44.2051 64.4474" stroke="#1E2020" stroke-width="1.6" stroke-linecap="round"/>
<path d="M53.2319 53.6159C50.8249 53.4851 45.3988 54.3851 42.95 59.0316" stroke="#1E2020" stroke-width="1.6" stroke-linecap="round"/>
<path d="M57.4855 44.8873V28.0251L60.4306 25.8231C61.2118 25.239 62.2843 25.239 63.0655 25.8231L66.0105 28.0251V44.8873C66.0105 47.2414 64.1022 49.1498 61.748 49.1498C59.3939 49.1498 57.4855 47.2414 57.4855 44.8873Z" fill="white" stroke="#1E2020" stroke-width="1.6"/>
<path d="M49.1496 44.8874V25.0362L52.2914 23.1762C52.9825 22.767 53.8417 22.767 54.5329 23.1762L57.6746 25.0362V44.8874C57.6746 47.2415 55.7662 49.1499 53.4121 49.1499C51.058 49.1499 49.1496 47.2415 49.1496 44.8874Z" fill="white" stroke="#1E2020" stroke-width="1.6"/>
<path d="M40.8166 44.8874V20.9476L43.8537 18.9107C44.595 18.4135 45.5632 18.4135 46.3045 18.9107L49.3416 20.9476V44.8874C49.3416 47.2415 47.4332 49.1499 45.0791 49.1499C42.725 49.1499 40.8166 47.2415 40.8166 44.8874Z" fill="white" stroke="#1E2020" stroke-width="1.6"/>
<path d="M32.4826 44.8873V23.9933L35.5248 21.9652C36.2638 21.4726 37.2265 21.4726 37.9655 21.9652L41.0076 23.9933V44.8873C41.0076 47.2414 39.0992 49.1498 36.7451 49.1498C34.391 49.1498 32.4826 47.2414 32.4826 44.8873Z" fill="white" stroke="#1E2020" stroke-width="1.6"/>
<path d="M18 13.7529L22.5 18.2529" stroke="#1E2020" stroke-width="1.6" stroke-linecap="round"/>
<path d="M6.75 41.8779H13.5" stroke="#1E2020" stroke-width="1.6" stroke-linecap="round"/>
<path d="M10.125 27.2529L15.75 29.5029" stroke="#1E2020" stroke-width="1.6" stroke-linecap="round"/>
<path d="M31.5 5.31543L33.75 10.9404" stroke="#1E2020" stroke-width="1.6" stroke-linecap="round"/>
<path d="M72 13.7529L67.5 18.2529" stroke="#1E2020" stroke-width="1.6" stroke-linecap="round"/>
<path d="M83.25 41.8779H76.5" stroke="#1E2020" stroke-width="1.6" stroke-linecap="round"/>
<path d="M79.875 27.2529L74.25 29.5029" stroke="#1E2020" stroke-width="1.6" stroke-linecap="round"/>
<path d="M58.5 5.31543L56.25 10.9404" stroke="#1E2020" stroke-width="1.6" stroke-linecap="round"/>
<path d="M45 2.50293V9.25293" stroke="#1E2020" stroke-width="1.6" stroke-linecap="round"/>
</svg>
