<svg width="90" height="90" viewBox="0 0 90 90" fill="none" xmlns="http://www.w3.org/2000/svg">
<path d="M58.7526 62.9822C58.5858 61.0455 58.2521 58.2551 58.2521 58.2551C57.5325 51.404 52.7875 45.5733 46.0611 44.9799H43.9754C37.2386 45.5733 32.5041 51.404 31.7741 58.2551C31.7741 58.2551 31.4404 61.0455 31.2735 62.9822C31.1067 64.9188 31.5238 65.3249 31.8367 65.5643C32.29 65.9158 32.8242 66.1484 33.3905 66.2411C36.4148 66.7825 36.1958 70.0102 36.1958 71.4471C36.1958 72.1135 36.4148 75.9763 36.7381 79.9745C37.0614 86.3675 41.0138 88.4394 43.9754 88.4915H46.0611C49.0228 88.4915 52.9752 86.4091 53.2985 79.9745C53.6218 75.9763 53.8408 72.1135 53.8408 71.4471C53.8408 70.0415 53.6218 66.8138 56.6461 66.2411C57.2124 66.1484 57.7466 65.9158 58.1999 65.5643C58.5023 65.3249 58.9195 64.9188 58.7526 62.9822Z" fill="white"/>
<path d="M44.7993 41.4295C49.7237 41.4295 53.7157 37.4438 53.7157 32.5272C53.7157 27.6107 49.7237 23.625 44.7993 23.625C39.8749 23.625 35.8829 27.6107 35.8829 32.5272C35.8829 37.4438 39.8749 41.4295 44.7993 41.4295Z" fill="white"/>
<path d="M58.3458 62.9822C58.179 61.0455 57.8453 58.2551 57.8453 58.2551C57.1361 51.404 52.3807 45.5733 45.6439 44.9799H44.6011V88.4603H45.6439C48.6056 88.4603 52.558 86.3779 52.8813 79.9433C53.2046 75.9451 53.4236 72.0822 53.4236 71.4159C53.4236 70.0102 53.2046 66.7825 56.2288 66.2099C56.7952 66.1172 57.3294 65.8845 57.7827 65.5331C58.0955 65.3249 58.5753 64.9188 58.3458 62.9822Z" fill="#F7C171"/>
<path d="M53.361 33.7765C53.3617 31.4529 52.4524 29.2211 50.8274 27.5577C49.2023 25.8944 46.9902 24.9313 44.6636 24.8743V42.6683C46.9893 42.6139 49.2013 41.6532 50.8267 39.9915C52.452 38.3298 53.3616 36.0991 53.361 33.7765Z" fill="#F7C171"/>
<path fill-rule="evenodd" clip-rule="evenodd" d="M43.9021 44.1501C43.9265 44.1479 43.9509 44.1469 43.9754 44.1469H46.0611C46.0856 44.1469 46.1101 44.1479 46.1346 44.1501C53.3515 44.7869 58.3286 51.0202 59.0811 58.1623L59.0952 58.2813C59.1047 58.3618 59.1185 58.4789 59.1355 58.6254C59.1695 58.9183 59.2166 59.3291 59.2689 59.8006C59.3734 60.742 59.4995 61.932 59.5838 62.9107C59.6714 63.9276 59.6165 64.6406 59.4459 65.1664C59.2571 65.7481 58.9474 66.0355 58.7183 66.2169L58.7116 66.2222C58.1514 66.6565 57.4918 66.9448 56.7923 67.0612C56.1932 67.1762 55.7982 67.4108 55.5225 67.6867C55.2385 67.9709 55.0405 68.3404 54.907 68.7755C54.6627 69.5722 54.6688 70.445 54.6737 71.1628C54.6744 71.2606 54.675 71.3556 54.675 71.447C54.675 72.1523 54.4532 76.0421 54.1311 80.029C53.9586 83.4113 52.8237 85.7533 51.2434 87.2502C49.6714 88.7393 47.729 89.3244 46.0611 89.3244H43.9607C42.3009 89.2952 40.3635 88.7011 38.7934 87.2153C37.2142 85.721 36.0781 83.3927 35.9055 80.0291C35.5833 76.0423 35.3615 72.1523 35.3615 71.447C35.3615 71.3535 35.3621 71.2566 35.3628 71.157C35.3678 70.4267 35.3737 69.5485 35.1295 68.7521C34.9962 68.3174 34.7988 67.9514 34.5169 67.672C34.2429 67.4004 33.8491 67.1704 33.2487 67.0619C32.5485 66.9461 31.8881 66.6582 31.3272 66.2239C31.0882 66.0407 30.7736 65.7519 30.5823 65.1689C30.4093 64.6415 30.3547 63.9271 30.4423 62.9107C30.5266 61.932 30.6527 60.742 30.7572 59.8006C30.8095 59.3291 30.8566 58.9183 30.8906 58.6254C30.9076 58.4789 30.9214 58.3618 30.9309 58.2813L30.945 58.1617C31.708 51.0211 36.6739 44.7868 43.9021 44.1501ZM32.6025 58.3538L32.588 58.4762C32.5786 58.5558 32.5649 58.6719 32.5481 58.8173C32.5143 59.1081 32.4675 59.5159 32.4156 59.9841C32.3115 60.922 32.1872 62.0956 32.1047 63.0535C32.0254 63.9738 32.096 64.4307 32.168 64.6504C32.2198 64.8082 32.2677 64.8448 32.3378 64.8983L32.3483 64.9063C32.6917 65.1726 33.0964 65.3488 33.5255 65.4191L33.5378 65.4211C34.4464 65.5838 35.1577 65.9597 35.6925 66.4897C36.2201 67.0127 36.535 67.6449 36.725 68.2644C37.0508 69.327 37.0391 70.4818 37.0319 71.1903C37.0309 71.2841 37.03 71.3701 37.03 71.447C37.03 72.0738 37.2458 75.9022 37.5696 79.9074C37.5703 79.9158 37.5708 79.9241 37.5713 79.9325C37.7241 82.955 38.7249 84.8552 39.9412 86.0062C41.1664 87.1656 42.6828 87.6341 43.9831 87.6585H46.0611C47.3549 87.6585 48.8696 87.2024 50.095 86.0416C51.3102 84.8906 52.3122 82.9781 52.4653 79.9327C52.4657 79.9243 52.4662 79.9158 52.4669 79.9074C52.7908 75.9022 53.0065 72.0738 53.0065 71.447C53.0065 71.3721 53.0056 71.2881 53.0047 71.1961C52.9975 70.4995 52.9856 69.3508 53.3116 68.2878C53.5014 67.6688 53.8156 67.0361 54.3412 66.5101C54.8736 65.9773 55.5827 65.5946 56.4906 65.4227L56.5111 65.4191C56.9389 65.3491 57.3424 65.1736 57.6852 64.9087L57.6886 64.906C57.7581 64.8511 57.8067 64.8128 57.8586 64.6529C57.9304 64.4316 58.0006 63.9732 57.9214 63.0535C57.8388 62.0956 57.7146 60.922 57.6105 59.9841C57.5586 59.5159 57.5118 59.1081 57.478 58.8173C57.4612 58.6719 57.4475 58.5558 57.4381 58.4762L57.4237 58.3543L57.4222 58.342C56.7348 51.7969 52.2388 46.3805 46.0237 45.8128H44.0128C37.7878 46.3804 33.3012 51.7965 32.6037 58.3432L32.6025 58.3538Z" fill="#202020"/>
<path fill-rule="evenodd" clip-rule="evenodd" d="M44.7992 25.499C40.3356 25.499 36.7171 29.1118 36.7171 33.5683C36.7171 38.0249 40.3356 41.6376 44.7992 41.6376C49.2628 41.6376 52.8812 38.0249 52.8812 33.5683C52.8812 29.1118 49.2628 25.499 44.7992 25.499ZM35.0485 33.5683C35.0485 28.1917 39.414 23.8331 44.7992 23.8331C50.1843 23.8331 54.5498 28.1917 54.5498 33.5683C54.5498 38.9449 50.1843 43.3035 44.7992 43.3035C39.414 43.3035 35.0485 38.9449 35.0485 33.5683Z" fill="#202020"/>
<path d="M31.5817 19.774C32.3091 19.1789 31.8883 18 30.9485 18H25.3491C24.9286 18 24.5531 17.737 24.4093 17.3418L22.3148 11.5835C21.9955 10.706 20.7544 10.706 20.4352 11.5835L18.3407 17.3418C18.1969 17.737 17.8214 18 17.4009 18H11.8015C10.8617 18 10.4409 19.1789 11.1683 19.774L15.4665 23.2906C15.7953 23.5596 15.9183 24.0071 15.7731 24.4063L13.3673 31.0214C13.0423 31.9151 14.0307 32.7152 14.8371 32.2112L20.845 28.4562C21.1693 28.2536 21.5807 28.2536 21.905 28.4562L27.9129 32.2112C28.7193 32.7152 29.7077 31.9151 29.3827 31.0214L26.9769 24.4063C26.8317 24.0071 26.9547 23.5596 27.2835 23.2906L31.5817 19.774Z" stroke="#202020" stroke-width="1.6" stroke-miterlimit="10" stroke-linecap="round" stroke-linejoin="round"/>
<path d="M45 18.5708C45 18.9155 45.1776 19.236 45.47 19.4188L51.5379 23.2112C52.3443 23.7152 53.3327 22.9151 53.0077 22.0214L50.3595 14.7397L55.2067 10.774C55.9341 10.1789 55.5133 9 54.5735 9H48.2737L45 2V18.5708Z" fill="#F7C171"/>
<path d="M55.2067 10.774C55.9341 10.1789 55.5133 9 54.5735 9H48.9741C48.5536 9 48.1781 8.73698 48.0343 8.34184L45.9398 2.58353C45.6205 1.70598 44.3794 1.70598 44.0602 2.58353L41.9657 8.34184C41.8219 8.73698 41.4464 9 41.0259 9H35.4265C34.4867 9 34.0659 10.1789 34.7933 10.774L39.0915 14.2906C39.4203 14.5596 39.5433 15.0071 39.3981 15.4063L36.9923 22.0214C36.6673 22.9151 37.6557 23.7152 38.4621 23.2112L44.47 19.4562C44.7943 19.2536 45.2057 19.2536 45.53 19.4562L51.5379 23.2112C52.3443 23.7152 53.3327 22.9151 53.0077 22.0214L50.6019 15.4063C50.4567 15.0071 50.5797 14.5596 50.9085 14.2906L55.2067 10.774Z" stroke="#202020" stroke-width="1.6" stroke-miterlimit="10" stroke-linecap="round" stroke-linejoin="round"/>
<path d="M78.8317 19.774C79.5591 19.1789 79.1383 18 78.1985 18H72.5991C72.1786 18 71.8031 17.737 71.6593 17.3418L69.5648 11.5835C69.2455 10.706 68.0044 10.706 67.6852 11.5835L65.5907 17.3418C65.4469 17.737 65.0714 18 64.6509 18H59.0515C58.1117 18 57.6909 19.1789 58.4183 19.774L62.7165 23.2906C63.0453 23.5596 63.1683 24.0071 63.0231 24.4063L60.6173 31.0214C60.2923 31.9151 61.2807 32.7152 62.0871 32.2112L68.095 28.4562C68.4193 28.2536 68.8307 28.2536 69.155 28.4562L75.1629 32.2112C75.9693 32.7152 76.9577 31.9151 76.6327 31.0214L74.2269 24.4063C74.0817 24.0071 74.2047 23.5596 74.5335 23.2906L78.8317 19.774Z" stroke="#202020" stroke-width="1.6" stroke-miterlimit="10" stroke-linecap="round" stroke-linejoin="round"/>
</svg>
