<svg width="40" height="40" viewBox="0 0 40 40" fill="none" xmlns="http://www.w3.org/2000/svg">
<path fill-rule="evenodd" clip-rule="evenodd" d="M20 7.27294C12.9709 7.27294 7.27273 12.9711 7.27273 20.0002C7.27273 20.8013 7.34632 21.5836 7.48694 22.3413C7.85337 24.3159 7.20267 26.512 5.41359 27.4245C3.62452 28.3369 1.39838 27.6298 0.826313 25.7047C0.288447 23.8947 0 21.9792 0 20.0002C0 8.95452 8.95431 0.000213623 20 0.000213623C31.0457 0.000213623 40 8.95452 40 20.0002C40 21.9792 39.7116 23.8947 39.1737 25.7047C38.6016 27.6298 36.3755 28.3369 34.5864 27.4245C32.7973 26.512 32.1466 24.3159 32.5131 22.3413C32.6537 21.5836 32.7273 20.8013 32.7273 20.0002C32.7273 12.9711 27.0291 7.27294 20 7.27294Z" fill="#202020"/>
<path d="M13.5623 30.9815C15.4515 32.092 17.6509 32.7271 20.0011 32.7271C22.3512 32.7271 24.5506 32.092 26.4398 30.9815C28.1711 29.9637 30.4574 29.8356 31.9199 31.2119C33.3824 32.5882 33.4676 34.9219 31.8505 36.1128C28.5352 38.554 24.4353 39.9998 20.0011 39.9998C15.5669 39.9998 11.4669 38.554 8.15167 36.1128C6.53449 34.9219 6.6197 32.5882 8.08223 31.2119C9.54476 29.8356 11.831 29.9637 13.5623 30.9815Z" fill="#F4950A"/>
<ellipse cx="20.0942" cy="19.9078" rx="8.21918" ry="8.21918" fill="#F4950A"/>
</svg>
