<svg width="42" height="43" viewBox="0 0 42 43" fill="none" xmlns="http://www.w3.org/2000/svg">
<rect y="0.125977" width="42" height="42" rx="21" fill="white"/>
<path fill-rule="evenodd" clip-rule="evenodd" d="M21 10.9442C15.3767 10.9442 10.8182 15.5027 10.8182 21.126C10.8182 21.7668 10.8771 22.3927 10.9896 22.9989C11.2827 24.5785 10.7621 26.3354 9.33087 27.0654C7.89961 27.7953 6.1187 27.2297 5.66105 25.6896C5.23076 24.2415 5 22.7092 5 21.126C5 12.2894 12.1634 5.12598 21 5.12598C29.8366 5.12598 37 12.2894 37 21.126C37 22.7092 36.7693 24.2415 36.339 25.6896C35.8813 27.2297 34.1004 27.7953 32.6691 27.0654C31.2379 26.3354 30.7173 24.5786 31.0105 22.9989C31.1229 22.3927 31.1818 21.7668 31.1818 21.126C31.1818 15.5027 26.6233 10.9442 21 10.9442Z" fill="#202020"/>
<path d="M15.8483 29.9113C17.3596 30.7998 19.1192 31.3078 20.9993 31.3078C22.8794 31.3078 24.6389 30.7998 26.1503 29.9113C27.5354 29.0971 29.3643 28.9946 30.5344 30.0957C31.7044 31.1968 31.7725 33.0637 30.4788 34.0164C27.8266 35.9693 24.5466 37.126 20.9993 37.126C17.4519 37.126 14.172 35.9693 11.5198 34.0164C10.226 33.0637 10.2942 31.1968 11.4642 30.0957C12.6342 28.9946 14.4632 29.0971 15.8483 29.9113Z" fill="#F4950A"/>
<ellipse cx="21.0739" cy="21.0529" rx="6.57534" ry="6.57534" fill="#F4950A"/>
</svg>
