<svg width="74" height="67" viewBox="0 0 74 67" fill="none" xmlns="http://www.w3.org/2000/svg">
<path d="M73 51.4643H16.6522L7.81784 60.2329C5.2937 62.7382 1 60.9503 1 57.3939V1.75H73V51.4643Z" fill="white"/>
<path d="M13.5217 45.25L1 57.6786C1 61.1296 5.16647 62.8645 7.61581 60.4334L16.6522 51.4643H73V45.25H13.5217Z" fill="#F7C171"/>
<path d="M19.7825 23.5L15.0861 28.163L19.7819 32.8221L24.4782 28.1592L19.7825 23.5Z" fill="#F7C171"/>
<path d="M38.5674 23.4992L33.8711 28.1622L38.5667 32.8214L43.263 28.1584L38.5674 23.4992Z" fill="#F7C171"/>
<path d="M57.3479 23.503L52.6538 28.1638L57.3495 32.8231L62.0435 28.1622L57.3479 23.503Z" fill="#F7C171"/>
<path d="M21.1916 24.8982C20.4117 24.1243 19.1535 24.1245 18.3738 24.8987L16.516 26.7433C15.728 27.5256 15.7283 28.8002 16.5165 29.5822L18.3728 31.424C19.1527 32.1978 20.4109 32.1976 21.1906 31.4235L23.0483 29.5789C23.8363 28.7966 23.8361 27.522 23.0478 26.7399L21.1916 24.8982Z" stroke="#202020" stroke-width="1.6" stroke-miterlimit="10" stroke-linecap="round" stroke-linejoin="round"/>
<path d="M39.9765 24.8974C39.1966 24.1235 37.9384 24.1238 37.1587 24.8979L35.3009 26.7425C34.513 27.5249 34.5132 28.7993 35.3014 29.5814L37.1576 31.4232C37.9375 32.1971 39.1957 32.1969 39.9754 31.4227L41.8332 29.5781C42.6211 28.7957 42.6209 27.5213 41.8327 26.7392L39.9765 24.8974Z" stroke="#202020" stroke-width="1.6" stroke-miterlimit="10" stroke-linecap="round" stroke-linejoin="round"/>
<path d="M58.7571 24.9012C57.9771 24.1273 56.7189 24.1275 55.9392 24.9017L54.0836 26.7441C53.2957 27.5265 53.2959 28.801 54.0841 29.5831L55.9403 31.4248C56.7202 32.1987 57.9785 32.1985 58.7582 31.4243L60.6137 29.5819C61.4017 28.7995 61.4014 27.5251 60.6132 26.743L58.7571 24.9012Z" stroke="#202020" stroke-width="1.6" stroke-miterlimit="10" stroke-linecap="round" stroke-linejoin="round"/>
<path d="M73 47.4643C73 49.6734 71.2091 51.4643 69 51.4643H18.3003C17.2446 51.4643 16.2317 51.8816 15.4824 52.6253L7.81784 60.2329C5.2937 62.7382 1 60.9503 1 57.3939V5.75C1 3.54086 2.79086 1.75 5 1.75H69C71.2091 1.75 73 3.54086 73 5.75V47.4643Z" stroke="#202020" stroke-width="1.6" stroke-miterlimit="10" stroke-linecap="round" stroke-linejoin="round"/>
</svg>
