<svg width="60" height="60" viewBox="0 0 60 60" fill="none" xmlns="http://www.w3.org/2000/svg">
<g clip-path="url(#clip0_531_6540)">
<path d="M19.3726 50.58C19.3726 52.1713 20.0047 53.6974 21.1299 54.8227C22.2551 55.9479 23.7813 56.58 25.3726 56.58H30.9751C31.7683 56.5846 32.5545 56.4319 33.2883 56.1306C34.0221 55.8294 34.6889 55.3856 35.2501 54.825L55.1851 34.86C56.3082 33.7357 56.9393 32.2117 56.9401 30.6225V25.02C56.9401 23.4287 56.3079 21.9026 55.1827 20.7774C54.0575 19.6522 52.5314 19.02 50.9401 19.02H45.3376C44.5494 19.0194 43.7688 19.1741 43.0405 19.4752C42.3121 19.7763 41.6502 20.218 41.0926 20.775L21.1351 40.74C20.5749 41.2988 20.1308 41.9629 19.8283 42.694C19.5259 43.4251 19.371 44.2088 19.3726 45V50.58Z" fill="white"/>
<path d="M28.7624 22.5001C28.76 23.5743 28.4692 24.6282 27.9204 25.5517C27.3716 26.4752 26.5849 27.2344 25.6424 27.7501L18.7274 31.5001C17.8463 31.9806 16.8586 32.2323 15.8549 32.2323C14.8513 32.2323 13.8636 31.9806 12.9824 31.5001L6.06744 27.7501C5.12362 27.2354 4.33542 26.4766 3.78524 25.553C3.23506 24.6295 2.94312 23.5751 2.93994 22.5001V13.1851C2.94312 12.11 3.23506 11.0556 3.78524 10.1321C4.33542 9.2085 5.12362 8.44971 6.06744 7.93505L12.9824 4.18505C13.8636 3.70454 14.8513 3.45276 15.8549 3.45276C16.8586 3.45276 17.8463 3.70454 18.7274 4.18505L25.6424 7.93505C26.5849 8.4507 27.3716 9.2099 27.9204 10.1334C28.4692 11.0569 28.76 12.1108 28.7624 13.1851V22.5001Z" fill="white"/>
<path d="M28.8826 14.325H3.06006V21.3675H28.8826V14.325Z" fill="#F7C171"/>
<path d="M4.80755 26.7225C4.69902 26.6553 4.60945 26.5614 4.54734 26.4499C4.48524 26.3383 4.45264 26.2127 4.45264 26.085C4.45264 25.9574 4.48524 25.8318 4.54734 25.7202C4.60945 25.6087 4.69902 25.5148 4.80755 25.4475L5.46755 25.0575C6.15208 24.6487 6.93294 24.4291 7.73021 24.4212C8.52749 24.4133 9.31254 24.6174 10.0051 25.0125L14.4526 27.555C14.9086 27.8184 15.4259 27.957 15.9526 27.957C16.4792 27.957 16.9965 27.8184 17.4526 27.555L21.9076 25.0125C22.5956 24.6244 23.3737 24.4242 24.1636 24.4321C24.9535 24.44 25.7274 24.6557 26.4076 25.0575L27.0451 25.4325C27.1553 25.4994 27.2464 25.5935 27.3096 25.7058C27.3729 25.8182 27.4061 25.9449 27.4061 26.0738C27.4061 26.2027 27.3729 26.3294 27.3096 26.4417C27.2464 26.5541 27.1553 26.6482 27.0451 26.715L22.5001 29.58L17.3026 32.3625C16.8723 32.5885 16.3936 32.7066 15.9075 32.7066C15.4215 32.7066 14.9428 32.5885 14.5126 32.3625L9.08255 29.5575L4.80755 26.7225Z" fill="#F7C171"/>
<path d="M31.2375 30.75L19.5 42.495V51.33C19.5 52.7224 20.0531 54.0577 21.0377 55.0423C22.0223 56.0269 23.3576 56.58 24.75 56.58H33.585L45.3225 44.8425L31.2375 30.75Z" fill="#F7C171"/>
<path d="M19.5 50.58C19.5 52.1713 20.1322 53.6974 21.2574 54.8227C22.3826 55.9479 23.9087 56.58 25.5 56.58H31.1025C31.8907 56.5806 32.6713 56.426 33.3996 56.1248C34.128 55.8237 34.7899 55.382 35.3475 54.825L55.305 34.86C56.4281 33.7357 57.0593 32.2117 57.06 30.6225V25.02C57.06 23.4287 56.4279 21.9026 55.3027 20.7774C54.1775 19.6522 52.6513 19.02 51.06 19.02H45.4575C43.8788 19.0287 42.367 19.6592 41.25 20.775L21.255 40.74C20.6962 41.2994 20.2535 41.9638 19.9523 42.6948C19.6512 43.4259 19.4974 44.2093 19.5 45V50.58Z" stroke="#202020" stroke-width="1.6" stroke-linecap="round" stroke-linejoin="round"/>
<path d="M31.2373 30.75L45.3223 44.8425" stroke="#202020" stroke-width="1.6" stroke-linecap="round" stroke-linejoin="round"/>
<path d="M39.6826 29.58L44.6776 24.5925C44.9564 24.314 45.2874 24.0931 45.6516 23.9426C46.0158 23.792 46.406 23.7147 46.8001 23.715H48.8401" stroke="#202020" stroke-width="1.6" stroke-linecap="round" stroke-linejoin="round"/>
<path d="M28.8826 22.5001C28.8801 23.5743 28.5893 24.6282 28.0405 25.5517C27.4917 26.4752 26.705 27.2344 25.7626 27.7501L18.8476 31.5001C17.9664 31.9806 16.9787 32.2323 15.9751 32.2323C14.9714 32.2323 13.9837 31.9806 13.1026 31.5001L6.18756 27.7501C5.24374 27.2354 4.45553 26.4766 3.90535 25.553C3.35517 24.6295 3.06323 23.5751 3.06006 22.5001V13.1851C3.06323 12.11 3.35517 11.0556 3.90535 10.1321C4.45553 9.2085 5.24374 8.44971 6.18756 7.93505L13.1026 4.18505C13.9837 3.70454 14.9714 3.45276 15.9751 3.45276C16.9787 3.45276 17.9664 3.70454 18.8476 4.18505L25.7626 7.93505C26.705 8.45069 27.4917 9.2099 28.0405 10.1334C28.5893 11.0569 28.8801 12.1108 28.8826 13.1851V22.5001Z" stroke="#202020" stroke-width="1.6" stroke-linecap="round" stroke-linejoin="round"/>
<path d="M3.06006 14.325H28.8826" stroke="#202020" stroke-width="1.6" stroke-linecap="round" stroke-linejoin="round"/>
<path d="M3.06006 21.3676H28.8826" stroke="#202020" stroke-width="1.6" stroke-linecap="round" stroke-linejoin="round"/>
</g>
<defs>
<clipPath id="clip0_531_6540">
<rect width="60" height="60" fill="white"/>
</clipPath>
</defs>
</svg>
