<svg width="61" height="60" viewBox="0 0 61 60" fill="none" xmlns="http://www.w3.org/2000/svg">
<path d="M12.446 51L13.6199 44H18.3156L19.4895 51H40.6199L41.7938 44H46.4895L47.6634 51H57.0547V9H3.05469V51H12.446Z" fill="white"/>
<path d="M5.05468 45.1665C3.95012 45.1665 3.05469 46.0619 3.05469 47.1665V50.9998H12.446L13.0338 47.4975C13.2385 46.2778 12.2982 45.1665 11.0614 45.1665H5.05468Z" fill="#F7C171"/>
<path d="M47.6634 50.9998H57.0547V47.1665C57.0547 46.0619 56.1592 45.1665 55.0547 45.1665H49.048C47.8112 45.1665 46.8708 46.2778 47.0756 47.4975L47.6634 50.9998Z" fill="#F7C171"/>
<path d="M20.8741 45.1665C19.6373 45.1665 18.697 46.2778 18.9017 47.4975L19.4895 50.9998H40.62L41.2078 47.4975C41.4125 46.2778 40.4722 45.1665 39.2354 45.1665H20.8741Z" fill="#F7C171"/>
<path d="M19.4894 18.3331L24.1851 20.6665V26.4998L19.4894 28.8331L14.7938 26.4998V20.6665L19.4894 18.3331H12.0981C10.9936 18.3331 10.0981 19.2286 10.0981 20.3331V33.4998L19.4894 31.1665L28.8808 33.4998V20.3331C28.8808 19.2286 27.9853 18.3331 26.8808 18.3331H19.4894Z" fill="#F7C171"/>
<path d="M28.8808 15.6665C28.8808 14.5619 27.9853 13.6665 26.8808 13.6665H12.0981C10.9936 13.6665 10.0981 14.5619 10.0981 15.6665V34.9998C10.0981 36.1044 10.9936 36.9998 12.0981 36.9998H26.8808C27.9853 36.9998 28.8808 36.1044 28.8808 34.9998V15.6665Z" stroke="#202020" stroke-width="1.6" stroke-miterlimit="10" stroke-linecap="round" stroke-linejoin="round"/>
<path d="M36.022 18.333H50.1089" stroke="#202020" stroke-width="1.6" stroke-miterlimit="10" stroke-linecap="round" stroke-linejoin="round"/>
<path d="M36.022 25.3335H50.1089" stroke="#202020" stroke-width="1.6" stroke-miterlimit="10" stroke-linecap="round" stroke-linejoin="round"/>
<path d="M36.022 32.3337H45.4133" stroke="#202020" stroke-width="1.6" stroke-miterlimit="10" stroke-linecap="round" stroke-linejoin="round"/>
<path d="M24.1852 25.2603C24.1852 26.0196 23.7553 26.7135 23.0753 27.0514L20.3796 28.3909C19.819 28.6695 19.1602 28.6695 18.5996 28.3909L15.9039 27.0514C15.2239 26.7135 14.7939 26.0196 14.7939 25.2603V21.906C14.7939 21.1466 15.2239 20.4528 15.9039 20.1149L18.5996 18.7754C19.1602 18.4968 19.819 18.4968 20.3796 18.7754L23.0753 20.1149C23.7553 20.4528 24.1852 21.1466 24.1852 21.906V25.2603Z" stroke="#202020" stroke-width="1.6" stroke-miterlimit="10" stroke-linecap="round" stroke-linejoin="round"/>
<path d="M28.8808 35.0361C28.8808 34.1337 28.2659 33.3474 27.3902 33.1299L19.9717 31.2867C19.655 31.208 19.3239 31.208 19.0072 31.2867L11.5887 33.1299C10.713 33.3474 10.0981 34.1337 10.0981 35.0361V35.0361C10.0981 36.1208 10.9775 37.0002 12.0623 37.0002H26.9166C28.0014 37.0002 28.8808 36.1208 28.8808 35.0361V35.0361Z" stroke="#202020" stroke-width="1.6" stroke-miterlimit="10" stroke-linecap="round" stroke-linejoin="round"/>
<path d="M10.7535 51C11.7304 51 12.5643 50.2942 12.7259 49.3308L13.34 45.6692C13.5015 44.7058 14.3355 44 15.3124 44H16.623C17.5999 44 18.4339 44.7058 18.5955 45.6692L19.2095 49.3308C19.3711 50.2942 20.2051 51 21.182 51H38.9274C39.9043 51 40.7383 50.2942 40.8998 49.3308L41.5139 45.6692C41.6755 44.7058 42.5094 44 43.4863 44H44.7969C45.7739 44 46.6078 44.7058 46.7694 45.6692L47.3835 49.3308C47.545 50.2942 48.379 51 49.3559 51H55.0547C56.1593 51 57.0547 50.1046 57.0547 49V11C57.0547 9.89543 56.1593 9 55.0547 9H5.05469C3.95012 9 3.05469 9.89543 3.05469 11V49C3.05469 50.1046 3.95012 51 5.05469 51H10.7535Z" stroke="#202020" stroke-width="1.6" stroke-miterlimit="10" stroke-linecap="round" stroke-linejoin="round"/>
</svg>
