<svg width="90" height="90" viewBox="0 0 90 90" fill="none" xmlns="http://www.w3.org/2000/svg">
<g clip-path="url(#clip0_413_5200)">
<path d="M39.9713 48.7912C41.4142 50.2332 43.3707 51.0432 45.4107 51.0432C47.4506 51.0432 49.4071 50.2332 50.85 48.7912L68.3775 31.2637C69.7634 29.877 70.5668 28.0131 70.6232 26.0534C70.6797 24.0938 69.985 22.1866 68.6813 20.7225L62.4038 13.6462C61.0769 12.1596 59.2252 11.2456 57.2381 11.0966C55.2511 10.9477 53.2837 11.5753 51.75 12.8475L50.355 13.9725C48.9756 15.1288 47.2331 15.7626 45.4331 15.7626C43.6332 15.7626 41.8907 15.1288 40.5113 13.9725L39.1275 12.8475C37.5925 11.5685 35.6202 10.9367 33.6277 11.0858C31.6353 11.2349 29.7789 12.1531 28.4513 13.6462L22.1625 20.7225C20.8607 22.1897 20.1702 24.0998 20.2329 26.0603C20.2957 28.0208 21.107 29.8828 22.5 31.2637L39.9713 48.7912Z" fill="white"/>
<path d="M37.035 62.4037L19.7775 44.5162C19.2743 43.9854 18.5992 43.6501 17.8722 43.5698C17.1452 43.4895 16.4133 43.6693 15.8063 44.0774L15.525 43.3237V30.4762C15.525 26.2912 14.4 24.8512 13.275 23.9962C12.4194 23.1177 11.3237 22.5111 10.125 22.2524C9.3045 22.2524 8.51759 22.5784 7.9374 23.1586C7.35721 23.7388 7.03127 24.5257 7.03127 25.3462V51.5137C7.02856 51.898 7.09723 52.2795 7.23377 52.6387C7.30227 53.1947 7.52432 53.7206 7.87502 54.1574L24.075 74.0137V86.3887H38.0925V64.7549C38.0899 64.311 37.9945 63.8724 37.8124 63.4675C37.6303 63.0626 37.3655 62.7002 37.035 62.4037Z" fill="white"/>
<path d="M52.2 64.7549V86.3549H66.2287V73.9799L82.4287 54.1237C82.7972 53.6737 83.0278 53.1267 83.0924 52.5487C83.229 52.1895 83.2976 51.808 83.2949 51.4237V25.3462C83.2949 24.5257 82.969 23.7388 82.3888 23.1586C81.8086 22.5784 81.0217 22.2524 80.2012 22.2524C78.9907 22.5056 77.8826 23.1125 77.0174 23.9962C75.8924 24.8624 74.7674 26.2462 74.7674 30.4762V43.3237L74.4862 44.0774C73.88 43.6671 73.1475 43.4859 72.4199 43.5663C71.6922 43.6467 71.017 43.9834 70.5149 44.5162L53.2574 62.4037C52.927 62.7002 52.6622 63.0626 52.4801 63.4675C52.2979 63.8724 52.2025 64.311 52.2 64.7549Z" fill="white"/>
<path d="M37.5525 79.8525H24.6825V85.3988H37.5525V79.8525Z" fill="#F7C171"/>
<path d="M65.4413 79.8525H52.5713V85.3988H65.4413V79.8525Z" fill="#F7C171"/>
<path d="M68.2763 31.2637C69.6659 29.8815 70.4758 28.0212 70.5406 26.0622C70.6055 24.1033 69.9203 22.1935 68.625 20.7225L62.3475 13.6462C61.0199 12.1531 59.1635 11.2349 57.1711 11.0858C55.1786 10.9367 53.2063 11.5685 51.6713 12.8475L46.2713 17.3475C45.9839 17.589 45.7525 17.8903 45.5932 18.2302C45.4339 18.5702 45.3505 18.9408 45.3488 19.3162V48.0375C45.3475 48.5464 45.4977 49.0441 45.7801 49.4675C46.0626 49.8908 46.4646 50.2205 46.935 50.4147C47.4054 50.6089 47.9229 50.6588 48.4218 50.558C48.9206 50.4572 49.3782 50.2103 49.7363 49.8487L68.2763 31.2637Z" fill="#F7C171"/>
<path d="M39.87 48.7912C41.313 50.2332 43.2694 51.0432 45.3094 51.0432C47.3493 51.0432 49.3058 50.2332 50.7488 48.7912L68.2763 31.2637C69.6659 29.8815 70.4758 28.0212 70.5406 26.0622C70.6055 24.1033 69.9203 22.1935 68.625 20.7225L62.3475 13.6462C61.0199 12.1531 59.1635 11.2349 57.1711 11.0858C55.1786 10.9367 53.2063 11.5685 51.6713 12.8475L50.265 13.9725C48.8856 15.1288 47.1431 15.7626 45.3431 15.7626C43.5432 15.7626 41.8006 15.1288 40.4213 13.9725L39.0375 12.8475C37.5025 11.5685 35.5302 10.9367 33.5377 11.0858C31.5452 11.2349 29.6889 12.1531 28.3613 13.6462L22.0838 20.7225C20.7801 22.1866 20.0853 24.0938 20.1418 26.0534C20.1983 28.0131 21.0017 29.877 22.3875 31.2637L39.87 48.7912Z" stroke="#202020" stroke-width="1.6" stroke-linecap="round" stroke-linejoin="round"/>
<path d="M15.525 43.3237V30.4762C15.525 26.2912 14.4 24.8512 13.275 23.9962C12.4194 23.1177 11.3237 22.5111 10.125 22.2524C9.3045 22.2524 8.51759 22.5784 7.9374 23.1586C7.35721 23.7388 7.03127 24.5257 7.03127 25.3462V51.5137C7.02856 51.898 7.09723 52.2795 7.23377 52.6387C7.30227 53.1947 7.52432 53.7206 7.87502 54.1574L24.075 74.0137V86.3887H38.0925V64.7549C38.0899 64.311 37.9945 63.8724 37.8124 63.4675C37.6303 63.0626 37.3655 62.7002 37.035 62.4037L19.7775 44.5162C19.4983 44.2207 19.1636 43.9831 18.7926 43.817C18.4215 43.6509 18.0214 43.5595 17.615 43.548C17.2086 43.5365 16.804 43.6051 16.4242 43.75C16.0443 43.8949 15.6967 44.1132 15.4013 44.3924C14.8045 44.9564 14.4562 45.7342 14.433 46.5549C14.4215 46.9613 14.4902 47.366 14.6351 47.7458C14.78 48.1256 14.9983 48.4732 15.2775 48.7687L20.0588 53.7187C20.0588 53.7187 21.7463 55.4737 20.5088 56.8124" stroke="#202020" stroke-width="1.6" stroke-linecap="round" stroke-linejoin="round"/>
<path d="M74.7674 43.3237V30.4762C74.7674 26.2912 75.8924 24.8512 77.0174 23.9962C77.8826 23.1125 78.9907 22.5056 80.2012 22.2524C81.0139 22.2643 81.7893 22.5954 82.3598 23.1743C82.9303 23.7533 83.25 24.5334 83.2499 25.3462V51.5137C83.2527 51.898 83.184 52.2795 83.0474 52.6387C82.9828 53.2167 82.7522 53.7637 82.3837 54.2137L66.2287 74.0137V86.3887H52.2V64.7549C52.2025 64.311 52.2979 63.8724 52.4801 63.4675C52.6622 63.0626 52.927 62.7002 53.2574 62.4037L70.5149 44.5162C71.0789 43.9195 71.8567 43.5712 72.6774 43.548C73.4982 43.5248 74.2945 43.8285 74.8912 44.3924C75.4879 44.9564 75.8362 45.7342 75.8594 46.5549C75.8826 47.3756 75.5789 48.172 75.0149 48.7687L70.2449 53.7187C70.2449 53.7187 68.5575 55.4737 69.795 56.8124" stroke="#202020" stroke-width="1.6" stroke-linecap="round" stroke-linejoin="round"/>
</g>
<defs>
<clipPath id="clip0_413_5200">
<rect width="90" height="90" fill="white"/>
</clipPath>
</defs>
</svg>
