<svg width="80" height="81" viewBox="0 0 80 81" fill="none" xmlns="http://www.w3.org/2000/svg">
<g clip-path="url(#clip0_642_19375)">
<path d="M62.1048 44.4499C64.0179 43.3453 64.6733 40.8989 63.5687 38.9858L61.4619 35.3368C61.1367 34.7735 60.4165 34.5806 59.8533 34.9059C59.0683 35.3592 58.087 34.7927 58.087 33.8862V12.2529C58.087 10.0438 56.2961 8.25293 54.087 8.25293H12C9.79086 8.25293 8 10.0438 8 12.2529V66.8616C8 69.0708 9.79086 70.8616 12 70.8616H52.4844C53.9995 70.8616 55.3845 71.7176 56.0621 73.0728L58.5466 78.0418C59.2242 79.3969 60.6092 80.2529 62.1243 80.2529H72.3174C75.5535 80.2529 77.4501 76.6102 75.5943 73.9591L58.5282 49.579C58.241 49.1687 58.087 48.6799 58.087 48.1791C58.087 47.307 58.5522 46.5012 59.3074 46.0651L62.1048 44.4499Z" fill="white"/>
<path d="M37.739 58.3399L39.3042 55.2095H43.4677L60.1466 45.5803L57.8051 41.5264L29.8981 57.6247C28.0697 58.6795 28.9103 61.48 31.0174 61.3535L33.0339 61.2325L37.8079 58.4777L37.739 58.3399Z" fill="#F7C171"/>
<path d="M52.6913 66.3313C52.161 65.2708 51.0771 64.6008 49.8914 64.6008H11.1304C9.40155 64.6008 8 66.0024 8 67.7313C8 69.4602 9.40154 70.8617 11.1304 70.8617H49.8914C52.2185 70.8617 53.732 68.4127 52.6913 66.3313Z" fill="#F7C171"/>
<path d="M63.2274 38.3979L57.8052 41.5284L60.1452 45.5814L62.1031 44.4511C64.0164 43.3466 64.672 40.9002 63.5675 38.987L63.2274 38.3979Z" fill="#F7C171"/>
<path d="M51.8261 39.5572L44.5834 37.1429C43.2504 36.6986 41.7821 36.9862 40.7153 37.9006L32.4464 44.9882C31.8166 45.5281 31.3702 46.2504 31.169 47.0551L29.9131 52.0789" stroke="#1E2020" stroke-width="1.6" stroke-miterlimit="10" stroke-linecap="round" stroke-linejoin="round"/>
<path d="M45.5652 70.8616H12C9.79086 70.8616 8 69.0708 8 66.8616V12.2529C8 10.0438 9.79086 8.25293 12 8.25293H54.087C56.2961 8.25293 58.087 10.0438 58.087 12.2529V27.0355" stroke="#1E2020" stroke-width="1.6" stroke-miterlimit="10" stroke-linecap="round" stroke-linejoin="round"/>
<path d="M80.0003 80.253L57.001 47.396" stroke="#1E2020" stroke-width="1.6" stroke-miterlimit="10" stroke-linecap="round" stroke-linejoin="round"/>
<path d="M28.5 53.2529L33 60.7529" stroke="#1E2020" stroke-width="1.6" stroke-miterlimit="10" stroke-linecap="round" stroke-linejoin="round"/>
<path d="M37.8141 58.4715L33.8519 60.7601C33.314 61.0708 32.7111 61.252 32.091 61.2892L26.5473 61.622C24.9019 61.7208 23.8501 59.8986 24.7587 58.5232L27.8212 53.8872C28.1633 53.3693 28.6212 52.9382 29.1587 52.6278L55.451 37.4475L60.1466 45.5804L43.4677 55.2096" stroke="#1E2020" stroke-width="1.6" stroke-miterlimit="10" stroke-linecap="round" stroke-linejoin="round"/>
<path d="M22.5536 61.8616L20.522 63.0355" stroke="#1E2020" stroke-width="1.6" stroke-miterlimit="10" stroke-linecap="round" stroke-linejoin="round"/>
<path d="M60.1468 45.5805L62.1047 44.4501C64.0178 43.3455 64.6733 40.8991 63.5687 38.986L62.8731 37.7812C61.7685 35.8681 59.3222 35.2126 57.409 36.3172L55.4512 37.4476" stroke="#1E2020" stroke-width="1.6" stroke-miterlimit="10" stroke-linecap="round" stroke-linejoin="round"/>
<path d="M48.2607 61.4702H54.9564" stroke="#1E2020" stroke-width="1.6" stroke-miterlimit="10" stroke-linecap="round" stroke-linejoin="round"/>
<path d="M25.7827 17.6443H46.5653" stroke="#1E2020" stroke-width="1.6" stroke-miterlimit="10" stroke-linecap="round" stroke-linejoin="round"/>
<path d="M16.7827 17.6443H17.7827" stroke="#1E2020" stroke-width="1.6" stroke-miterlimit="10" stroke-linecap="round" stroke-linejoin="round"/>
<path d="M25.7827 27.0356H43.4349" stroke="#1E2020" stroke-width="1.6" stroke-miterlimit="10" stroke-linecap="round" stroke-linejoin="round"/>
<path d="M16.7827 27.0356H17.7827" stroke="#1E2020" stroke-width="1.6" stroke-miterlimit="10" stroke-linecap="round" stroke-linejoin="round"/>
<path d="M25.7827 36.4268H29.9131" stroke="#1E2020" stroke-width="1.6" stroke-miterlimit="10" stroke-linecap="round" stroke-linejoin="round"/>
<path d="M16.7827 36.4268H17.9131" stroke="#1E2020" stroke-width="1.6" stroke-miterlimit="10" stroke-linecap="round" stroke-linejoin="round"/>
<path d="M59.6523 80.253L51.3666 63.6815C50.689 62.3264 49.3039 61.4703 47.7889 61.4703H41.2392C40.0535 61.4703 38.9695 60.8004 38.4392 59.7399V59.7399C37.9986 58.8586 37.9986 57.8212 38.4392 56.9399V56.9399C38.9695 55.8794 40.0535 55.2095 41.2392 55.2095H48.6958" stroke="#1E2020" stroke-width="1.6" stroke-miterlimit="10" stroke-linecap="round" stroke-linejoin="round"/>
</g>
<defs>
<clipPath id="clip0_642_19375">
<rect width="80" height="80" fill="white" transform="translate(0 0.25293)"/>
</clipPath>
</defs>
</svg>
