<svg width="80" height="81" viewBox="0 0 80 81" fill="none" xmlns="http://www.w3.org/2000/svg">
<path d="M20.911 47.4394L15.0039 46.2723C14.0669 46.0871 13.3916 45.2653 13.3916 44.3102V26.6782L20.0392 25.3137C20.8229 25.1529 21.5885 24.9141 22.3247 24.6009L24.9842 23.4693C29.541 21.5305 34.8208 22.59 38.2768 26.1367L44.5707 32.5957L51.9985 40.2185C52.4436 40.6753 52.6442 41.317 52.5384 41.946L52.0174 45.0434C51.877 45.878 51.2264 46.534 50.393 46.6812L47.8267 47.1345C46.9932 47.2818 46.3427 47.9377 46.2023 48.7723L45.747 51.479C45.6067 52.3132 44.9566 52.969 44.1236 53.1166L41.5533 53.5719C40.7198 53.7195 40.0696 54.3758 39.9296 55.2106L39.4763 57.9152C39.3363 58.7504 38.6854 59.4068 37.8515 59.5541L34.9345 60.0691C34.2828 60.1841 33.6164 59.9694 33.1545 59.4955L21.9556 48.0055C21.6728 47.7154 21.3085 47.518 20.911 47.4394Z" fill="white" stroke="#1E2020" stroke-width="1.6" stroke-miterlimit="10" stroke-linecap="round" stroke-linejoin="round"/>
<path d="M47.8715 32.9114C47.8818 32.2212 47.2063 31.7283 46.5521 31.9489L35.0881 35.8138C34.1781 36.1206 33.1727 35.8782 32.5025 35.1904C31.5078 34.1695 31.5682 32.5244 32.6353 31.5793L41.9071 23.3675C43.0044 22.3957 44.4195 21.8591 45.8853 21.8591H48.0084C48.961 21.8591 49.9 22.086 50.7475 22.5209L58.1196 26.3037C58.6037 26.5521 59.1194 26.7335 59.6524 26.8429L66.6753 28.2843V49.1662L61.148 50.5842C60.6609 50.7092 60.1599 50.7725 59.657 50.7725H45.933" fill="white"/>
<path d="M66.6753 28.2843L59.6524 26.8429C59.1194 26.7335 58.6037 26.5521 58.1196 26.3037L50.7475 22.5209C49.9 22.086 48.961 21.8591 48.0084 21.8591H45.8853C44.4195 21.8591 43.0044 22.3957 41.9071 23.3675L32.6353 31.5793C31.5682 32.5244 31.5078 34.1695 32.5025 35.1904V35.1904C33.1727 35.8782 34.1781 36.1206 35.0881 35.8138L46.5521 31.9489C47.2063 31.7283 47.8818 32.2212 47.8715 32.9114L47.8262 35.9325L51.0732 39.2811C51.9688 40.2048 52.3637 41.5039 52.1335 42.7697V42.7697C51.7722 44.7566 49.9751 46.0848 47.9615 46.2398C47.1634 46.3012 46.5367 46.4329 46.5002 46.6928C46.0002 50.2528 45.933 50.7725 45.933 50.7725H59.657C60.1599 50.7725 60.6609 50.7092 61.148 50.5842L66.6753 49.1662V28.2843Z" stroke="#1E2020" stroke-width="1.6" stroke-miterlimit="10" stroke-linecap="round" stroke-linejoin="round"/>
<path d="M13.3913 26.555C13.3913 23.9617 11.289 21.8594 8.69565 21.8594C6.10231 21.8594 4 23.9617 4 26.555V46.0771C4 48.6704 6.10231 50.7727 8.69565 50.7727C11.289 50.7727 13.3913 48.6704 13.3913 46.0771V26.555Z" fill="white" stroke="#1E2020" stroke-width="1.6" stroke-miterlimit="10" stroke-linecap="round" stroke-linejoin="round"/>
<path d="M75.9997 29.7674C75.9997 27.1741 73.8974 25.0718 71.304 25.0718C68.7107 25.0718 66.6084 27.1741 66.6084 29.7674V49.2895C66.6084 51.8828 68.7107 53.9851 71.304 53.9851C73.8974 53.9851 75.9997 51.8828 75.9997 49.2895V29.7674Z" fill="white" stroke="#1E2020" stroke-width="1.6" stroke-miterlimit="10" stroke-linecap="round" stroke-linejoin="round"/>
<path d="M75.9997 34.5863C75.9997 31.9929 73.8974 29.8906 71.304 29.8906C68.7107 29.8906 66.6084 31.9929 66.6084 34.5863V49.2894C66.6084 51.8828 68.7107 53.9851 71.304 53.9851C73.8974 53.9851 75.9997 51.8828 75.9997 49.2894V34.5863Z" fill="#F7C171"/>
<path d="M13.3913 31.3739C13.3913 28.7805 11.289 26.6782 8.69565 26.6782C6.10231 26.6782 4 28.7805 4 31.3739V46.077C4 48.6704 6.10231 50.7727 8.69565 50.7727C11.289 50.7727 13.3913 48.6704 13.3913 46.077V31.3739Z" fill="#F7C171"/>
<path d="M13.3913 26.555C13.3913 23.9617 11.289 21.8594 8.69565 21.8594V21.8594C6.10231 21.8594 4 23.9617 4 26.555V46.0771C4 48.6704 6.10231 50.7727 8.69565 50.7727V50.7727C11.289 50.7727 13.3913 48.6704 13.3913 46.0771V26.555Z" stroke="#1E2020" stroke-width="1.6" stroke-miterlimit="10" stroke-linecap="round" stroke-linejoin="round"/>
<path d="M75.9997 29.7674C75.9997 27.1741 73.8974 25.0718 71.304 25.0718V25.0718C68.7107 25.0718 66.6084 27.1741 66.6084 29.7674V49.2895C66.6084 51.8828 68.7107 53.9851 71.304 53.9851V53.9851C73.8974 53.9851 75.9997 51.8828 75.9997 49.2895V29.7674Z" stroke="#1E2020" stroke-width="1.6" stroke-miterlimit="10" stroke-linecap="round" stroke-linejoin="round"/>
</svg>
