<svg width="61" height="60" viewBox="0 0 61 60" fill="none" xmlns="http://www.w3.org/2000/svg">
<path d="M23.6103 31.2183C22.3635 31.2183 21.353 32.2287 21.353 33.4755C21.353 33.8607 21.4498 34.2255 21.621 34.5418C22.0025 35.2508 22.7506 35.7328 23.6103 35.7328C24.8571 35.7328 25.8676 34.7223 25.8676 33.4755C25.8676 33.1964 25.8136 32.9284 25.7206 32.6809C25.4005 31.8286 24.578 31.2183 23.6103 31.2183Z" fill="white" stroke="#202020" stroke-width="1.6" stroke-miterlimit="10" stroke-linecap="round" stroke-linejoin="round"/>
<path d="M12.6645 25.3211C15.2503 25.3211 17.3465 23.2249 17.3465 20.6391C17.3465 18.0533 15.2503 15.957 12.6645 15.957C10.0786 15.957 7.98242 18.0533 7.98242 20.6391C7.98242 23.2249 10.0786 25.3211 12.6645 25.3211Z" fill="white" stroke="#202020" stroke-width="1.6" stroke-miterlimit="10" stroke-linecap="round" stroke-linejoin="round"/>
<path d="M29.8202 26.2311L37.3047 18.1957C39.2735 16.0817 39.1563 12.7712 37.0423 10.8023C34.9283 8.83351 31.6178 8.95074 29.649 11.0647L22.1644 19.0982C20.1956 21.2122 20.3128 24.5228 22.4268 26.4916C24.5408 28.4623 27.8513 28.3451 29.8202 26.2311Z" fill="white" stroke="#202020" stroke-width="1.6" stroke-miterlimit="10" stroke-linecap="round" stroke-linejoin="round"/>
<path d="M20.0338 37.6924L14.7227 31.9906C12.7539 29.8766 9.44335 29.7593 7.32937 31.7282C5.21539 33.697 5.09816 37.0076 7.06699 39.1215L14.5515 47.1569C14.9572 47.5942 15.4243 47.9404 15.923 48.2046C17.8398 49.2244 20.2682 48.9806 21.9468 47.4174C24.0608 45.4486 24.178 42.1381 22.2092 40.0241L20.0338 37.6924Z" fill="white" stroke="#202020" stroke-width="1.6" stroke-miterlimit="10" stroke-linecap="round" stroke-linejoin="round"/>
<path d="M23.6104 35.7328C23.5282 35.7328 23.4471 35.7284 23.3672 35.7198C22.2617 35.6011 22.6679 34.279 23.7461 34.0082C24.8233 33.7378 25.8034 34.7069 24.8885 35.3365C24.5251 35.5865 24.0849 35.7328 23.6104 35.7328Z" fill="#F7C171"/>
<path d="M17.0337 22.5303C16.3987 23.6163 15.4984 24.5283 14.4218 25.1775C12.5091 26.3307 10.4976 24.3675 11.2343 22.2591C11.508 21.4755 11.8918 20.7442 12.4297 20.25C12.879 19.8372 13.4922 19.5379 14.1491 19.321C16.2325 18.6329 18.1412 20.6363 17.0337 22.5303Z" fill="#F7C171"/>
<path d="M7.06699 39.1215C6.05578 38.0358 5.59486 36.6343 5.67214 35.2612C5.79624 33.0558 8.54985 33.0381 10.0556 34.6543L19.2195 44.4901C20.7256 46.1067 20.5122 48.8532 18.303 48.8175C17.4818 48.8043 16.6642 48.5989 15.923 48.2046C15.4243 47.9403 14.9572 47.5942 14.5515 47.1569L7.06699 39.1215Z" fill="#F7C171"/>
<path d="M37.3047 18.1957L29.8201 26.231C28.8085 27.3172 27.4428 27.8762 26.0671 27.8958C23.8587 27.9272 23.6469 25.1818 25.1523 23.5658L34.3161 13.7288C35.8218 12.1125 38.5755 12.1301 38.6995 14.3356C38.7767 15.7087 38.3158 17.11 37.3047 18.1957Z" fill="#F7C171"/>
<path d="M23.6103 31.2183C22.3635 31.2183 21.353 32.2287 21.353 33.4755C21.353 33.8607 21.4498 34.2255 21.621 34.5418C22.0025 35.2508 22.7506 35.7328 23.6103 35.7328C24.8571 35.7328 25.8676 34.7223 25.8676 33.4755C25.8676 33.1964 25.8136 32.9284 25.7206 32.6809C25.4005 31.8286 24.578 31.2183 23.6103 31.2183Z" stroke="#202020" stroke-width="1.6" stroke-miterlimit="10" stroke-linecap="round" stroke-linejoin="round"/>
<path d="M12.6645 25.321C15.2503 25.321 17.3465 23.2248 17.3465 20.639C17.3465 18.0532 15.2503 15.957 12.6645 15.957C10.0786 15.957 7.98242 18.0532 7.98242 20.639C7.98242 23.2248 10.0786 25.321 12.6645 25.321Z" stroke="#202020" stroke-width="1.6" stroke-miterlimit="10" stroke-linecap="round" stroke-linejoin="round"/>
<path d="M29.8202 26.2311L37.3047 18.1957C39.2735 16.0817 39.1563 12.7712 37.0423 10.8023C34.9283 8.83351 31.6178 8.95074 29.649 11.0647L22.1644 19.0982C20.1956 21.2122 20.3128 24.5228 22.4268 26.4916C24.5408 28.4623 27.8513 28.3451 29.8202 26.2311Z" stroke="#202020" stroke-width="1.6" stroke-miterlimit="10" stroke-linecap="round" stroke-linejoin="round"/>
<path d="M20.0338 37.6924L14.7227 31.9906C12.7539 29.8766 9.44335 29.7593 7.32937 31.7282C5.21539 33.697 5.09816 37.0076 7.06699 39.1215L14.5515 47.1569C14.9572 47.5942 15.4243 47.9404 15.923 48.2046C17.8398 49.2244 20.2682 48.9806 21.9468 47.4174C24.0608 45.4486 24.178 42.1381 22.2092 40.0241L20.0338 37.6924Z" stroke="#202020" stroke-width="1.6" stroke-miterlimit="10" stroke-linecap="round" stroke-linejoin="round"/>
<path d="M38.3226 27.4556C39.8653 27.169 41.4917 27.1969 43.1144 27.5933C49.2386 29.0894 52.9902 35.2676 51.4922 41.3919C49.996 47.5161 43.8178 51.2677 37.6936 49.7696C31.5694 48.2735 27.8178 42.0953 29.3158 35.9711C29.9988 33.1778 31.655 30.8778 33.836 29.3444" stroke="#202020" stroke-width="1.6" stroke-miterlimit="10" stroke-linecap="round" stroke-linejoin="round"/>
<path d="M42.2659 23.5141L38.3264 27.4536" stroke="#202020" stroke-width="1.6" stroke-miterlimit="10" stroke-linecap="round" stroke-linejoin="round"/>
<path d="M38.3264 27.4537L42.3199 31.4454" stroke="#202020" stroke-width="1.6" stroke-miterlimit="10" stroke-linecap="round" stroke-linejoin="round"/>
</svg>
