<svg width="60" height="60" viewBox="0 0 60 60" fill="none" xmlns="http://www.w3.org/2000/svg">
<g clip-path="url(#clip0_1319_22108)">
<path d="M4.99447 41.8969L5.3669 45.5003C10.0226 48.7202 18.6062 54.6918 19.8098 55.4663C21.2372 56.3847 23.616 57.9153 25.2647 57.967L46.0702 53.8625L53.3433 57.1968L55.3166 53.0845L46.0039 49.7833L26.847 53.9395C25.2832 54.2788 21.2729 52.1469 20.2193 51.6932L4.99447 41.8969Z" fill="#F7C171"/>
<path d="M20.6426 47.7733L20.9228 47.9565L21.25 47.8855L36.1247 44.6583L38.5162 44.1395L36.28 43.1455L34.8685 42.518C33.2068 41.7794 32.4582 39.8334 33.1965 38.1716C33.9347 36.5098 35.8801 35.7615 37.5416 36.5001L50.7588 42.3752L50.8033 42.395L50.8399 42.4062L51.5383 42.7218L51.5428 42.7237L52.252 43.039L52.2501 43.0433L52.9746 43.3706L56.5787 44.9988C57.4504 45.3926 57.8381 46.4186 57.4446 47.2905L53.156 56.7922L46.3487 53.7169L46.108 53.6082L45.8498 53.6642L28.3278 57.4657C25.5487 58.0687 22.7902 57.4486 20.6102 55.9647L20.5564 55.9281L20.5081 55.9056L6.27901 46.6023C4.68873 45.5625 4.24196 43.43 5.28116 41.8394C6.32024 40.2489 8.45149 39.8024 10.0416 40.842L20.6426 47.7733ZM50.8307 42.402L50.8311 42.4022C50.8309 42.4022 50.8308 42.4021 50.8306 42.402L50.897 42.2553L51.16 41.673L50.8969 42.2554L50.8307 42.402ZM20.5177 55.9119L20.5176 55.9119L20.5177 55.9119Z" stroke="#282832" stroke-width="1.6"/>
<path d="M26.168 29.9255L26.1236 29.6348C26.0252 28.9911 25.6464 28.4241 25.0893 28.0869V28.0869C24.3747 27.6543 23.4766 27.6644 22.7718 28.1129L22.696 28.1611C22.2312 28.4569 21.8856 28.9071 21.7198 29.4325L21.6885 29.5317C21.6148 29.7656 21.5772 30.0095 21.5772 30.2548V30.2548C21.5772 30.6289 21.6645 30.9978 21.8322 31.3323L22.2521 32.1696C22.3342 32.3333 22.398 32.5056 22.4423 32.6834V32.6834C22.7007 33.7194 22.2703 34.805 21.3721 35.3824L20.7788 35.7638V36.2129H26.3676" stroke="#282832" stroke-width="1.6" stroke-linecap="round"/>
<line x1="20.1802" y1="32.1194" x2="24.9706" y2="32.1194" stroke="#282832" stroke-width="1.6"/>
<circle cx="23.6389" cy="32.6389" r="7.83885" stroke="#202020" stroke-width="1.6"/>
<path d="M37.0164 9.04304V9.04304C37.0164 8.21646 36.3463 7.54639 35.5197 7.54639H33.711H32.6496C31.6368 7.54639 30.8079 8.35243 30.7796 9.36483V9.36483C30.7563 10.2001 31.2898 10.9495 32.0866 11.201L36.0209 12.4425C36.6135 12.6295 37.0164 13.1791 37.0164 13.8005V13.8005C37.0164 14.7403 36.2545 15.5023 35.3146 15.5023H34.0994H31.9218C31.2692 15.5023 30.7402 14.9733 30.7402 14.3207V14.3207" stroke="#202020" stroke-width="1.6" stroke-linecap="round"/>
<path d="M33.7495 6L33.7495 17.2364" stroke="#202020" stroke-width="1.6" stroke-linecap="round"/>
<circle cx="33.75" cy="11.25" r="8.2" stroke="#202020" stroke-width="1.6"/>
<circle cx="15" cy="15" r="5.95" stroke="#202020" stroke-width="1.6"/>
<circle cx="43.2291" cy="26.7291" r="5.67914" stroke="#202020" stroke-width="1.6"/>
</g>
<defs>
<clipPath id="clip0_1319_22108">
<rect width="60" height="60" fill="white"/>
</clipPath>
</defs>
</svg>
