<svg width="90" height="90" viewBox="0 0 90 90" fill="none" xmlns="http://www.w3.org/2000/svg">
<path d="M34.5403 75.0403C34.1653 74.6653 33.6566 74.4545 33.1261 74.4545H17.5455C16.4409 74.4545 15.5455 73.5591 15.5455 72.4545V56.8739C15.5455 56.3434 15.3347 55.8347 14.9597 55.4597L5.91421 46.4142C5.13316 45.6332 5.13317 44.3668 5.91421 43.5858L14.9597 34.5403C15.3347 34.1653 15.5455 33.6566 15.5455 33.1261V17.5455C15.5455 16.4409 16.4409 15.5455 17.5455 15.5455H33.1261C33.6566 15.5455 34.1653 15.3347 34.5403 14.9597L43.5858 5.91421C44.3668 5.13316 45.6332 5.13317 46.4142 5.91421L55.4597 14.9597C55.8347 15.3347 56.3434 15.5455 56.8739 15.5455H72.4546C73.5591 15.5455 74.4545 16.4409 74.4545 17.5455V33.1261C74.4545 33.6566 74.6653 34.1653 75.0403 34.5403L84.0858 43.5858C84.8668 44.3668 84.8668 45.6332 84.0858 46.4142L75.0403 55.4597C74.6653 55.8347 74.4545 56.3434 74.4545 56.8739V72.4546C74.4545 73.5591 73.5591 74.4545 72.4545 74.4545H56.8739C56.3434 74.4545 55.8347 74.6653 55.4597 75.0403L46.4142 84.0858C45.6332 84.8668 44.3668 84.8668 43.5858 84.0858L34.5403 75.0403Z" fill="white"/>
<path d="M76.9876 45C75.7833 45 74.6431 45.5426 73.8836 46.4771L67.9869 53.7318C67.4073 54.4449 67.0909 55.3358 67.0909 56.2547V63.0909C67.0909 65.3 65.3 67.0909 63.0909 67.0909H56.2547C55.3358 67.0909 54.4449 67.4073 53.7318 67.9869L47.5229 73.0335C46.0531 74.2282 43.9469 74.2282 42.4771 73.0335L36.2682 67.9869C35.5551 67.4073 34.6642 67.0909 33.7453 67.0909H26.9091C24.7 67.0909 22.9091 65.3 22.9091 63.0909V56.2547C22.9091 55.3358 22.5927 54.4449 22.0131 53.7318L16.1164 46.4771C15.3569 45.5426 14.2167 45 13.0124 45H6.91421C6.02331 45 5.57714 46.0771 6.20711 46.7071L15.5455 56.0455V73.4545C15.5455 74.0068 15.9932 74.4545 16.5455 74.4545H33.9545L44.2929 84.7929C44.6834 85.1834 45.3166 85.1834 45.7071 84.7929L56.0455 74.4545H73.4545C74.0068 74.4545 74.4545 74.0068 74.4545 73.4545V56.0455L85.5 45H76.9876Z" fill="#F7C171"/>
<path d="M31.265 60.6805C30.94 61.5742 31.9284 62.3743 32.7348 61.8703L45 54.2045L57.2651 61.8703C58.0716 62.3743 59.0599 61.5742 58.7349 60.6805L53.7701 47.0287L63.0817 39.4103C63.8091 38.8152 63.3883 37.6364 62.4485 37.6364H50.357L36.2299 47.0287L31.265 60.6805Z" fill="#F7C171"/>
<path d="M34.5403 75.0403C34.1653 74.6653 33.6566 74.4545 33.1261 74.4545H17.5455C16.4409 74.4545 15.5455 73.5591 15.5455 72.4545V56.8739C15.5455 56.3434 15.3347 55.8347 14.9597 55.4597L5.91421 46.4142C5.13316 45.6332 5.13317 44.3668 5.91421 43.5858L14.9597 34.5403C15.3347 34.1653 15.5455 33.6566 15.5455 33.1261V17.5455C15.5455 16.4409 16.4409 15.5455 17.5455 15.5455H33.1261C33.6566 15.5455 34.1653 15.3347 34.5403 14.9597L43.5858 5.91421C44.3668 5.13316 45.6332 5.13317 46.4142 5.91421L55.4597 14.9597C55.8347 15.3347 56.3434 15.5455 56.8739 15.5455H72.4545C73.5591 15.5455 74.4545 16.4409 74.4545 17.5455V33.1261C74.4545 33.6566 74.6653 34.1653 75.0403 34.5403L84.0858 43.5858C84.8668 44.3668 84.8668 45.6332 84.0858 46.4142L75.0403 55.4597C74.6653 55.8347 74.4545 56.3434 74.4545 56.8739V72.4545C74.4545 73.5591 73.5591 74.4545 72.4545 74.4545H56.8739C56.3434 74.4545 55.8347 74.6653 55.4597 75.0403L46.4142 84.0858C45.6332 84.8668 44.3668 84.8668 43.5858 84.0858L34.5403 75.0403Z" stroke="#202020" stroke-width="1.6" stroke-miterlimit="10" stroke-linecap="round" stroke-linejoin="round"/>
<path d="M63.0817 39.4103C63.8091 38.8152 63.3883 37.6363 62.4485 37.6363H51.0574C50.6369 37.6363 50.2614 37.3733 50.1176 36.9782L45.9398 25.4926C45.6206 24.615 44.3795 24.615 44.0602 25.4926L39.8824 36.9782C39.7386 37.3733 39.3631 37.6363 38.9426 37.6363H27.5515C26.6117 37.6363 26.1909 38.8152 26.9183 39.4103L35.6809 46.5795C36.0098 46.8485 36.1327 47.296 35.9875 47.6952L31.2651 60.6805C30.94 61.5742 31.9284 62.3743 32.7348 61.8702L44.47 54.5358C44.7943 54.3331 45.2057 54.3331 45.53 54.5358L57.2652 61.8702C58.0716 62.3743 59.06 61.5742 58.7349 60.6805L54.0125 47.6952C53.8673 47.296 53.9902 46.8485 54.3191 46.5795L63.0817 39.4103Z" stroke="#202020" stroke-width="1.6" stroke-miterlimit="10" stroke-linecap="round" stroke-linejoin="round"/>
</svg>
