<svg width="61" height="60" viewBox="0 0 61 60" fill="none" xmlns="http://www.w3.org/2000/svg">
<g clip-path="url(#clip0_408_8825)">
<path d="M51.0547 28.6957V14.3756C51.0547 11.1906 49.1654 8.309 46.2445 7.03905L31.6496 0.693437C30.6323 0.251144 29.4771 0.251144 28.4598 0.693437L13.8649 7.03905C10.944 8.30899 9.05469 11.1906 9.05469 14.3756V28.6957C6.15519 28.6957 3.80469 31.0462 3.80469 33.9457V35.1379C3.80469 37.5838 5.1898 39.8187 7.38019 40.9071L9.05469 41.7391V45.6244C9.05469 48.8094 10.944 51.691 13.8649 52.961L29.2572 59.6533C29.7659 59.8744 30.3435 59.8744 30.8521 59.6533L46.2445 52.961C49.1654 51.691 51.0547 48.8094 51.0547 45.6244V41.7391L52.7292 40.9071C54.9196 39.8187 56.3047 37.5838 56.3047 35.1379V33.9457C56.3047 31.0462 53.9542 28.6957 51.0547 28.6957Z" fill="white"/>
<path d="M30.0547 0.651733L30.0547 9.65173L33.9922 10.6957L34.1038 10.7977C36.1533 12.6715 37.4894 15.198 37.8845 17.9467L37.9297 18.2609H51.0547L51.0547 13.9561L50.8956 13.4643C50.2267 11.3965 49.0089 9.54922 47.3721 8.11959L45.5422 6.5213L40.2263 4.56478L30.0547 0.651733Z" fill="#F7C171"/>
<path d="M30.0547 60L40.0297 55.8257L45.936 53.0865L49.4797 49.9561L51.0547 46.8257V43.0434L30.0547 37.826" fill="#F7C171"/>
<path d="M51.0547 43.0018C51.0547 47.7793 48.2207 52.1017 43.8394 54.0066L34.8394 57.9197C31.7876 59.2466 28.3218 59.2466 25.27 57.9197L16.27 54.0066C11.8886 52.1017 9.05469 47.7793 9.05469 43.0018V16.9982C9.05469 12.2207 11.8887 7.89828 16.27 5.99335L25.27 2.08031C28.3218 0.753428 31.7876 0.753431 34.8394 2.08031L43.8394 5.99336C48.2207 7.89828 51.0547 12.2207 51.0547 16.9982V43.0018Z" stroke="#202020" stroke-width="1.6" stroke-miterlimit="10" stroke-linecap="round" stroke-linejoin="round"/>
<path d="M9.05469 43.0434V43.0434C9.05469 47.7957 11.8736 52.0952 16.2318 53.99L26.8649 58.6131C28.8994 59.4977 31.21 59.4977 33.2445 58.6131L43.8776 53.99C48.2357 52.0952 51.0547 47.7957 51.0547 43.0434V43.0434L31.9836 38.3053C30.7169 37.9906 29.3925 37.9906 28.1258 38.3053L9.05469 43.0434Z" stroke="#202020" stroke-width="1.6" stroke-miterlimit="10" stroke-linecap="round" stroke-linejoin="round"/>
<path d="M9.05469 28.6957V28.6957C6.15519 28.6957 3.80469 31.0462 3.80469 33.9457V35.1379C3.80469 37.5838 5.1898 39.8187 7.38019 40.9071L9.05469 41.7392" stroke="#202020" stroke-width="1.6" stroke-miterlimit="10" stroke-linecap="round" stroke-linejoin="round"/>
<path d="M51.0547 28.6957V28.6957C53.9542 28.6957 56.3047 31.0462 56.3047 33.9457V35.1379C56.3047 37.5838 54.9196 39.8187 52.7292 40.9071L51.0547 41.7392" stroke="#202020" stroke-width="1.6" stroke-miterlimit="10" stroke-linecap="round" stroke-linejoin="round"/>
<path d="M22.1797 31.3043V33.913" stroke="#202020" stroke-width="1.6" stroke-miterlimit="10" stroke-linecap="round" stroke-linejoin="round"/>
<path d="M37.9297 31.3043V33.913" stroke="#202020" stroke-width="1.6" stroke-miterlimit="10" stroke-linecap="round" stroke-linejoin="round"/>
<path d="M9.05469 18.2609H22.1797" stroke="#202020" stroke-width="1.6" stroke-miterlimit="10" stroke-linecap="round" stroke-linejoin="round"/>
<path d="M37.9297 18.2609H51.0547" stroke="#202020" stroke-width="1.6" stroke-miterlimit="10" stroke-linecap="round" stroke-linejoin="round"/>
<path d="M37.9297 18.5976C37.9297 21.5875 36.2365 24.3195 33.559 25.65V25.65C31.3515 26.7468 28.7579 26.7468 26.5504 25.65V25.65C23.8729 24.3195 22.1797 21.5875 22.1797 18.5976V17.924C22.1797 14.9341 23.8729 12.2021 26.5504 10.8716V10.8716C28.7579 9.77476 31.3515 9.77476 33.559 10.8716V10.8716C36.2365 12.2021 37.9297 14.9341 37.9297 17.924V18.5976Z" stroke="#202020" stroke-width="1.6" stroke-miterlimit="10" stroke-linecap="round" stroke-linejoin="round"/>
<path d="M31.8057 16.312C30.7341 15.247 29.0037 15.247 27.9321 16.312V16.312C26.8509 17.3864 26.8509 19.1354 27.9321 20.2098V20.2098C29.0037 21.2748 30.7341 21.2747 31.8057 20.2098V20.2098C32.8867 19.1354 32.8867 17.3864 31.8057 16.312V16.312Z" stroke="#202020" stroke-width="1.6" stroke-miterlimit="10" stroke-linecap="round" stroke-linejoin="round"/>
</g>
<defs>
<clipPath id="clip0_408_8825">
<rect width="60" height="60" fill="white" transform="translate(0.0546875)"/>
</clipPath>
</defs>
</svg>
