<svg width="61" height="60" viewBox="0 0 61 60" fill="none" xmlns="http://www.w3.org/2000/svg">
<path d="M50.9009 9.13636V4.5H34.4661V11.4545H3.94434V48.5455H50.9009V18.4091V13.7727L55.3191 15.2269C56.6127 15.6526 57.9443 14.689 57.9443 13.3271V9.58197C57.9443 8.22004 56.6127 7.25644 55.3191 7.68222L50.9009 9.13636Z" fill="white"/>
<path d="M32.1183 48.5454V50.8636L33.469 51.9305C34.9574 53.1062 34.1261 55.5 32.2293 55.5H22.616C20.7192 55.5 19.8879 53.1062 21.3763 51.9305L22.727 50.8636V48.5454" fill="white"/>
<path d="M37.9433 11.4546C36.0229 11.4546 34.4661 13.0114 34.4661 14.9319C34.4661 16.8523 36.0229 18.4091 37.9433 18.4091H48.9543C50.0294 18.4091 50.9008 17.5377 50.9008 16.4626C50.9008 15.1371 52.1968 14.1993 53.4559 14.6137L55.3893 15.25C56.6483 15.6644 57.9443 14.7266 57.9443 13.4011C57.9443 12.3261 57.0728 11.4546 55.9978 11.4546H37.9433Z" fill="#F7C171"/>
<path d="M42.4118 18.4091C40.88 18.4091 39.3803 18.8489 38.0911 19.6762L31.2765 24.0493C30.338 24.6517 29.7704 25.6902 29.7704 26.8055C29.7704 28.0518 29.0629 29.1902 27.9453 29.7419L23.8687 31.7545C23.149 32.1098 22.3049 32.1096 21.5854 31.7541C20.7743 31.3532 19.8124 31.407 19.051 31.8956L6.67203 39.8403C5.87327 40.3529 6.23635 41.5909 7.18546 41.5909H8.99709C10.0965 41.5909 10.9878 40.6996 10.9878 39.6001C10.9878 38.7185 11.5678 37.9418 12.4131 37.6914L20.4548 35.3094C21.9377 34.8701 23.5162 34.8701 24.9991 35.3094L33.0407 37.6914C33.8861 37.9418 34.4661 38.7185 34.4661 39.6001C34.4661 40.6996 35.3574 41.5909 36.4568 41.5909H50.9009V18.4091H42.4118Z" fill="#F7C171"/>
<path d="M29.7706 26.3547C29.7706 27.8771 28.9064 29.2675 27.5413 29.9414L24.4978 31.4439C23.3816 31.995 22.0725 31.995 20.9564 31.4439L17.9129 29.9414C16.5478 29.2675 15.6836 27.8771 15.6836 26.3547V19.5681L20.9564 16.965C22.0725 16.414 23.3816 16.414 24.4978 16.965L27.5413 18.4675C28.9064 19.1415 29.7706 20.5319 29.7706 22.0542V26.3547Z" fill="white"/>
<path d="M34.4661 41.591V41.1007C34.4661 39.3291 33.3007 37.7686 31.6021 37.2654L23.863 34.973C23.1215 34.7534 22.3323 34.7534 21.5909 34.973L13.8517 37.2654C12.1531 37.7686 10.9878 39.3291 10.9878 41.1007V41.591" stroke="#202020" stroke-width="1.6" stroke-miterlimit="10" stroke-linecap="round" stroke-linejoin="round"/>
<path d="M29.7706 23.0454H23.745C22.3102 23.0454 20.9018 22.6595 19.6674 21.9282L15.6836 19.5681L21.8417 16.5279C22.3998 16.2524 23.0543 16.2524 23.6124 16.5279L29.7706 19.5681V23.0454Z" fill="#F7C171"/>
<path d="M29.7706 26.3547C29.7706 27.8771 28.9064 29.2675 27.5413 29.9414L24.4978 31.4439C23.3816 31.995 22.0725 31.995 20.9564 31.4439L17.9129 29.9414C16.5478 29.2675 15.6836 27.8771 15.6836 26.3547V19.5681L20.9564 16.965C22.0725 16.414 23.3816 16.414 24.4978 16.965L27.5413 18.4675C28.9064 19.1415 29.7706 20.5319 29.7706 22.0542V26.3547Z" stroke="#202020" stroke-width="1.6" stroke-miterlimit="10" stroke-linecap="round" stroke-linejoin="round"/>
<path d="M50.9009 25.3637V44.5455C50.9009 46.7546 49.11 48.5455 46.9009 48.5455H7.94434C5.7352 48.5455 3.94434 46.7546 3.94434 44.5455V15.4546C3.94434 13.2454 5.7352 11.4546 7.94434 11.4546H27.4226" stroke="#202020" stroke-width="1.6" stroke-miterlimit="10" stroke-linecap="round" stroke-linejoin="round"/>
<path d="M3.94434 41.5909H50.9009" stroke="#202020" stroke-width="1.6" stroke-miterlimit="10" stroke-linecap="round" stroke-linejoin="round"/>
<path d="M32.1183 48.5454V49.8947C32.1183 50.5066 32.3984 51.0849 32.8786 51.4642L33.469 51.9305C34.9574 53.1062 34.1261 55.5 32.2293 55.5H22.616C20.7192 55.5 19.8879 53.1062 21.3763 51.9305L21.9667 51.4642C22.4469 51.0849 22.727 50.5066 22.727 49.8947V48.5454" stroke="#202020" stroke-width="1.6" stroke-miterlimit="10" stroke-linecap="round" stroke-linejoin="round"/>
<path d="M57.9443 9.58197C57.9443 8.22004 56.6127 7.25644 55.3191 7.68222L53.4559 8.29544C52.1968 8.70983 50.9008 7.772 50.9008 6.4465V6.4465C50.9008 5.37148 50.0294 4.5 48.9543 4.5H36.4661C35.3615 4.5 34.4661 5.39543 34.4661 6.5V16.4091C34.4661 17.5137 35.3615 18.4091 36.4661 18.4091H48.9543C50.0294 18.4091 50.9008 17.5376 50.9008 16.4626V16.4626C50.9008 15.1371 52.1968 14.1993 53.4559 14.6137L55.3191 15.2269C56.6127 15.6526 57.9443 14.689 57.9443 13.3271V9.58197Z" stroke="#202020" stroke-width="1.6" stroke-miterlimit="10" stroke-linecap="round" stroke-linejoin="round"/>
</svg>
