<svg width="60" height="60" fill="none" xmlns="http://www.w3.org/2000/svg"><g clip-path="url(#a)"><path d="M39.165 58.124v-3a5.1 5.1 0 0 1 5.085-5.1 5.1 5.1 0 0 0 5.1-5.1v-4.92a2.933 2.933 0 0 1 2.933-2.932 2.932 2.932 0 0 0 2.632-4.23l-4.627-9.435a9 9 0 0 1-.923-3.975v-.75a9 9 0 0 0-4.177-7.582l-11.67-7.41a9 9 0 0 0-9.255-.24L10.59 11.166A9 9 0 0 0 6 19.005v15.322a9 9 0 0 0 3 6.75l4.163 3.698a8.998 8.998 0 0 1 3 6.75v6.6h23.002Z" fill="#fff"/><path d="M25.92 30.953h-7.215v7.215h7.215v-7.215Z" fill="#F7C171"/><path d="M10.882 11.19v21.923a6 6 0 0 0 2.018 4.5l6.172 5.482a6 6 0 0 1 2.01 4.5l.24 8.01a2.55 2.55 0 0 1-2.572 2.52H16.2l-.24-7.965a5.998 5.998 0 0 0-2.01-4.5L7.8 40.185a6 6 0 0 1-2.018-4.5V17.288a6 6 0 0 1 3.053-5.25l2.415-1.343" fill="#F7C171"/><path d="M38.932 57.54v-2.385a5.093 5.093 0 0 1 5.1-5.1v0a5.092 5.092 0 0 0 5.1-5.1v-4.92a2.933 2.933 0 0 1 2.933-2.933 2.932 2.932 0 0 0 2.632-4.23l-4.642-9.435a9 9 0 0 1-.923-3.937v-.75a8.999 8.999 0 0 0-4.177-7.598L33.285 3.75a9 9 0 0 0-9.248-.24l-13.68 7.687a9 9 0 0 0-4.575 7.838v15.322a9 9 0 0 0 3 6.75l4.155 3.698a9 9 0 0 1 3 6.75v6" stroke="#000" stroke-width="1.6" stroke-linecap="square" stroke-linejoin="round"/><path d="M29.265 14.685h7.387M26.04 11.002h-7.215v7.215h7.215v-7.215Z" stroke="#000" stroke-width="1.6" stroke-linecap="round" stroke-linejoin="round"/><path d="m20.775 14.782 1.35 1.133 2.063-2.558M29.265 24.652h7.387" stroke="#000" stroke-width="1.6" stroke-linecap="round" stroke-linejoin="round"/><path d="M26.04 20.977h-7.215v7.215h7.215v-7.215Z" stroke="#000" stroke-width="1.5" stroke-linecap="round" stroke-linejoin="round"/><path d="m20.775 24.757 1.35 1.132 2.063-2.565M29.265 34.627h7.387M26.04 30.953h-7.215v7.215h7.215v-7.215Z" stroke="#000" stroke-width="1.6" stroke-linecap="round" stroke-linejoin="round"/></g><defs><clipPath id="a"><path fill="#fff" d="M0 0h60v60H0z"/></clipPath></defs></svg>