<svg width="90" height="90" viewBox="0 0 90 90" fill="none" xmlns="http://www.w3.org/2000/svg">
<path d="M79.875 33.246C79.875 31.0402 78.0892 29.2507 75.8834 29.246L34.5375 29.1593V18.5871L23.92 13.992C22.9063 13.5533 21.7562 13.5533 20.7425 13.992L12.5363 17.5435C11.0725 18.177 10.125 19.6195 10.125 21.2145V77.5901C10.125 79.185 11.0725 80.6276 12.5363 81.261L20.7425 84.8125C21.7562 85.2512 22.9063 85.2512 23.92 84.8125L34.5375 80.2175V78.4566H75.875C78.0841 78.4566 79.875 76.6658 79.875 74.4566V33.246Z" fill="white"/>
<path d="M22.3313 13.3044L34.5375 18.5871V80.2175L22.3313 85.5001V13.3044Z" fill="#F7C171"/>
<path d="M69.4125 40.1957C69.4125 37.9865 67.6216 36.1957 65.4125 36.1957H45.5124C43.3033 36.1957 41.5125 37.9865 41.5125 40.1957V42.7644C41.5125 44.9736 43.3033 46.7644 45.5125 46.7644H65.4125C67.6216 46.7644 69.4125 44.9736 69.4125 42.7644V40.1957Z" fill="#F7C171"/>
<path d="M34.5375 77.5901C34.5375 79.185 33.59 80.6276 32.1262 81.261L23.92 84.8125C22.9063 85.2512 21.7562 85.2512 20.7425 84.8125L12.5363 81.261C11.0725 80.6276 10.125 79.185 10.125 77.5901V21.2145C10.125 19.6195 11.0725 18.177 12.5363 17.5435L20.7425 13.992C21.7563 13.5533 22.9063 13.5533 23.92 13.992L32.1262 17.5435C33.59 18.177 34.5375 19.6195 34.5375 21.2145V77.5901Z" stroke="#202020" stroke-width="1.6" stroke-miterlimit="10" stroke-linecap="round" stroke-linejoin="round"/>
<path d="M34.7432 29.1522L75.884 29.2453C78.0896 29.2503 79.875 31.0397 79.875 33.2453V74.4566C79.875 76.6657 78.0841 78.4566 75.875 78.4566H34.5375" stroke="#202020" stroke-width="1.6" stroke-linecap="round" stroke-linejoin="round"/>
<path d="M43.875 65.8125L45.5627 64.125L47.25 65.8125L45.5627 67.5L43.875 65.8125Z" fill="#202020" stroke="#202020" stroke-linecap="round" stroke-linejoin="round"/>
<path d="M54 65.8125L55.6877 64.125L57.375 65.8125L55.6877 67.5L54 65.8125Z" fill="#202020" stroke="#202020" stroke-linecap="round" stroke-linejoin="round"/>
<path d="M64.125 65.8125L65.8126 64.125L67.5 65.8125L65.8126 67.5L64.125 65.8125Z" fill="#202020" stroke="#202020" stroke-linecap="round" stroke-linejoin="round"/>
<path d="M64.125 55.6875L65.8126 54L67.5 55.6875L65.8126 57.375L64.125 55.6875Z" fill="#202020" stroke="#202020" stroke-linecap="round" stroke-linejoin="round"/>
<path d="M54 55.6875L55.6877 54L57.375 55.6875L55.6877 57.375L54 55.6875Z" fill="#202020" stroke="#202020" stroke-linecap="round" stroke-linejoin="round"/>
<path d="M43.875 55.6875L45.5627 54L47.25 55.6875L45.5627 57.375L43.875 55.6875Z" fill="#202020" stroke="#202020" stroke-linecap="round" stroke-linejoin="round"/>
<path d="M13.6123 17.0761V4.5" stroke="#202020" stroke-width="1.6" stroke-miterlimit="10" stroke-linecap="round" stroke-linejoin="round"/>
<path d="M69.4125 40.2979C69.4125 38.0887 67.6216 36.2979 65.4125 36.2979H45.5124C43.3033 36.2979 41.5125 38.0887 41.5125 40.2979V42.8668C41.5125 45.0759 43.3033 46.8668 45.5125 46.8668H65.4125C67.6216 46.8668 69.4125 45.0759 69.4125 42.8668V40.2979Z" stroke="#202020" stroke-width="1.6" stroke-miterlimit="10" stroke-linecap="round" stroke-linejoin="round"/>
</svg>
