<svg width="61" height="60" viewBox="0 0 61 60" fill="none" xmlns="http://www.w3.org/2000/svg">
<path d="M54.875 43.5L30.5 57L6.125 43.5V16.5L30.5 3L54.875 16.5V43.5Z" fill="white"/>
<path d="M52.1396 41.728C50.8606 40.5864 48.9963 40.3868 47.5046 41.2317L32.4714 49.747C31.2484 50.4398 29.7516 50.4398 28.5286 49.747L13.4954 41.2317C12.0037 40.3868 10.1394 40.5864 8.8604 41.728L6.875 43.5001L28.5154 55.866C29.7452 56.5687 31.2548 56.5687 32.4846 55.866L54.125 43.5001L52.1396 41.728Z" fill="#F7C171"/>
<path d="M30.3271 39.8552L26.7078 43.5L30.3271 47.1447L33.9466 43.5L30.3271 39.8552Z" fill="#F7C171"/>
<path d="M31.7188 34.9091H29.2812L26.8438 15.2727H34.1562L31.7188 34.9091Z" fill="#F7C171"/>
<path d="M54.875 38.7857C54.875 41.6948 53.2958 44.3746 50.751 45.7841L34.376 54.8533C31.9646 56.1889 29.0354 56.1889 26.624 54.8533L10.249 45.7841C7.70417 44.3746 6.125 41.6948 6.125 38.7857V21.2143C6.125 18.3052 7.70416 15.6254 10.249 14.2159L26.624 5.14671C29.0354 3.81115 31.9646 3.81115 34.376 5.14671L50.751 14.2159C53.2958 15.6254 54.875 18.3052 54.875 21.2143V38.7857Z" stroke="#202020" stroke-width="1.6" stroke-miterlimit="10" stroke-linecap="round" stroke-linejoin="round"/>
<path d="M31.0367 40.5698C30.6456 40.1759 30.0086 40.1759 29.6176 40.5698L27.4075 42.7953C27.0203 43.1853 27.0203 43.8147 27.4075 44.2046L29.6176 46.4302C30.0086 46.824 30.6456 46.824 31.0367 46.4302L33.2468 44.2046C33.6341 43.8147 33.6341 43.1853 33.2468 42.7953L31.0367 40.5698Z" stroke="#202020" stroke-width="1.6" stroke-miterlimit="10" stroke-linecap="round" stroke-linejoin="round"/>
<path d="M31.8276 34.0323C31.7654 34.5331 31.3399 34.9091 30.8352 34.9091H30.1648C29.6601 34.9091 29.2346 34.5331 29.1724 34.0323L26.9832 16.3959C26.9091 15.7993 27.3744 15.2727 27.9756 15.2727H33.0244C33.6256 15.2727 34.0909 15.7993 34.0168 16.3959L31.8276 34.0323Z" stroke="#202020" stroke-width="1.6" stroke-miterlimit="10" stroke-linecap="round" stroke-linejoin="round"/>
</svg>
