<svg width="90" height="90" viewBox="0 0 90 90" fill="none" xmlns="http://www.w3.org/2000/svg">
<path d="M81 65.4643H24.6522L15.8178 74.2329C13.2937 76.7382 9 74.9503 9 71.3939V15.75H81V65.4643Z" fill="white"/>
<path d="M21.5217 59.25L9 71.6786C9 75.1296 13.1665 76.8645 15.6158 74.4334L24.6522 65.4643H81V59.25H21.5217Z" fill="#F7C171"/>
<path d="M27.7825 37.5L23.0861 42.163L27.7819 46.8221L32.4782 42.1592L27.7825 37.5Z" fill="#F7C171"/>
<path d="M46.5674 37.4992L41.8711 42.1622L46.5667 46.8214L51.263 42.1584L46.5674 37.4992Z" fill="#F7C171"/>
<path d="M65.3479 37.503L60.6538 42.1638L65.3495 46.8231L70.0435 42.1622L65.3479 37.503Z" fill="#F7C171"/>
<path d="M29.1916 38.8982C28.4117 38.1243 27.1535 38.1245 26.3738 38.8987L24.516 40.7433C23.728 41.5256 23.7283 42.8002 24.5165 43.5822L26.3728 45.424C27.1527 46.1978 28.4109 46.1976 29.1906 45.4235L31.0483 43.5789C31.8363 42.7966 31.8361 41.522 31.0478 40.7399L29.1916 38.8982Z" stroke="#202020" stroke-width="1.6" stroke-miterlimit="10" stroke-linecap="round" stroke-linejoin="round"/>
<path d="M47.9765 38.8974C47.1966 38.1235 45.9384 38.1238 45.1587 38.8979L43.3009 40.7425C42.513 41.5249 42.5132 42.7993 43.3014 43.5814L45.1576 45.4232C45.9375 46.1971 47.1957 46.1969 47.9754 45.4227L49.8332 43.5781C50.6211 42.7957 50.6209 41.5213 49.8327 40.7392L47.9765 38.8974Z" stroke="#202020" stroke-width="1.6" stroke-miterlimit="10" stroke-linecap="round" stroke-linejoin="round"/>
<path d="M66.7571 38.9012C65.9771 38.1273 64.7189 38.1275 63.9392 38.9017L62.0836 40.7441C61.2957 41.5265 61.2959 42.801 62.0841 43.5831L63.9403 45.4248C64.7202 46.1987 65.9785 46.1985 66.7582 45.4243L68.6137 43.5819C69.4017 42.7995 69.4014 41.5251 68.6132 40.743L66.7571 38.9012Z" stroke="#202020" stroke-width="1.6" stroke-miterlimit="10" stroke-linecap="round" stroke-linejoin="round"/>
<path d="M81 61.4643C81 63.6734 79.2091 65.4643 77 65.4643H26.3003C25.2446 65.4643 24.2317 65.8816 23.4824 66.6253L15.8178 74.2329C13.2937 76.7382 9 74.9503 9 71.3939V19.75C9 17.5409 10.7909 15.75 13 15.75H77C79.2091 15.75 81 17.5409 81 19.75V61.4643Z" stroke="#202020" stroke-width="1.6" stroke-miterlimit="10" stroke-linecap="round" stroke-linejoin="round"/>
</svg>
