<svg width="81" height="80" viewBox="0 0 81 80" fill="none" xmlns="http://www.w3.org/2000/svg">
<g clip-path="url(#clip0_3481_30013)">
<path d="M40.5 11C40.5 11 37.2912 11.6504 36.1364 13.6339L8.56073 59.9911C7.99812 60.9592 7.50091 62.5607 7.5 63.6786C7.49909 64.7965 7.9997 66.397 8.56073 67.3661C9.12177 68.3351 9.70871 68.9119 10.6818 69.4732C11.6549 70.0345 13.8349 69.9964 14.9601 70H40.5V11Z" fill="#F7C171"/>
<path d="M72.6474 60.4326L45.9905 14.1899C45.4345 13.2204 44.6333 12.415 43.6676 11.8549C42.7019 11.2949 41.606 11 40.4903 11C39.3746 11 38.2787 11.2949 37.313 11.8549C36.3474 12.415 35.5461 13.2204 34.9901 14.1899L8.35257 60.4326C7.79491 61.4007 7.5009 62.4987 7.5 63.6166C7.4991 64.7345 7.79134 65.833 8.34743 66.802C8.90352 67.771 9.70394 68.5765 10.6685 69.1378C11.633 69.6991 12.7278 69.9964 13.8431 70H67.1376C68.2545 69.9998 69.3517 69.705 70.3189 69.1451C71.2862 68.5852 72.0893 67.78 72.6477 66.8104C73.2061 65.8408 73.5 64.741 73.5 63.6214C73.5 62.5019 73.2059 61.4021 72.6474 60.4326V60.4326Z" stroke="#202020" stroke-width="1.6" stroke-linecap="square" stroke-linejoin="round"/>
<path d="M40.5 24L40.5 50" stroke="#202020" stroke-width="1.6" stroke-linecap="round" stroke-linejoin="round"/>
<path d="M40.4838 58.9999C40.0863 58.9967 39.6989 58.8751 39.3708 58.6507C39.0427 58.4263 38.789 58.1092 38.6419 57.74C38.4949 57.3707 38.4612 56.966 38.5451 56.5775C38.6291 56.189 38.8269 55.8343 39.1134 55.5588C39.3998 55.2832 39.7618 55.0992 40.1533 55.0303C40.5447 54.9614 40.9478 55.0107 41.3111 55.1719C41.6745 55.3331 41.9815 55.5989 42.1931 55.9354C42.4047 56.2718 42.5112 56.6637 42.4991 57.061C42.4831 57.5834 42.2633 58.0789 41.8867 58.4412C41.51 58.8036 41.0065 59.0042 40.4838 58.9999Z" fill="#202020"/>
</g>
<defs>
<clipPath id="clip0_3481_30013">
<rect width="80" height="80" fill="white" transform="translate(0.5)"/>
</clipPath>
</defs>
</svg>
