<svg width="175" height="35" viewBox="0 0 175 35" fill="none" xmlns="http://www.w3.org/2000/svg">
<path d="M42.3999 28.3762V6.56898C42.3999 6.2864 42.6444 6.04688 42.9292 6.04688H56.983C57.3376 6.04688 57.5391 6.32407 57.5391 6.60396V9.98687C57.5391 10.3475 57.3242 10.587 56.9561 10.587H47.5636V15.3613H54.9438C55.2394 15.3613 55.4677 15.6143 55.4677 15.8726C55.4677 16.018 55.4677 15.8995 55.4677 15.8995V19.4305C55.4677 19.6054 55.2528 19.8638 55.062 19.8638H47.5636V28.3493C47.5636 28.6561 47.3326 28.9091 47.0505 28.9091H42.905C42.6283 28.9091 42.3999 28.6615 42.3999 28.3762Z" fill="white"/>
<path d="M66.147 29.1888C63.7586 29.1888 61.757 28.4137 60.1048 26.8312C58.4525 25.2488 57.6465 23.1711 57.6465 20.6387C57.6465 18.1062 58.4552 16.0662 60.1048 14.4811C61.7544 12.8986 63.7586 12.1235 66.147 12.1235C68.5354 12.1235 70.537 12.8986 72.1893 14.4811C73.8389 16.0635 74.6825 18.1035 74.6825 20.6387C74.6825 23.1738 73.8389 25.2488 72.1893 26.8312C70.5397 28.4137 68.5354 29.1888 66.147 29.1888ZM69.8707 20.6387C69.8707 18.4937 68.2211 16.9086 66.147 16.9086C64.0729 16.9086 62.4583 18.491 62.4583 20.6387C62.4583 22.8912 64.0729 24.4037 66.147 24.4037C68.2211 24.4037 69.8707 22.8912 69.8707 20.6387Z" fill="white"/>
<path d="M91.8313 16.0043C91.4014 16.3165 89.1688 17.9232 88.8733 18.1277C88.5777 18.3323 88.1882 18.1331 88.0673 17.9932C87.3795 17.21 86.4445 16.8036 85.2544 16.8036C84.1663 16.8036 83.2179 17.1562 82.4092 17.8936C81.6005 18.5987 81.1814 19.511 81.1814 20.6387C81.1814 21.7663 81.6032 22.7513 82.4092 23.4887C83.2179 24.2261 84.1663 24.5786 85.2544 24.5786C86.415 24.5786 87.3365 24.1938 88.0189 23.4429C88.1613 23.2868 88.5885 23.0419 88.9404 23.2949C89.2924 23.5479 91.5868 25.1519 91.8957 25.3914C92.2047 25.6309 92.1563 26.0561 92.0328 26.2069C90.4557 28.1392 87.9921 29.2587 85.2544 29.2587C82.831 29.2587 80.7247 28.4487 78.9676 26.8312C77.2106 25.2138 76.332 23.1361 76.332 20.6387C76.332 18.1412 77.2106 16.1012 78.9676 14.5161C80.7247 12.9336 82.831 12.1235 85.2544 12.1235C87.9518 12.1235 90.41 13.2081 92.014 15.127C92.1429 15.2804 92.2611 15.6894 91.8313 16.0043Z" fill="white"/>
<path d="M106.003 12.4761H109.77C110.111 12.4761 110.334 12.7264 110.334 12.9847V28.3868C110.334 28.7205 110.009 28.9089 109.859 28.9089H105.944C105.716 28.9089 105.45 28.6801 105.45 28.4056V26.6563C104.606 28.2387 102.852 29.2614 101.2 29.2614C97.3712 29.2614 94.7007 26.7989 94.7007 22.2938V12.9874C94.7007 12.7721 94.8941 12.4761 95.195 12.4761H99.0745C99.4131 12.4761 99.5823 12.8098 99.5823 13.0628V21.2361C99.5823 23.5936 101.057 24.5087 102.497 24.5087C104.182 24.5087 105.447 23.4537 105.447 21.1661V13.0251C105.447 12.791 105.619 12.4761 106.001 12.4761H106.003Z" fill="white"/>
<path d="M118.201 22.1514C115.918 21.5539 114.408 20.6039 113.846 19.5113C113.32 18.3863 113.25 17.8239 113.285 16.8012C113.32 15.5686 113.954 14.5136 115.216 13.5636C116.479 12.6136 117.957 12.1211 119.676 12.1211C121.538 12.1211 123.118 12.5786 124.418 13.4586C125.546 14.223 126.199 15.3587 126.374 16.8631C126.401 17.0918 126.304 17.5736 125.842 17.5736H122.406C121.855 17.5736 121.777 17.1699 121.713 17.0057C121.487 16.4298 120.915 16.1311 119.961 16.1311C118.873 16.1311 118.204 16.6236 118.239 17.3637C118.274 17.9611 118.765 18.3486 119.679 18.5936L122.454 19.3336C123.685 19.6512 124.633 20.1787 125.334 20.8461C126.774 22.2187 126.914 23.1337 126.914 24.1187C126.914 25.7738 126.21 27.0387 124.77 27.9187C123.365 28.7988 121.715 29.2563 119.819 29.2563C118.027 29.2563 116.412 28.7638 115.042 27.7438C113.849 26.8557 113.188 25.6715 113.013 24.2398C112.989 24.0299 113.062 23.5912 113.612 23.5912H116.828C117.419 23.5912 117.591 23.9868 117.677 24.1725C118.018 24.9072 118.921 25.4912 119.958 25.4912C121.081 25.4562 121.96 24.9288 121.96 24.1187C121.96 23.4136 121.503 23.0287 120.345 22.7112L118.201 22.1487V22.1514Z" fill="white"/>
<path d="M144.189 26.3979C142.654 28.2953 140.279 29.2587 137.064 29.2587C134.64 29.2587 132.604 28.4487 130.951 26.8662C129.299 25.2488 128.493 23.1711 128.493 20.6387C128.493 18.1062 129.302 16.0662 130.951 14.4811C132.601 12.8986 134.64 12.1235 137.064 12.1235C139.487 12.1235 141.454 12.9336 143.036 14.551C144.651 16.1335 145.459 18.2111 145.459 20.7786C145.459 21.0854 145.443 21.4084 145.422 21.7555C145.411 21.9278 145.328 22.2911 144.86 22.2911H133.377C133.622 24.0861 135.484 25.0362 137.418 25.0362C138.753 25.0362 139.815 24.6594 140.599 23.9247C140.742 23.7901 141.212 23.634 141.437 23.7847C141.663 23.9354 143.82 25.4156 144.078 25.5906C144.414 25.822 144.317 26.2392 144.194 26.3926L144.189 26.3979ZM140.54 19.2311C140.048 15.5011 134.218 15.4661 133.445 19.2311H140.54Z" fill="white"/>
<path d="M163.941 28.909H160.287C159.707 28.909 159.72 28.3492 159.72 28.3492V26.869C158.911 28.3815 157.015 29.2616 154.908 29.2616C152.802 29.2616 150.868 28.4865 149.288 26.904C147.743 25.3216 146.969 23.2439 146.969 20.7464C146.969 18.249 147.743 16.1013 149.288 14.5189C150.868 12.9364 152.729 12.1264 154.908 12.1264C157.087 12.1264 158.914 13.0414 159.72 14.4839V5.34709C159.72 5.34709 159.688 4.92188 160.174 4.92188H164.129C164.577 4.92188 164.567 5.40361 164.567 5.40361V28.3088C164.567 28.3088 164.596 28.9063 163.941 28.9063V28.909ZM155.822 16.7338C153.715 16.7338 152.028 18.3512 152.028 20.6388C152.028 22.9263 153.715 24.6164 155.822 24.6164C157.928 24.6164 159.615 22.9263 159.615 20.6388C159.615 18.3512 157.931 16.7338 155.822 16.7338Z" fill="white"/>
<path d="M170.819 29.2617C169.131 29.2617 167.799 27.9941 167.799 26.3067C167.799 24.6193 169.134 23.3867 170.819 23.3867C172.503 23.3867 173.873 24.6543 173.873 26.3067C173.873 27.9592 172.503 29.2617 170.819 29.2617Z" fill="white"/>
<path d="M169.03 9.10199C168.424 9.10199 167.924 8.91278 167.529 8.53437C167.135 8.15332 166.938 7.677 166.938 7.10541V6.80771C166.938 6.26259 167.138 5.80346 167.537 5.43035C167.937 5.05458 168.434 4.8667 169.03 4.8667C169.62 4.8667 170.113 5.0559 170.51 5.43432C170.91 5.81008 171.11 6.26788 171.11 6.80771V7.10541C171.11 7.677 170.913 8.15332 170.518 8.53437C170.127 8.91278 169.631 9.10199 169.03 9.10199ZM170.717 7.10541V6.80771C170.717 6.37108 170.555 6.00458 170.233 5.7082C169.91 5.41182 169.509 5.26363 169.03 5.26363C168.71 5.26363 168.42 5.33244 168.161 5.47004C167.904 5.60764 167.703 5.7942 167.557 6.02972C167.414 6.26259 167.343 6.52192 167.343 6.80771V7.10541C167.343 7.5685 167.502 7.95088 167.819 8.25255C168.137 8.55422 168.539 8.70506 169.026 8.70506C169.513 8.70506 169.916 8.55422 170.237 8.25255C170.557 7.95088 170.717 7.5685 170.717 7.10541ZM168.685 6.20437V6.89106H169.022C169.318 6.89106 169.466 6.77463 169.466 6.54176C169.466 6.43327 169.431 6.34991 169.359 6.29169C169.288 6.23348 169.194 6.20437 169.077 6.20437H168.685ZM168.685 7.97073H168.296V5.91461H169.228C169.411 5.91461 169.562 5.97415 169.681 6.09323C169.803 6.20966 169.863 6.35388 169.863 6.52589C169.863 6.67407 169.825 6.80374 169.748 6.91488C169.672 7.02338 169.572 7.09482 169.451 7.12923L169.923 7.97073H169.459L169.054 7.17686H168.685V7.97073Z" fill="white"/>
<path fill-rule="evenodd" clip-rule="evenodd" d="M17.4999 6.3636C11.3495 6.3636 6.3636 11.3495 6.3636 17.4999C6.3636 18.2008 6.428 18.8854 6.55104 19.5484C6.87166 21.2761 6.3023 23.1977 4.73687 23.9961C3.17144 24.7945 1.22357 24.1758 0.723021 22.4913C0.25239 20.9075 0 19.2315 0 17.4999C0 7.83498 7.83498 0 17.4999 0C27.1648 0 34.9998 7.83498 34.9998 17.4999C34.9998 19.2315 34.7474 20.9075 34.2768 22.4913C33.7762 24.1758 31.8284 24.7945 30.2629 23.9961C28.6975 23.1977 28.1282 21.2761 28.4488 19.5484C28.5718 18.8854 28.6362 18.2008 28.6362 17.4999C28.6362 11.3495 23.6503 6.3636 17.4999 6.3636Z" fill="white"/>
<path d="M11.8661 27.1088C13.5191 28.0805 15.4436 28.6362 17.4999 28.6362C19.5563 28.6362 21.4808 28.0805 23.1338 27.1088C24.6487 26.2183 26.6492 26.1062 27.9289 27.3104C29.2086 28.5147 29.2831 30.5567 27.8681 31.5987C24.9673 33.7347 21.3798 34.9998 17.4999 34.9998C13.62 34.9998 10.0326 33.7347 7.13178 31.5987C5.71676 30.5567 5.79131 28.5147 7.07102 27.3104C8.35073 26.1062 10.3512 26.2183 11.8661 27.1088Z" fill="#F4950A"/>
<ellipse cx="17.5799" cy="17.4203" rx="7.19174" ry="7.19174" fill="#F4950A"/>
</svg>
