<svg width="109" height="22" viewBox="0 0 109 22" fill="none" xmlns="http://www.w3.org/2000/svg">
<path d="M1.75073 19.7694V2.3163C1.75073 2.09014 1.94674 1.89844 2.17505 1.89844H13.4421C13.7265 1.89844 13.888 2.12029 13.888 2.3443V5.05176C13.888 5.34038 13.7157 5.53208 13.4206 5.53208H5.89054V9.35311H11.8073C12.0442 9.35311 12.2273 9.55557 12.2273 9.76235C12.2273 9.87866 12.2273 9.78389 12.2273 9.78389V12.6098C12.2273 12.7498 12.055 12.9566 11.9021 12.9566H5.89054V19.7479C5.89054 19.9934 5.7053 20.1959 5.47914 20.1959H2.15567C1.93381 20.1959 1.75073 19.9977 1.75073 19.7694Z" fill="#202020"/>
<path d="M20.7893 20.4196C18.8745 20.4196 17.2698 19.7993 15.9452 18.5328C14.6205 17.2663 13.9744 15.6035 13.9744 13.5767C13.9744 11.5499 14.6227 9.91719 15.9452 8.64854C17.2677 7.38204 18.8745 6.76172 20.7893 6.76172C22.7041 6.76172 24.3088 7.38204 25.6335 8.64854C26.956 9.91504 27.6323 11.5477 27.6323 13.5767C27.6323 15.6057 26.956 17.2663 25.6335 18.5328C24.311 19.7993 22.7041 20.4196 20.7893 20.4196ZM23.7746 13.5767C23.7746 11.86 22.4521 10.5914 20.7893 10.5914C19.1265 10.5914 17.832 11.8579 17.832 13.5767C17.832 15.3795 19.1265 16.59 20.7893 16.59C22.4521 16.59 23.7746 15.3795 23.7746 13.5767Z" fill="#202020"/>
<path d="M41.3807 9.86765C41.0361 10.1175 39.2462 11.4034 39.0093 11.5671C38.7723 11.7308 38.46 11.5714 38.3631 11.4594C37.8117 10.8326 37.0621 10.5074 36.108 10.5074C35.2356 10.5074 34.4753 10.7895 33.827 11.3797C33.1786 11.944 32.8426 12.6742 32.8426 13.5767C32.8426 14.4792 33.1808 15.2675 33.827 15.8577C34.4753 16.4478 35.2356 16.73 36.108 16.73C37.0384 16.73 37.7772 16.422 38.3243 15.8211C38.4385 15.6961 38.781 15.5001 39.0631 15.7026C39.3453 15.9051 41.1847 17.1888 41.4324 17.3805C41.6801 17.5722 41.6413 17.9125 41.5423 18.0331C40.2779 19.5796 38.3028 20.4756 36.108 20.4756C34.1651 20.4756 32.4765 19.8273 31.0678 18.5328C29.6592 17.2383 28.9548 15.5755 28.9548 13.5767C28.9548 11.5779 29.6592 9.94519 31.0678 8.67654C32.4765 7.41004 34.1651 6.76172 36.108 6.76172C38.2705 6.76172 40.2413 7.62974 41.5272 9.16548C41.6306 9.28825 41.7253 9.61565 41.3807 9.86765Z" fill="#202020"/>
<path d="M52.7429 7.04297H55.7627C56.0362 7.04297 56.215 7.24328 56.215 7.45006V19.7769C56.215 20.0439 55.9544 20.1947 55.8337 20.1947H52.6955C52.5124 20.1947 52.2992 20.0116 52.2992 19.7919V18.3919C51.6228 19.6584 50.2164 20.4769 48.8917 20.4769C45.8224 20.4769 43.6814 18.5061 43.6814 14.9004V7.45221C43.6814 7.2799 43.8365 7.04297 44.0777 7.04297H47.188C47.4593 7.04297 47.595 7.31005 47.595 7.51252V14.0539C47.595 15.9408 48.7775 16.6731 49.932 16.6731C51.2825 16.6731 52.297 15.8288 52.297 13.9979V7.48237C52.297 7.29498 52.4349 7.04297 52.7407 7.04297H52.7429Z" fill="#202020"/>
<path d="M62.5215 14.7874C60.6907 14.3092 59.4802 13.5489 59.03 12.6744C58.6079 11.7741 58.5519 11.3239 58.5799 10.5054C58.6079 9.51892 59.1162 8.67459 60.1285 7.91426C61.1409 7.15393 62.3255 6.75977 63.704 6.75977C65.1967 6.75977 66.4632 7.12593 67.5057 7.83026C68.4103 8.44197 68.9337 9.35092 69.0737 10.5549C69.0952 10.738 69.0177 11.1236 68.6472 11.1236H65.8924C65.4508 11.1236 65.3884 10.8005 65.3367 10.6691C65.1557 10.2082 64.697 9.96909 63.9323 9.96909C63.06 9.96909 62.5237 10.3633 62.5517 10.9556C62.5797 11.4337 62.9738 11.7439 63.7062 11.9399L65.9311 12.5322C66.9176 12.7864 67.678 13.2086 68.2401 13.7427C69.3946 14.8412 69.5066 15.5736 69.5066 16.3619C69.5066 17.6865 68.9423 18.6989 67.7878 19.4032C66.6613 20.1075 65.3388 20.4737 63.8182 20.4737C62.3815 20.4737 61.087 20.0795 59.9885 19.2632C59.0322 18.5524 58.5023 17.6047 58.3623 16.4588C58.3429 16.2908 58.4011 15.9397 58.8426 15.9397H61.4209C61.8947 15.9397 62.0326 16.2563 62.1015 16.405C62.3751 16.993 63.0988 17.4604 63.9302 17.4604C64.8305 17.4324 65.5348 17.0102 65.5348 16.3619C65.5348 15.7976 65.1687 15.4896 64.2403 15.2354L62.5215 14.7852V14.7874Z" fill="#202020"/>
<path d="M83.3563 18.186C82.1264 19.7045 80.2224 20.4756 77.6442 20.4756C75.7013 20.4756 74.0687 19.8273 72.744 18.5608C71.4194 17.2663 70.7732 15.6035 70.7732 13.5767C70.7732 11.5499 71.4215 9.91719 72.744 8.64854C74.0665 7.38204 75.7013 6.76172 77.6442 6.76172C79.587 6.76172 81.1636 7.41004 82.4323 8.70454C83.7268 9.97104 84.3751 11.6339 84.3751 13.6887C84.3751 13.9342 84.3622 14.1927 84.345 14.4706C84.3363 14.6084 84.2696 14.8992 83.8948 14.8992H74.689C74.885 16.3358 76.3777 17.0962 77.9285 17.0962C78.999 17.0962 79.8498 16.7946 80.4787 16.2066C80.5929 16.0989 80.9698 15.974 81.1507 16.0946C81.3316 16.2152 83.0612 17.3999 83.268 17.5399C83.5372 17.7251 83.4597 18.059 83.3606 18.1817L83.3563 18.186ZM80.4313 12.4502C80.0371 9.46487 75.3632 9.43687 74.7428 12.4502H80.4313Z" fill="#202020"/>
<path d="M99.1909 20.1958H96.2616C95.7964 20.1958 95.8072 19.7478 95.8072 19.7478V18.5632C95.1588 19.7737 93.6382 20.478 91.9495 20.478C90.2608 20.478 88.71 19.8577 87.4435 18.5912C86.205 17.3247 85.5847 15.6618 85.5847 13.663C85.5847 11.6642 86.205 9.94537 87.4435 8.67888C88.71 7.41238 90.2027 6.76405 91.9495 6.76405C93.6963 6.76405 95.161 7.49638 95.8072 8.65088V1.33836C95.8072 1.33836 95.7813 0.998047 96.1712 0.998047H99.3417C99.7014 0.998047 99.6928 1.3836 99.6928 1.3836V19.7155C99.6928 19.7155 99.7165 20.1937 99.1909 20.1937V20.1958ZM92.6818 10.4515C90.9932 10.4515 89.6405 11.746 89.6405 13.5769C89.6405 15.4077 90.9932 16.7603 92.6818 16.7603C94.3705 16.7603 95.7232 15.4077 95.7232 13.5769C95.7232 11.746 94.3727 10.4515 92.6818 10.4515Z" fill="#202020"/>
<path d="M104.705 20.4774C103.352 20.4774 102.284 19.4629 102.284 18.1124C102.284 16.7619 103.354 15.7754 104.705 15.7754C106.055 15.7754 107.154 16.7899 107.154 18.1124C107.154 19.4349 106.055 20.4774 104.705 20.4774Z" fill="#F4950A"/>
</svg>
