<svg width="181" height="36" viewBox="0 0 181 36" fill="none" xmlns="http://www.w3.org/2000/svg">
<path d="M44.1113 29.1869V6.75651C44.1113 6.46585 44.3628 6.21948 44.6557 6.21948H59.1111C59.4759 6.21948 59.6832 6.5046 59.6832 6.79249V10.2721C59.6832 10.643 59.4621 10.8894 59.0835 10.8894H49.4226V15.8001H57.0137C57.3177 15.8001 57.5526 16.0603 57.5526 16.326C57.5526 16.4755 57.5526 16.3537 57.5526 16.3537V19.9855C57.5526 20.1655 57.3315 20.4312 57.1353 20.4312H49.4226V29.1592C49.4226 29.4748 49.185 29.735 48.8948 29.735H44.6309C44.3462 29.735 44.1113 29.4803 44.1113 29.1869Z" fill="#202020"/>
<path d="M68.5369 30.0229C66.0802 30.0229 64.0215 29.2256 62.322 27.598C60.6225 25.9703 59.7935 23.8333 59.7935 21.2284C59.7935 18.6236 60.6252 16.5253 62.322 14.8949C64.0187 13.2672 66.0802 12.47 68.5369 12.47C70.9936 12.47 73.0523 13.2672 74.7518 14.8949C76.4486 16.5226 77.3163 18.6208 77.3163 21.2284C77.3163 23.836 76.4486 25.9703 74.7518 27.598C73.0551 29.2256 70.9936 30.0229 68.5369 30.0229ZM72.367 21.2284C72.367 19.0222 70.6703 17.3918 68.5369 17.3918C66.4035 17.3918 64.7427 19.0194 64.7427 21.2284C64.7427 23.5454 66.4035 25.1011 68.5369 25.1011C70.6703 25.1011 72.367 23.5454 72.367 21.2284Z" fill="#202020"/>
<path d="M94.9556 16.4617C94.5134 16.7828 92.217 18.4354 91.9131 18.6457C91.6091 18.8561 91.2084 18.6513 91.084 18.5073C90.3766 17.7018 89.4149 17.2838 88.1907 17.2838C87.0715 17.2838 86.0961 17.6464 85.2643 18.4049C84.4325 19.1302 84.0014 20.0686 84.0014 21.2284C84.0014 22.3883 84.4353 23.4014 85.2643 24.1599C86.0961 24.9184 87.0715 25.281 88.1907 25.281C89.3845 25.281 90.3324 24.8852 91.0343 24.1128C91.1808 23.9523 91.6201 23.7004 91.9821 23.9606C92.3441 24.2208 94.7041 25.8706 95.0219 26.117C95.3397 26.3634 95.29 26.8007 95.1628 26.9557C93.5407 28.9433 91.0067 30.0948 88.1907 30.0948C85.6981 30.0948 83.5316 29.2616 81.7243 27.598C79.9171 25.9343 79.0134 23.7973 79.0134 21.2284C79.0134 18.6596 79.9171 16.5613 81.7243 14.9309C83.5316 13.3032 85.6981 12.47 88.1907 12.47C90.9652 12.47 93.4937 13.5855 95.1435 15.5592C95.2761 15.717 95.3977 16.1378 94.9556 16.4617Z" fill="#202020"/>
<path d="M109.533 12.8325H113.407C113.758 12.8325 113.987 13.09 113.987 13.3557V29.1979C113.987 29.5411 113.653 29.7349 113.498 29.7349H109.472C109.237 29.7349 108.963 29.4996 108.963 29.2173V27.4179C108.096 29.0456 106.291 30.0975 104.592 30.0975C100.654 30.0975 97.9069 27.5647 97.9069 22.9308V13.3585C97.9069 13.137 98.1058 12.8325 98.4153 12.8325H102.406C102.754 12.8325 102.928 13.1758 102.928 13.436V21.8429C102.928 24.2678 104.445 25.209 105.926 25.209C107.659 25.209 108.961 24.1238 108.961 21.7709V13.3972C108.961 13.1564 109.137 12.8325 109.53 12.8325H109.533Z" fill="#202020"/>
<path d="M122.079 22.7842C119.73 22.1697 118.177 21.1925 117.599 20.0686C117.058 18.9116 116.986 18.333 117.022 17.2811C117.058 16.0133 117.71 14.9282 119.009 13.951C120.308 12.9739 121.827 12.4673 123.596 12.4673C125.511 12.4673 127.136 12.9379 128.473 13.8431C129.634 14.6292 130.306 15.7974 130.485 17.3448C130.513 17.5801 130.413 18.0756 129.938 18.0756H126.404C125.837 18.0756 125.757 17.6604 125.691 17.4915C125.459 16.8991 124.87 16.5918 123.889 16.5918C122.77 16.5918 122.082 17.0984 122.118 17.8597C122.154 18.4742 122.659 18.8728 123.599 19.1247L126.453 19.886C127.719 20.2126 128.695 20.7552 129.416 21.4417C130.897 22.8534 131.041 23.7946 131.041 24.8077C131.041 26.5102 130.317 27.8112 128.835 28.7164C127.39 29.6216 125.693 30.0922 123.742 30.0922C121.899 30.0922 120.238 29.5856 118.829 28.5364C117.602 27.623 116.922 26.405 116.743 24.9323C116.718 24.7164 116.792 24.2652 117.359 24.2652H120.667C121.275 24.2652 121.452 24.6721 121.54 24.8631C121.891 25.6188 122.819 26.2195 123.886 26.2195C125.041 26.1835 125.945 25.641 125.945 24.8077C125.945 24.0825 125.475 23.6866 124.284 23.36L122.079 22.7814V22.7842Z" fill="#202020"/>
<path d="M148.809 27.1523C147.231 29.1038 144.788 30.0948 141.48 30.0948C138.988 30.0948 136.893 29.2616 135.194 27.6339C133.494 25.9703 132.665 23.8333 132.665 21.2284C132.665 18.6236 133.497 16.5253 135.194 14.8949C136.89 13.2672 138.988 12.47 141.48 12.47C143.973 12.47 145.996 13.3032 147.623 14.9669C149.284 16.5945 150.116 18.7315 150.116 21.3724C150.116 21.6879 150.099 22.0201 150.077 22.3772C150.066 22.5544 149.981 22.9281 149.5 22.9281H137.689C137.94 24.7744 139.855 25.7516 141.845 25.7516C143.219 25.7516 144.31 25.3641 145.117 24.6083C145.263 24.4699 145.747 24.3094 145.979 24.4644C146.211 24.6194 148.43 26.1419 148.696 26.3218C149.041 26.5599 148.942 26.989 148.814 27.1468L148.809 27.1523ZM145.056 19.7807C144.55 15.944 138.554 15.908 137.758 19.7807H145.056Z" fill="#202020"/>
<path d="M169.125 29.7351H165.367C164.77 29.7351 164.784 29.1593 164.784 29.1593V27.6368C163.952 29.1925 162.001 30.0977 159.835 30.0977C157.668 30.0977 155.679 29.3005 154.054 27.6728C152.465 26.0451 151.669 23.9081 151.669 21.3393C151.669 18.7704 152.465 16.5614 154.054 14.9338C155.679 13.3061 157.594 12.4729 159.835 12.4729C162.076 12.4729 163.955 13.414 164.784 14.8978V5.49987C164.784 5.49987 164.751 5.0625 165.251 5.0625H169.319C169.78 5.0625 169.769 5.558 169.769 5.558V29.1178C169.769 29.1178 169.8 29.7323 169.125 29.7323V29.7351ZM160.774 17.2119C158.608 17.2119 156.872 18.8756 156.872 21.2285C156.872 23.5815 158.608 25.3199 160.774 25.3199C162.941 25.3199 164.676 23.5815 164.676 21.2285C164.676 18.8756 162.944 17.2119 160.774 17.2119Z" fill="#202020"/>
<path d="M176.2 30.0976C174.464 30.0976 173.094 28.7938 173.094 27.0581C173.094 25.3225 174.467 24.0547 176.2 24.0547C177.932 24.0547 179.342 25.3585 179.342 27.0581C179.342 28.7578 177.932 30.0976 176.2 30.0976Z" fill="#202020"/>
<path fill-rule="evenodd" clip-rule="evenodd" d="M18.5 6.54545C12.1738 6.54545 7.04545 11.6738 7.04545 18C7.04545 18.721 7.11169 19.425 7.23825 20.107C7.56803 21.8841 6.9824 23.8606 5.37223 24.6818C3.76207 25.503 1.75854 24.8666 1.24368 23.134C0.759603 21.505 0.5 19.7811 0.5 18C0.5 8.05888 8.55888 0 18.5 0C28.4411 0 36.5 8.05888 36.5 18C36.5 19.7811 36.2404 21.505 35.7563 23.134C35.2415 24.8666 33.2379 25.503 31.6278 24.6818C30.0176 23.8606 29.432 21.8841 29.7618 20.107C29.8883 19.425 29.9545 18.721 29.9545 18C29.9545 11.6738 24.8262 6.54545 18.5 6.54545Z" fill="#202020"/>
<path d="M12.7052 27.8834C14.4055 28.8829 16.3849 29.4544 18.5001 29.4544C20.6152 29.4544 22.5946 28.8829 24.2949 27.8834C25.8531 26.9674 27.9107 26.8521 29.227 28.0908C30.5433 29.3295 30.62 31.4298 29.1645 32.5015C26.1808 34.6986 22.4908 35.9999 18.5001 35.9999C14.5093 35.9999 10.8193 34.6986 7.8356 32.5015C6.38014 31.4298 6.45682 29.3295 7.7731 28.0908C9.08938 26.8521 11.147 26.9674 12.7052 27.8834Z" fill="#F4950A"/>
<ellipse cx="18.5822" cy="17.9178" rx="7.39726" ry="7.39726" fill="#F4950A"/>
</svg>
