<svg width="101" height="108" viewBox="0 0 101 108" fill="none" xmlns="http://www.w3.org/2000/svg">
<path d="M99.6818 76.2698C99.6818 79.1874 98.0936 81.8736 95.5372 83.2796L54.4463 105.88C52.0456 107.2 49.1362 107.2 46.7356 105.88L5.64465 83.2796C3.08827 81.8736 1.5 79.1874 1.5 76.2698V31.7302C1.5 28.8126 3.08826 26.1265 5.64465 24.7204L46.7356 2.12045C49.1362 0.800082 52.0456 0.800079 54.4463 2.12044L95.5372 24.7204C98.0936 26.1265 99.6818 28.8126 99.6818 31.7302V76.2698Z" fill="white" stroke="#1E2020" stroke-width="1.6" stroke-miterlimit="10" stroke-linecap="round" stroke-linejoin="round"/>
<path d="M91.349 75.8413C90.1271 75.0849 88.5934 75.0421 87.3313 75.7291L52.5032 94.6861C51.3109 95.3351 49.8709 95.3351 48.6786 94.6861L13.8505 75.7291C12.5884 75.0421 11.0547 75.0849 9.83284 75.8413L1.5 80.9997L48.6632 106.94C49.8636 107.6 51.3183 107.6 52.5186 106.94L99.6818 80.9997L91.349 75.8413Z" fill="#F7C171"/>
<path d="M99.6818 76.2698C99.6818 79.1874 98.0936 81.8735 95.5372 83.2796L54.4463 105.88C52.0456 107.2 49.1362 107.2 46.7356 105.88L5.64465 83.2796C3.08827 81.8735 1.5 79.1874 1.5 76.2698V31.7302C1.5 28.8126 3.08826 26.1265 5.64465 24.7204L46.7356 2.12045C49.1362 0.800082 52.0456 0.800079 54.4463 2.12044L95.5372 24.7204C98.0936 26.1265 99.6818 28.8126 99.6818 31.7302V76.2698Z" stroke="#1E2020" stroke-width="1.6" stroke-miterlimit="10" stroke-linecap="round" stroke-linejoin="round"/>
<path d="M23.5898 54L42.5556 70.8584C44.2587 72.3723 46.8806 72.1597 48.3175 70.3912L77.5898 34.3636" stroke="#1E2020" stroke-width="1.6" stroke-miterlimit="10" stroke-linecap="round" stroke-linejoin="round"/>
</svg>
