<svg width="60" height="60" fill="none" xmlns="http://www.w3.org/2000/svg"><g clip-path="url(#a)"><path d="M59.54 33.6c-.12-1.395-.36-3.405-.36-3.405-.518-4.935-3.93-9.135-8.768-9.562h-1.5c-4.845.427-8.25 4.627-8.775 9.562 0 0-.24 2.01-.36 3.405s.18 1.688.405 1.86c.326.254.71.421 1.118.488 2.175.39 2.017 2.715 2.017 3.75 0 .48.158 3.262.39 6.142.233 4.605 3.075 6.098 5.205 6.135h1.5c2.13 0 4.973-1.5 5.205-6.135.233-2.88.39-5.662.39-6.142 0-1.013-.157-3.338 2.018-3.75a2.475 2.475 0 0 0 1.117-.488c.218-.172.518-.465.398-1.86ZM49.505 18.075a6.413 6.413 0 1 0 0-12.825 6.413 6.413 0 0 0 0 12.825Z" fill="#fff"/><path d="M59.248 33.6c-.12-1.395-.36-3.405-.36-3.405-.51-4.935-3.93-9.135-8.775-9.562h-.75v31.32h.75c2.13 0 4.973-1.5 5.205-6.135.233-2.88.39-5.663.39-6.143 0-1.012-.157-3.337 2.018-3.75a2.475 2.475 0 0 0 1.117-.487c.225-.15.57-.443.405-1.838ZM55.663 11.662a6.412 6.412 0 0 0-6.255-6.412v12.817a6.405 6.405 0 0 0 6.255-6.405Z" fill="#F7C171"/><path fill-rule="evenodd" clip-rule="evenodd" d="M48.86 20.035a.617.617 0 0 1 .053-.002h1.5a.62.62 0 0 1 .053.002c5.19.46 8.77 4.95 9.31 10.094l.01.086.03.247.096.847c.075.678.165 1.535.226 2.24.063.733.024 1.246-.1 1.625a1.491 1.491 0 0 1-.522.757l-.005.004c-.403.313-.877.52-1.38.604-.431.083-.715.252-.914.45-.204.205-.346.471-.442.785-.176.574-.172 1.202-.168 1.72v.204c0 .508-.159 3.31-.39 6.182-.124 2.436-.94 4.123-2.077 5.202a5.435 5.435 0 0 1-3.727 1.494h-1.51a5.563 5.563 0 0 1-3.717-1.52c-1.136-1.076-1.953-2.753-2.077-5.176-.232-2.872-.391-5.674-.391-6.182v-.209c.004-.526.009-1.158-.167-1.732-.096-.313-.238-.577-.44-.778-.198-.196-.48-.361-.913-.44a3.075 3.075 0 0 1-1.382-.603 1.48 1.48 0 0 1-.535-.76c-.125-.38-.164-.895-.101-1.627.06-.705.151-1.562.226-2.24a172.194 172.194 0 0 1 .125-1.094l.01-.087c.55-5.143 4.12-9.634 9.32-10.093Zm-8.126 10.232-.01.088c-.008.057-.017.141-.03.246-.024.21-.058.503-.095.84a97.631 97.631 0 0 0-.223 2.211c-.057.663-.007.992.045 1.15.037.114.072.14.122.179l.008.006c.247.192.538.319.846.37h.01c.653.118 1.164.389 1.549.77.38.377.606.832.742 1.279.235.765.226 1.597.221 2.107l-.001.185c0 .452.155 3.21.388 6.094l.001.018c.11 2.178.83 3.546 1.704 4.375a4.363 4.363 0 0 0 2.907 1.19h1.495c.93 0 2.02-.328 2.9-1.164.875-.83 1.595-2.207 1.706-4.4v-.019c.234-2.885.389-5.642.389-6.094 0-.054 0-.114-.002-.18-.005-.502-.013-1.33.221-2.096.137-.445.363-.901.74-1.28.384-.384.894-.66 1.547-.783l.014-.003c.308-.05.598-.177.845-.367l.002-.002c.05-.04.085-.068.122-.183.052-.16.102-.49.046-1.152a97.63 97.63 0 0 0-.224-2.21c-.037-.338-.071-.632-.095-.841l-.029-.246-.01-.088-.002-.009c-.494-4.714-3.727-8.616-8.197-9.025H48.94c-4.477.41-7.704 4.31-8.206 9.026v.008ZM49.506 5.85a5.812 5.812 0 1 0 0 11.625 5.812 5.812 0 0 0 0-11.625Zm-7.013 5.813a7.012 7.012 0 1 1 14.025 0 7.012 7.012 0 0 1-14.025 0Z" fill="#000"/><path d="M35.433 35.474c-.106-1.229-.317-3-.317-3-.456-4.347-3.462-8.047-7.724-8.423h-1.32c-4.269.376-7.268 4.076-7.73 8.423 0 0-.212 1.771-.318 3-.106 1.229.159 1.486.357 1.638.287.223.625.37.984.43 1.916.343 1.777 2.391 1.777 3.303 0 .423.14 2.874.344 5.411.205 4.057 2.709 5.371 4.585 5.404h1.321c1.877 0 4.38-1.321 4.586-5.404.204-2.537.343-4.988.343-5.41 0-.893-.139-2.94 1.777-3.304a2.18 2.18 0 0 0 .985-.43c.191-.152.456-.41.35-1.638ZM26.593 21.797a5.649 5.649 0 1 0 0-11.297 5.649 5.649 0 0 0 0 11.297Z" fill="#fff"/><path d="M35.175 35.474c-.105-1.229-.317-3-.317-3-.449-4.347-3.462-8.047-7.73-8.423h-.66v27.59h.66c1.877 0 4.38-1.322 4.585-5.405.205-2.537.344-4.988.344-5.41 0-.893-.139-2.94 1.777-3.304a2.18 2.18 0 0 0 .985-.43c.198-.132.502-.39.356-1.618ZM32.018 16.149a5.649 5.649 0 0 0-5.51-5.649v11.29a5.642 5.642 0 0 0 5.51-5.641Z" fill="#F7C171"/><path fill-rule="evenodd" clip-rule="evenodd" d="M26.019 23.453a.579.579 0 0 1 .053-.002h1.32c.018 0 .036 0 .054.002 4.614.408 7.787 4.398 8.266 8.955l.01.075a80.596 80.596 0 0 1 .11.965c.066.597.146 1.353.2 1.975.055.65.02 1.112-.091 1.46-.126.386-.333.58-.485.7l-.005.004a2.78 2.78 0 0 1-1.247.546c-.366.07-.603.213-.767.377-.169.17-.29.393-.372.661-.151.495-.147 1.037-.144 1.493v.181c0 .451-.14 2.922-.344 5.45-.11 2.161-.835 3.665-1.852 4.63a4.86 4.86 0 0 1-3.332 1.336H26.06a4.972 4.972 0 0 1-3.322-1.358c-1.015-.963-1.741-2.459-1.851-4.607-.204-2.529-.345-5-.345-5.45v-.186c.004-.464.007-1.01-.144-1.504a1.538 1.538 0 0 0-.37-.655c-.162-.161-.398-.301-.765-.368a2.78 2.78 0 0 1-1.25-.545 1.374 1.374 0 0 1-.495-.704c-.114-.348-.148-.812-.092-1.461.053-.622.133-1.378.2-1.975.033-.3.062-.56.084-.746.01-.093.02-.168.026-.219l.008-.075c.487-4.556 3.652-8.547 8.274-8.955Zm8.501 9.093v-.009c-.433-4.126-3.26-7.528-7.154-7.886h-1.267c-3.9.358-6.722 3.76-7.16 7.887l-.002.008-.009.078a215.718 215.718 0 0 0-.109.956 85.994 85.994 0 0 0-.197 1.946c-.05.58-.004.858.037.984.026.08.045.095.08.12l.007.006.003.003c.208.161.454.268.714.311l.009.002c.588.105 1.052.35 1.402.697.345.343.55.755.673 1.156.21.686.202 1.43.197 1.88l-.001.16c0 .395.136 2.821.341 5.363l.002.018c.096 1.903.724 3.09 1.479 3.806a3.772 3.772 0 0 0 2.512 1.029h1.316c.803 0 1.745-.284 2.506-1.007.754-.715 1.383-1.91 1.48-3.828v-.018c.206-2.542.342-4.968.342-5.362v-.158c-.005-.441-.013-1.182.197-1.868.123-.4.327-.813.67-1.158.348-.349.81-.598 1.399-.71l.015-.002a1.58 1.58 0 0 0 .711-.31l.005-.003c.035-.028.055-.043.08-.125.042-.127.087-.407.038-.986a85.42 85.42 0 0 0-.197-1.946l-.084-.74-.025-.217-.01-.077ZM26.593 11.1a5.049 5.049 0 1 0 0 10.098 5.049 5.049 0 0 0 0-10.098Zm-6.248 5.05a6.249 6.249 0 1 1 12.497 0 6.249 6.249 0 0 1-12.497 0Z" fill="#000"/><path d="M14.619 40.448c-.08-.881-.229-2.16-.229-2.16-.33-3.12-2.489-5.784-5.563-6.054h-.935c-3.068.27-5.234 2.933-5.556 6.055 0 0-.148 1.278-.23 2.159-.08.881.115 1.063.256 1.177.21.159.454.263.713.303 1.346.249 1.279 1.722 1.279 2.361 0 .31.094 2.072.242 3.888.148 2.92 1.95 3.868 3.296 3.888h.935c1.345 0 3.155-.968 3.303-3.888.141-1.816.242-3.578.242-3.888 0-.673-.1-2.112 1.278-2.361.258-.038.501-.143.707-.303.14-.114.336-.296.262-1.177ZM8.262 30.613a4.056 4.056 0 1 0 0-8.113 4.056 4.056 0 0 0 0 8.113Z" fill="#fff"/><path d="M14.43 40.448a74.159 74.159 0 0 0-.228-2.16c-.323-3.12-2.489-5.784-5.556-6.054h-.471v19.831h.47c1.346 0 3.149-.968 3.297-3.888.148-1.816.249-3.578.249-3.888 0-.673-.101-2.112 1.271-2.361a1.54 1.54 0 0 0 .713-.303c.115-.114.337-.296.256-1.177ZM12.137 26.558a4.036 4.036 0 0 0-3.962-4.037v8.093a4.036 4.036 0 0 0 3.962-4.056Z" fill="#F7C171"/><path fill-rule="evenodd" clip-rule="evenodd" d="M7.84 31.637a.574.574 0 0 1 .052-.002h.935c.018 0 .035 0 .053.002 3.428.3 5.754 3.255 6.107 6.586l.024.212c.015.134.037.322.06.538.047.43.105.975.146 1.42v.005c.04.477.015.836-.08 1.118-.107.32-.287.482-.402.576l-.01.007c-.284.221-.62.366-.975.421-.234.043-.371.129-.461.216a.91.91 0 0 0-.221.392c-.1.321-.098.68-.096 1.02v.141c0 .337-.102 2.12-.243 3.927-.082 1.581-.62 2.706-1.388 3.436a3.67 3.67 0 0 1-2.514 1.014h-.944a3.73 3.73 0 0 1-2.5-1.022c-.768-.727-1.304-1.846-1.386-3.427-.147-1.81-.243-3.59-.243-3.928v-.081c0-.334.002-.721-.107-1.065a.98.98 0 0 0-.228-.407.814.814 0 0 0-.445-.216 2.174 2.174 0 0 1-.989-.428 1.183 1.183 0 0 1-.403-.578c-.093-.283-.116-.644-.072-1.12a86.306 86.306 0 0 1 .205-1.959l.024-.211c.347-3.333 2.68-6.287 6.101-6.587Zm5.955 6.721-.001-.006c-.306-2.901-2.287-5.267-4.993-5.517h-.882c-2.7.25-4.686 2.616-4.986 5.516l-.001.007-.024.212-.06.534c-.047.428-.103.964-.143 1.4-.037.404-.003.575.016.632a.19.19 0 0 0 .004.01l.008.008a.974.974 0 0 0 .452.184c.448.083.809.276 1.083.55.268.27.428.59.524.894.168.534.164 1.106.162 1.421v.086c0 .282.092 2.021.24 3.84l.001.018c.068 1.335.507 2.146 1.013 2.627a2.53 2.53 0 0 0 1.69.692h.93a2.47 2.47 0 0 0 1.687-.684c.508-.483.948-1.3 1.016-2.635l.001-.016c.142-1.823.24-3.56.24-3.842v-.115c-.004-.325-.01-.886.15-1.402a2.1 2.1 0 0 1 .528-.893 2.048 2.048 0 0 1 1.112-.544.914.914 0 0 0 .434-.189l.004-.013c.02-.058.055-.23.022-.632a85.872 85.872 0 0 0-.203-1.931l-.024-.212ZM8.263 23.1a3.456 3.456 0 1 0 0 6.913 3.456 3.456 0 0 0 0-6.913Zm-4.657 3.457a4.656 4.656 0 1 1 9.313 0 4.656 4.656 0 0 1-9.313 0Z" fill="#000"/></g><defs><clipPath id="a"><path fill="#fff" d="M0 0h60v60H0z"/></clipPath></defs></svg>