<svg width="67" height="30" viewBox="0 0 67 30" fill="none" xmlns="http://www.w3.org/2000/svg">
<rect x="0.745398" y="0.313269" width="65.0549" height="29.3735" fill="url(#paint0_linear_3118_1275)"/>
<rect x="0.745398" y="0.313269" width="65.0549" height="29.3735" stroke="#069E2D" stroke-width="0.626537"/>
<path d="M10.5442 4.21667C13.2999 4.21667 16.0556 4.21667 18.8112 4.21667C18.8079 6.54572 18.8202 8.87476 18.8045 11.2027C21.1324 11.1869 23.4614 11.1993 25.7905 11.1959C25.7905 13.9888 25.7905 16.7827 25.7905 19.5755C23.4614 19.5722 21.1324 19.5845 18.8045 19.5688C18.8202 21.8967 18.8079 24.2257 18.8112 26.5548C16.0556 26.5548 13.2999 26.5548 10.5442 26.5548C10.5476 24.2257 10.5352 21.8967 10.5509 19.5688C8.22303 19.5845 5.89399 19.5722 3.56494 19.5755C3.56494 16.7827 3.56494 13.9888 3.56494 11.1959C5.89399 11.1993 8.22303 11.1869 10.5509 11.2027C10.5352 8.87476 10.5476 6.54572 10.5442 4.21667Z" fill="#008000"/>
<path d="M11.2468 4.91724C11.4709 4.91724 11.6937 4.91724 11.9177 4.91724C11.9211 7.44102 11.9211 9.96481 11.9177 12.4886C11.6915 12.2894 11.4607 12.0901 11.2694 11.8537C11.2367 11.6837 11.2435 11.5093 11.2412 11.337C11.2513 9.1971 11.239 7.05717 11.2468 4.91724Z" fill="#C6F7BD"/>
<path d="M12.5973 4.91724C12.8214 4.91724 13.0442 4.91724 13.2682 4.91724C13.2716 7.8913 13.2716 10.8654 13.2682 13.8394C13.0138 13.5614 12.5444 13.3509 12.594 12.913C12.5985 10.2474 12.5917 7.58286 12.5973 4.91724Z" fill="#C6F7BD"/>
<path d="M13.9484 4.91724C14.1713 4.91724 14.3953 4.91724 14.6193 4.91724C14.6227 8.34157 14.6227 11.7659 14.6193 15.1902C14.3649 14.9122 13.8955 14.7017 13.945 14.2638C13.9495 11.149 13.9428 8.03314 13.9484 4.91724Z" fill="#C6F7BD"/>
<path d="M18.1541 11.921C18.3995 11.8782 18.6505 11.8962 18.8993 11.894C20.9627 11.9019 23.0272 11.8917 25.0906 11.8985C25.0906 12.1214 25.0906 12.3454 25.0906 12.5694C22.5668 12.5728 20.043 12.5728 17.5181 12.5694C17.7184 12.3431 17.9177 12.1124 18.1541 11.921Z" fill="#C6F7BD"/>
<path d="M16.8029 13.2716C17.0865 13.2243 17.3747 13.2491 17.6606 13.2446C20.1371 13.2514 22.6136 13.2424 25.0902 13.2491C25.0902 13.472 25.0902 13.696 25.0902 13.92C22.1161 13.9234 19.142 13.9234 16.168 13.9211C16.3672 13.6938 16.5665 13.463 16.8029 13.2716Z" fill="#C6F7BD"/>
<path d="M15.4523 14.6223C15.7348 14.5751 16.0241 14.5998 16.31 14.5953C19.2368 14.6021 22.1636 14.5931 25.0904 14.5998C25.0904 14.8238 25.0904 15.0467 25.0904 15.2707C21.6661 15.2741 18.2417 15.2741 14.8174 15.2707C15.0166 15.0445 15.2159 14.8137 15.4523 14.6223Z" fill="#C6F7BD"/>
<path d="M4.26562 15.5C7.68996 15.4966 11.1143 15.4966 14.5386 15.4989C14.2606 15.7544 14.0501 16.2238 13.6133 16.1743C10.4974 16.1698 7.38152 16.1765 4.26562 16.1709C4.26562 15.9469 4.26562 15.7229 4.26562 15.5Z" fill="#C6F7BD"/>
<path d="M14.7364 15.582C14.9627 15.7813 15.1934 15.9805 15.3848 16.2169C15.4321 16.4995 15.4073 16.7888 15.4118 17.0747C15.4051 20.0015 15.4141 22.9283 15.4073 25.855C15.1833 25.855 14.9593 25.855 14.7364 25.855C14.733 22.4307 14.733 19.0064 14.7364 15.582Z" fill="#C6F7BD"/>
<path d="M4.26562 16.8515C7.23969 16.8482 10.2138 16.8482 13.1878 16.8515C12.9098 17.1059 12.6981 17.5753 12.2614 17.5258C9.59575 17.5213 6.93012 17.5281 4.26562 17.5224C4.26562 17.2984 4.26562 17.0744 4.26562 16.8515Z" fill="#C6F7BD"/>
<path d="M16.0865 16.9327C16.3139 17.132 16.5447 17.3312 16.7361 17.5676C16.7822 17.8513 16.7586 18.1395 16.7631 18.4254C16.7563 20.9019 16.7653 23.3784 16.7586 25.8549C16.5346 25.8549 16.3117 25.8549 16.0877 25.8549C16.0843 22.8809 16.0843 19.9068 16.0865 16.9327Z" fill="#C6F7BD"/>
<path d="M4.26562 18.2024C6.78941 18.199 9.3132 18.199 11.837 18.2013C11.6366 18.4287 11.4385 18.6594 11.2021 18.8508C11.0321 18.8834 10.8576 18.8767 10.6854 18.8789C8.54548 18.8688 6.40555 18.8812 4.26562 18.8733C4.26562 18.6493 4.26562 18.4253 4.26562 18.2024Z" fill="#C6F7BD"/>
<path d="M17.4381 18.2828C17.6643 18.4821 17.8951 18.6813 18.0865 18.9177C18.1191 19.0866 18.1124 19.2611 18.1146 19.4344C18.1045 21.5743 18.1169 23.7143 18.109 25.8542C17.885 25.8542 17.661 25.8542 17.4381 25.8542C17.4347 23.3304 17.4347 20.8066 17.4381 18.2828Z" fill="#C6F7BD"/>
<path d="M23.989 10.1327V4.5916H27.0189L27.8008 5.38103V7.14787L27.0189 7.9373H26.9963L27.9963 10.1327H27.2369L26.252 7.9373H24.6731V10.1327H23.989ZM24.6731 7.32831H26.7106L27.1166 6.9148V5.6141L26.7106 5.20059H24.6731V7.32831ZM29.5828 10.1327L28.7934 9.34325V6.98998L29.5828 6.20054H31.3346L32.124 6.98998V8.41097H29.455V9.17033L29.8685 9.58384H32.0564V10.1327H29.5828ZM29.455 7.88467H31.4624V7.14035L31.0489 6.72683H29.8685L29.455 7.14035V7.88467ZM33.4098 11.5386V10.9898L35.53 10.9823L35.9435 10.5763V9.51618L35.3345 10.1327H33.8909L33.1015 9.34325V6.98998L33.8909 6.20054H35.3345L35.9435 6.82457V6.20054H36.6051V10.7492L35.8157 11.5386H33.4098ZM35.1691 9.6064L35.9435 8.82448V7.51627L35.1691 6.72683H34.1766L33.7631 7.14035V9.19288L34.1766 9.6064H35.1691ZM37.7568 5.77199V4.88481H38.4185V5.77199H37.7568ZM37.7568 10.1327V6.20054H38.4185V10.1327H37.7568ZM39.5686 10.1327V9.58384H41.6512L42.0046 9.22296V8.7493L41.6287 8.37337H40.0723L39.3806 7.69671V6.89976L40.0723 6.20054H42.2903V6.75691H40.3881L40.0423 7.09524V7.47868L40.4031 7.83956H41.9745L42.6662 8.51622V9.44099L41.982 10.1327H39.5686ZM44.3712 10.1327L43.6795 9.44851V6.72683H43.266V6.20054H43.6946L43.86 5.19307H44.3412V6.20054H45.1757V6.72683H44.3412V9.21544L44.6945 9.58384H45.3486V10.1327H44.3712ZM46.7768 10.1327L45.9874 9.34325V6.98998L46.7768 6.20054H48.5286L49.3181 6.98998V8.41097H46.649V9.17033L47.0625 9.58384H49.2504V10.1327H46.7768ZM46.649 7.88467H48.6565V7.14035L48.2429 6.72683H47.0625L46.649 7.14035V7.88467ZM50.3858 10.1327V6.20054H51.0474V6.90728L51.7316 6.20054H52.739V6.86217H51.7616L51.0474 7.59897V10.1327H50.3858ZM53.9834 10.1327L53.194 9.34325V6.98998L53.9834 6.20054H55.7352L56.5246 6.98998V8.41097H53.8556V9.17033L54.2691 9.58384H56.457V10.1327H53.9834ZM53.8556 7.88467H55.863V7.14035L55.4495 6.72683H54.2691L53.8556 7.14035V7.88467ZM58.2915 10.1327L57.5021 9.34325V6.98998L58.2915 6.20054H59.7351L60.3441 6.82457V4.5916H61.0057V10.1327H60.3441V9.51618L59.7351 10.1327H58.2915ZM59.5697 9.6064L60.3441 8.82448V7.51627L59.5697 6.72683H58.5772L58.1637 7.14035V9.19288L58.5772 9.6064H59.5697ZM27.172 18.1327V12.5916H30.0966L30.8786 13.381V15.2832L30.0966 16.0726H27.8561V18.1327H27.172ZM27.8561 15.4636H29.7884L30.1944 15.0501V13.6141L29.7884 13.1931L27.8561 13.2006V15.4636ZM31.6481 18.1327V12.5916H32.3097V14.8246L32.9112 14.2005H34.3622L35.1442 14.99V18.1327H34.4825V15.1554L34.0841 14.7268H33.0841L32.3097 15.5163V18.1327H31.6481ZM36.6931 18.1327L35.9112 17.3433V16.4486L36.6931 15.6591H38.693V15.1704L38.2871 14.7569H36.4225V14.2005H38.5728L39.3547 14.99V18.1327H38.693V17.5237L38.0841 18.1327H36.6931ZM36.9864 17.6064H37.9186L38.693 16.8395V16.1779L36.9864 16.1854L36.5728 16.5914V17.1929L36.9864 17.6064ZM40.4773 18.1327V14.2005H41.1389V14.9073L41.8231 14.2005H42.8305V14.8622H41.8531L41.1389 15.599V18.1327H40.4773ZM43.4565 18.1327V14.2005H44.1181V14.9073L44.8023 14.2005H46.2533L46.945 14.8998L47.6217 14.2005H49.0727L49.8622 14.99V18.1327H49.2005V15.1554L48.8021 14.7268H47.7946L47.0352 15.4937V18.1327H46.3736L46.3811 15.1554L45.9751 14.7268H44.9752L44.1181 15.599V18.1327H43.4565ZM51.409 18.1327L50.6271 17.3433V16.4486L51.409 15.6591H53.4089V15.1704L53.0029 14.7569H51.1384V14.2005H53.2886L54.0706 14.99V18.1327H53.4089V17.5237L52.7999 18.1327H51.409ZM51.7023 17.6064H52.6345L53.4089 16.8395V16.1779L51.7023 16.1854L51.2887 16.5914V17.1929L51.7023 17.6064ZM55.8924 18.1327L55.1029 17.3433V14.99L55.8924 14.2005H57.6893L58.381 14.8847V15.5088H57.7194V15.1028L57.3434 14.7268H56.1781L55.7646 15.1403V17.1628L56.1781 17.5838H58.3434V18.1327H55.8924ZM59.8621 19.5386L60.5688 17.862H60.2906L58.6741 14.2005H59.4034L60.6665 17.2079H60.8395L62.0048 14.2005H62.7266L60.5312 19.5386H59.8621Z" fill="#049A34"/>
<rect width="43" height="6" transform="translate(20.1519 21.6388)" fill="white"/>
<path d="M21.589 27.6388L20.9562 27.0123L21.47 26.4922L21.9336 26.9496H23.287L23.5626 26.6739V25.6527L23.2619 25.9283H21.6266L20.9312 25.2329V23.7167L21.6266 23.0212H23.6566L24.3521 23.7167V26.9433L23.6566 27.6388H21.589ZM21.99 25.2392H23.218L23.5626 24.8946V23.9861L23.287 23.7104H21.99L21.7143 23.9861L21.7206 24.9635L21.99 25.2392ZM25.7361 27.6388L25.0406 26.9433V23.7167L25.7361 23.0212H27.8037L28.4991 23.7167V26.9433L27.8037 27.6388H25.7361ZM26.1057 26.9496H27.4403L27.7159 26.6739V23.9861L27.4403 23.7104H26.0995L25.8238 23.9861L25.8301 26.6739L26.1057 26.9496ZM29.1875 27.6388V26.9245H29.8015V23.7355H29.2752V23.0212H30.5847V26.9245H31.1987V27.6388H29.1875ZM32.5186 27.6388L31.8231 26.9433V23.7167L32.5186 23.0212H34.5862L35.2816 23.7167V26.9433L34.5862 27.6388H32.5186ZM32.8882 26.9496H34.2228L34.4984 26.6739V23.9861L34.2228 23.7104H32.882L32.6063 23.9861L32.6126 26.6739L32.8882 26.9496ZM36.6592 27.6388L36.0264 27.0123L36.5402 26.4922L37.0038 26.9496H38.3571L38.6328 26.6739V25.6527L38.3321 25.9283H36.6968L36.0014 25.2329V23.7167L36.6968 23.0212H38.7268L39.4222 23.7167V26.9433L38.7268 27.6388H36.6592ZM37.0602 25.2392H38.2882L38.6328 24.8946V23.9861L38.3571 23.7104H37.0602L36.7845 23.9861L36.7908 24.9635L37.0602 25.2392ZM42.1408 27.6388V26.7428H39.9228V26.0286L42.1408 23.0212H42.9302V26.0286H43.469V26.7428H42.9302V27.6388H42.1408ZM40.894 26.0286H42.1408V24.3432L40.894 26.0286ZM44.7268 27.6388L44.0313 26.9433V23.7167L44.7268 23.0212H46.8633L47.4898 23.6478L46.9823 24.1678L46.5187 23.7104H45.0964L44.8145 23.9861L44.8207 25.0073L45.1215 24.7317H46.8069L47.5086 25.4271V26.9433L46.8069 27.6388H44.7268ZM45.0964 26.9496H46.4435L46.7192 26.6739V25.6965L46.4435 25.4146L45.1277 25.4209L44.8145 25.7279L44.8207 26.6739L45.0964 26.9496Z" fill="#202020"/>
<defs>
<linearGradient id="paint0_linear_3118_1275" x1="33.2729" y1="0" x2="33.2729" y2="30" gradientUnits="userSpaceOnUse">
<stop stop-color="white"/>
<stop offset="1" stop-color="#B6E2C4"/>
</linearGradient>
</defs>
</svg>
