<svg width="22" height="23" viewBox="0 0 22 23" fill="none" xmlns="http://www.w3.org/2000/svg">
<rect y="0.0195923" width="22" height="22" rx="11" fill="#F7C171"/>
<path fill-rule="evenodd" clip-rule="evenodd" d="M6.81934 13.2892V4.41881H10.1457C11.9691 4.41881 13.1641 5.51529 13.1641 7.10457C13.1641 8.34889 12.4373 9.26057 11.2669 9.61785L11.3611 9.78217L9.41886 9.77801H8.66734V13.2892H6.81934ZM8.53293 5.80928V8.22928H9.74293C10.1829 8.22928 11.0629 7.98728 11.0629 7.01928C11.0629 6.05128 10.1829 5.80928 9.74293 5.80928H8.53293Z" fill="black"/>
<path fill-rule="evenodd" clip-rule="evenodd" d="M12.2697 11.41L13.2076 13.0887L12.1803 14.8187L11.2426 13.1114L12.2697 11.41ZM12.0204 10.9638L11.3584 9.77887H9.41235L11.0022 12.6736L12.0204 10.9638ZM12.4266 15.2673L13.1524 16.5886L15.1631 16.5889L13.4492 13.5212L12.4266 15.2673Z" fill="black"/>
<path d="M14.9236 10.1628L13.0016 10.1628L9.19097 16.5934L11.1768 16.5934L14.9236 10.1628Z" fill="black"/>
</svg>
