<svg width="225" height="56" viewBox="0 0 225 56" fill="none" xmlns="http://www.w3.org/2000/svg">
<path d="M42.169 18.4711C40.1799 23.2844 35.4807 26.6668 30 26.6668C24.5193 26.6668 19.8201 23.2844 17.8311 18.4711H0V27.6666C0 32.7451 4.0708 36.8621 9.09241 36.8621H20.2441V55.2529H30H39.7559V36.8619H50.9076C55.9292 36.8619 60 32.745 60 27.6664V18.4709H42.169V18.4711Z" fill="#202020"/>
<path d="M43.1814 13.3334C43.1814 5.96957 37.2787 0 29.9974 0C22.7161 0 16.8135 5.96957 16.8135 13.3334C16.8135 15.1544 17.175 16.8898 17.8285 18.471H42.1664C42.8199 16.8898 43.1814 15.1544 43.1814 13.3334Z" fill="#202020"/>
<path d="M80.1138 8.3018V22.9252H75.9107V8.3018H71.4213C70.6363 8.3018 70 7.65825 70 6.86443V4.32788H86.0244V6.86443C86.0244 7.65825 85.3881 8.3018 84.6032 8.3018H80.1138Z" fill="#202020"/>
<path d="M151.141 8.3018V22.9252H146.938V8.3018H142.448C141.663 8.3018 141.027 7.65825 141.027 6.86443V4.32788H157.051V6.86443C157.051 7.65825 156.415 8.3018 155.63 8.3018H151.141Z" fill="#202020"/>
<path d="M98.2106 16.0176C101.915 15.9378 104.384 13.6265 104.384 10.1727C104.384 6.69245 101.888 4.32788 97.9479 4.32788H88.7544V22.9251H92.9575V16.0176L99.5241 22.9251H105.041L98.2106 16.0176ZM92.9575 12.5637V7.9145H97.9479C99.13 7.9145 100.181 8.56536 100.181 10.2391C100.181 11.9128 99.13 12.5637 97.9479 12.5637H92.9575Z" fill="#202020"/>
<path d="M121.504 4.32788V7.9145H111.784V11.6339H120.978V15.2205H111.784V19.3385H121.504V22.9251H107.581V4.32788H121.504Z" fill="#202020"/>
<path d="M173.704 4.32788V7.9145H163.984V11.6339H173.179V15.2205H163.984V19.3385H173.704V22.9251H159.781V4.32788H173.704Z" fill="#202020"/>
<path d="M135.302 4.32788H131.099L123.612 22.9251H127.946L129.391 19.2056H137.009L138.454 22.9251H142.789L135.302 4.32788ZM130.784 15.619L133.135 8.84434H133.266L135.617 15.619H130.784Z" fill="#202020"/>
<path d="M183.92 22.9251H176.433V4.32788H183.92C189.279 4.32788 192.852 7.80121 192.852 13.6265C192.852 19.4517 189.279 22.9251 183.92 22.9251ZM183.657 7.9145H180.636V19.3385H183.657C186.836 19.3385 188.649 17.4788 188.649 13.6265C188.648 9.77425 186.836 7.9145 183.657 7.9145Z" fill="#202020"/>
<path d="M74.266 48.1052C73.33 48.1052 72.538 47.7452 71.998 47.1692C71.422 46.5572 71.098 45.6932 71.098 44.3252V38.9252H73.258V44.1092C73.258 44.8472 73.438 45.3692 73.744 45.6932C74.032 46.0352 74.482 46.2152 74.968 46.2152C76.192 46.2152 76.876 45.2612 76.876 43.7312V38.9252H79.036V47.9252H76.948V46.4852C76.408 47.5472 75.472 48.1052 74.266 48.1052ZM81.454 47.9252V34.9652H83.578V42.6152L86.854 38.9252H89.662L85.738 43.1372L89.968 47.9252H87.142L83.578 43.7492V47.9252H81.454ZM92.0953 48.1052C91.2673 48.1052 90.6553 47.5112 90.6553 46.6652C90.6553 45.8372 91.2673 45.2252 92.0953 45.2252C92.9233 45.2252 93.5533 45.8372 93.5533 46.6652C93.5533 47.5112 92.9233 48.1052 92.0953 48.1052ZM98.3523 48.0332C97.4703 48.0332 96.7863 47.8352 96.3543 47.4032C95.9043 46.9892 95.7243 46.4132 95.7243 45.5492V40.7252H94.2843V38.9252H95.7243V36.6932H97.8843V38.9252H99.4683V40.7252H97.8843V45.2072C97.8843 45.5312 97.9383 45.7472 98.1003 45.8912C98.2623 46.0532 98.5143 46.1252 98.8743 46.1252C99.0723 46.1252 99.2703 46.1072 99.4683 46.0532V47.9252C99.1982 47.9792 98.7663 48.0332 98.3523 48.0332ZM101.282 47.9252V38.9252H103.37V40.9052C103.784 39.5372 104.756 38.7452 105.944 38.7452C106.16 38.7452 106.358 38.7632 106.502 38.8172V41.1212C106.304 41.0852 106.052 41.0672 105.782 41.0672C104.216 41.0672 103.442 42.1832 103.442 44.0192V47.9252H101.282ZM111.888 48.1052C109.224 48.1052 107.316 46.1252 107.316 43.4252C107.316 40.7432 109.26 38.7452 111.888 38.7452C114.57 38.7452 116.388 40.6172 116.388 43.4972C116.388 43.7672 116.37 44.0012 116.37 44.0012H109.476C109.656 45.4232 110.574 46.3412 111.888 46.3412C112.932 46.3412 113.67 45.7652 113.886 44.9372L116.136 45.2072C115.506 47.0432 113.85 48.1052 111.888 48.1052ZM109.548 42.4532H114.174C114.012 41.3192 113.166 40.4912 111.888 40.4912C110.7 40.4912 109.818 41.2652 109.548 42.4532ZM120.945 48.1052C119.019 48.1052 117.759 46.9712 117.759 45.2432C117.759 43.6232 118.803 42.6692 120.765 42.6152L123.753 42.5432V42.2552C123.753 41.6792 123.609 41.2472 123.321 40.9412C123.015 40.6172 122.565 40.4372 121.935 40.4372C120.891 40.4372 120.261 40.9592 120.171 41.8952H117.957C118.083 39.9332 119.595 38.7452 121.935 38.7452C123.177 38.7452 124.185 39.0512 124.851 39.6812C125.517 40.3112 125.859 41.1032 125.859 42.2732V46.3772C125.859 46.9532 125.895 47.4392 125.967 47.9252H123.879C123.825 47.5472 123.789 47.1872 123.771 46.7732C123.195 47.6192 122.259 48.1052 120.945 48.1052ZM119.991 45.2432C119.991 46.0172 120.621 46.5212 121.575 46.5212C122.853 46.5212 123.753 45.6572 123.753 44.3972V44.0912L121.431 44.1452C120.459 44.1632 119.991 44.5772 119.991 45.2432ZM131.276 48.0332C130.394 48.0332 129.71 47.8352 129.278 47.4032C128.828 46.9892 128.648 46.4132 128.648 45.5492V40.7252H127.208V38.9252H128.648V36.6932H130.808V38.9252H132.392V40.7252H130.808V45.2072C130.808 45.5312 130.862 45.7472 131.024 45.8912C131.186 46.0532 131.438 46.1252 131.798 46.1252C131.996 46.1252 132.194 46.1072 132.392 46.0532V47.9252C132.122 47.9792 131.69 48.0332 131.276 48.0332ZM138.062 48.1052C135.398 48.1052 133.49 46.1252 133.49 43.4252C133.49 40.7432 135.434 38.7452 138.062 38.7452C140.744 38.7452 142.562 40.6172 142.562 43.4972C142.562 43.7672 142.544 44.0012 142.544 44.0012H135.65C135.83 45.4232 136.748 46.3412 138.062 46.3412C139.106 46.3412 139.844 45.7652 140.06 44.9372L142.31 45.2072C141.68 47.0432 140.024 48.1052 138.062 48.1052ZM135.722 42.4532H140.348C140.186 41.3192 139.34 40.4912 138.062 40.4912C136.874 40.4912 135.992 41.2652 135.722 42.4532ZM147.929 48.0872C145.571 48.0872 143.861 46.0712 143.861 43.4252C143.861 40.7792 145.571 38.7632 147.929 38.7632C149.243 38.7632 150.323 39.3572 150.917 40.3292V34.9652H153.041V47.9252H150.953V46.4492C150.377 47.4752 149.261 48.0872 147.929 48.0872ZM148.523 46.3232C150.017 46.3232 150.971 45.0992 150.971 43.4252C150.971 41.7512 150.017 40.5272 148.523 40.5272C147.047 40.5272 146.093 41.7512 146.093 43.4252C146.093 45.0992 147.047 46.3232 148.523 46.3232ZM156.484 48.1052C155.656 48.1052 155.044 47.5112 155.044 46.6652C155.044 45.8372 155.656 45.2252 156.484 45.2252C157.312 45.2252 157.942 45.8372 157.942 46.6652C157.942 47.5112 157.312 48.1052 156.484 48.1052ZM163.85 48.1052C161.168 48.1052 159.242 46.1252 159.242 43.4252C159.242 40.7252 161.15 38.7452 163.85 38.7452C166.01 38.7452 167.792 40.0052 168.17 42.0572L165.92 42.3092C165.74 41.1932 164.876 40.5272 163.85 40.5272C162.428 40.5272 161.474 41.7152 161.474 43.4252C161.474 45.1352 162.428 46.3232 163.85 46.3232C164.876 46.3232 165.758 45.6572 165.92 44.4872L168.17 44.7572C167.684 46.8812 165.938 48.1052 163.85 48.1052ZM174.118 48.1052C171.4 48.1052 169.402 46.1252 169.402 43.4252C169.402 40.7252 171.4 38.7452 174.118 38.7452C176.854 38.7452 178.852 40.7252 178.852 43.4252C178.852 46.1252 176.854 48.1052 174.118 48.1052ZM174.118 46.3232C175.612 46.3232 176.602 45.1172 176.602 43.4252C176.602 41.7332 175.612 40.5272 174.118 40.5272C172.642 40.5272 171.634 41.7332 171.634 43.4252C171.634 45.1172 172.642 46.3232 174.118 46.3232ZM180.7 47.9252V38.9252H182.788V40.2752C183.346 39.2672 184.264 38.7452 185.416 38.7452C186.676 38.7452 187.594 39.3572 188.062 40.4552C188.674 39.3572 189.664 38.7452 190.888 38.7452C191.77 38.7452 192.508 39.0512 193.012 39.6272C193.534 40.1852 193.858 41.0312 193.858 42.1832V47.9252H191.698V42.5792C191.698 41.8772 191.554 41.4092 191.284 41.1032C191.014 40.7972 190.636 40.6352 190.15 40.6352C189.016 40.6352 188.35 41.4632 188.35 42.8852V47.9252H186.19V42.5792C186.19 41.8772 186.046 41.4092 185.776 41.1032C185.506 40.7972 185.128 40.6352 184.642 40.6352C183.526 40.6352 182.86 41.4632 182.86 42.8852V47.9252H180.7Z" fill="#202020"/>
</svg>
