<?xml version="1.0" standalone="no"?>
<!DOCTYPE svg PUBLIC "-//W3C//DTD SVG 20010904//EN"
 "http://www.w3.org/TR/2001/REC-SVG-20010904/DTD/svg10.dtd">
<svg version="1.0" xmlns="http://www.w3.org/2000/svg"
 width="260.000000pt" height="260.000000pt" viewBox="0 0 260.000000 260.000000"
 preserveAspectRatio="xMidYMid meet">
<metadata>
Created by potrace 1.14, written by Peter Selinger 2001-2017
</metadata>
<g transform="translate(0.000000,260.000000) scale(0.100000,-0.100000)"
fill="#000000" stroke="none">
<path d="M1203 2259 c-332 -31 -638 -249 -779 -554 -109 -235 -116 -536 -19
-761 35 -80 45 -79 242 20 93 46 177 93 187 105 19 21 19 24 3 104 -21 101
-22 165 -2 242 46 175 193 318 363 354 165 35 334 -19 450 -143 115 -124 158
-283 117 -439 -8 -32 -15 -67 -15 -77 0 -36 45 -69 208 -150 214 -107 220
-105 272 82 179 654 -349 1280 -1027 1217z"/>
<path d="M1184 1590 c-62 -25 -134 -93 -165 -158 -55 -110 -30 -257 56 -345
63 -63 124 -91 210 -95 175 -9 314 117 323 293 7 127 -60 240 -176 297 -66 32
-178 36 -248 8z"/>
<path d="M780 814 c-74 -70 -139 -136 -144 -149 -15 -39 2 -68 71 -123 88 -68
216 -134 329 -168 82 -26 103 -28 259 -28 148 -1 180 2 248 22 116 33 192 68
282 127 181 120 184 137 48 268 -213 203 -209 202 -298 142 -99 -65 -147 -79
-275 -79 -130 0 -188 16 -276 79 -80 57 -89 54 -244 -91z"/>
</g>
</svg>
